<?xml version="1.0" standalone="no"?>
<!DOCTYPE svg PUBLIC "-//W3C//DTD SVG 1.1//EN" "http://www.w3.org/Graphics/SVG/1.1/DTD/svg11.dtd" >
<svg xmlns="http://www.w3.org/2000/svg">
<metadata></metadata>
<defs>
<font id="parkermedium" horiz-adv-x="20" >
<font-face units-per-em="2048" ascent="1638" descent="-410" />
<missing-glyph horiz-adv-x="860" />
<glyph horiz-adv-x="0" />
<glyph unicode="&#xd;" horiz-adv-x="681" />
<glyph unicode=" "  horiz-adv-x="860" />
<glyph unicode="&#x09;" horiz-adv-x="860" />
<glyph unicode="&#xa0;" horiz-adv-x="860" />
<glyph unicode="!" horiz-adv-x="219" d="M21.5 1097.5q3.5 20.5 19.5 45.5q25 39 63.5 42t67.5 -30q18 -20 22.5 -78.5t-1.5 -265.5q-6 -313 -25 -346q-35 -66 -94 0q-20 23 -26.5 66.5t-6.5 189.5q0 121 -6 211t-11.5 117.5t-2 48zM39 228q0 13 18 42q25 37 43.5 39t59.5 -24q37 -25 38 -44.5t-34 -56.5 t-58.5 -37t-48.5 39q-18 29 -18 42z" />
<glyph unicode="#" horiz-adv-x="1175" d="M35 436q-45 51 33 70q35 8 90 8q76 0 98.5 8t60.5 51q45 53 46.5 92.5t-44.5 49.5q-37 8 -56 35.5t-7 56.5q8 20 29.5 23.5t99.5 -5.5q80 -8 101.5 -4t37.5 31q12 20 21.5 53t16.5 57.5t20.5 48t39 32t66.5 -0.5q51 -12 59.5 -41.5t-24.5 -85.5q-35 -61 -35 -88.5 t37 -27.5q41 0 78 42t61 113q27 80 66 107q63 43 98 -14q18 -27 -20 -111q-39 -84 -31 -114.5t74 -37.5q55 -4 83.5 -25.5t16.5 -51.5q-4 -14 -34 -19.5t-109 -5.5q-98 0 -121 -8t-58 -53q-45 -59 -30.5 -74t106.5 -21q59 -2 76.5 -9t19.5 -30q6 -43 -32.5 -62t-141.5 -26 l-127 -8l-57 -88q-45 -72 -65.5 -83t-59.5 9q-27 12 -32 45t16 45q18 10 18 43q0 20 -11 26.5t-42 6.5q-104 0 -123 -78q-10 -39 -45 -80.5t-57 -41.5q-20 0 -47 30q-31 35 -7.5 81t-13.5 67q-31 23 -68 22q-37 0 -71 41zM524 518q63 -8 121 46t27 91q-25 31 -56.5 24 t-85.5 -56q-102 -94 -6 -105z" />
<glyph unicode="$" horiz-adv-x="636" d="M20 401q6 35 41 41.5t84 -22.5q61 -31 84 -14.5t23 96.5v90l-100 78q-41 33 -71 64.5t-30 43.5q0 37 49.5 106.5t100.5 104.5q39 27 53 46.5t14 47.5q0 50 29 66q23 14 36 15t20 -7t17.5 -25.5t21.5 -39t38 -50t64 -55.5q61 -43 70 -72.5t-29 -54.5q-27 -10 -50.5 -4 t-43 19.5t-36 -3t-28.5 -75.5q-6 -39 -1 -55.5t30 -32.5q29 -20 63.5 -27.5t79.5 -46.5q80 -68 67.5 -168t-106.5 -160q-35 -20 -64.5 -33.5t-42 -17.5t-20.5 -17.5t-14 -39.5q-25 -113 -80 -78q-29 18 -29 74q0 39 -9 50t-48 21q-72 18 -129.5 61.5t-53.5 73.5zM209 791.5 q8 -25.5 35 -25.5q24 0 24 39t-14 50t-35 -13q-18 -25 -10 -50.5zM371 477q0 -55 6 -68.5t33 -13.5q39 0 59 26.5t12 65.5q-8 31 -48 64t-54 18q-8 -10 -8 -92z" />
<glyph unicode="%" horiz-adv-x="862" d="M20 879q0 41 10.5 67.5t41.5 61.5q37 41 59.5 50t79.5 9q55 0 81.5 -9t57.5 -38q92 -84 58 -176q-14 -37 -5 -37q14 0 41 53q45 90 125 219q57 88 97 88q63 0 68 -55t-48 -137l-65 -94q-29 -48 -29 -58q0 -8 -42 -66.5t-42 -68.5t-37 -59q-39 -57 -18 -62q12 -4 43 33 q53 63 148 57t157 -77q45 -55 39 -100.5t-70 -110.5q-47 -47 -72.5 -60.5t-68.5 -13.5q-72 0 -130.5 50t-58.5 112q0 55 -14 63t-104 -172q-63 -125 -85 -151.5t-57 -26.5q-29 0 -41 7t-14 30q-6 35 56.5 170t127 258t64.5 125q0 18 -41 -2q-18 -8 -27 -19 q-27 -33 -102.5 -25.5t-124.5 48.5q-37 29 -47.5 50.5t-10.5 66.5zM179 915.5q-11 -18.5 5.5 -36t45 -6t20.5 31.5q-6 20 -33 24.5t-38 -14zM598 496q-12 -20 7.5 -37t43.5 -8q27 9 27 36q0 23 -32 26t-46 -17z" />
<glyph unicode="&#x26;" horiz-adv-x="1056" d="M25 527.5q12 78.5 49 121.5q41 49 -4 109q-25 31 -25 149q0 86 8 110.5t47 61.5q59 57 146.5 79t189 -4t178.5 -105q45 -45 57.5 -69t8.5 -62q-10 -127 -141 0q-45 45 -74 59t-82 20q-80 6 -125 -18.5t-45 -77.5q0 -27 20.5 -54.5t73.5 -74.5q37 -33 64.5 -65.5 t27.5 -42.5q0 -25 -42 -53.5t-76 -28.5q-33 0 -68 -37q-23 -20 -28 -43t1 -78q10 -84 41 -115q25 -25 148 -44t180 -9q37 8 73 45t57.5 83t27.5 91t-19 68q-25 25 -39 13.5t-59 -91.5q-27 -47 -64.5 -54.5t-61.5 25.5t-15 88q10 61 63 112.5t113.5 79t117 62.5t68.5 66 q72 174 113 174q29 0 67.5 -30t38.5 -52q0 -33 -49 -119t-96 -133q-37 -39 -44 -58.5t2 -41t10 -69.5t-21 -144q-35 -133 -84 -178.5t-179 -65.5q-86 -14 -136 -10t-216 37q-37 6 -104 55q-45 33 -59.5 58.5t-28.5 97.5q-18 84 -6 162.5z" />
<glyph unicode="'" horiz-adv-x="266" d="M25.5 956.5q-15.5 30.5 9.5 71.5q20 35 40 129.5t38 114.5q29 33 68.5 29.5t56.5 -39.5q10 -25 5 -58t-32 -112q-43 -121 -62.5 -149t-60.5 -23q-47 6 -62.5 36.5z" />
<glyph unicode="(" />
<glyph unicode=")" />
<glyph unicode="*" />
<glyph unicode="+" />
<glyph unicode="," horiz-adv-x="397" d="M43 -68q16 23 63 78q80 94 103 140q26 52 63 81q35 29 49.5 27t36.5 -39q31 -45 9.5 -93t-123.5 -157q-80 -84 -111 -106.5t-63 -18.5q-80 8 -27 88z" />
<glyph unicode="-" horiz-adv-x="727" d="M21 719q-4 37 12 53q12 14 319 4q86 -2 138.5 -4t96.5 -6t65.5 -9t35.5 -15.5t17.5 -21.5t-0.5 -28q-2 -23 -27 -28q-35 -8 -295 -13q-315 -4 -338 17q-20 14 -24 51z" />
<glyph unicode="." horiz-adv-x="268" d="M41 100q-53 82 27 123q47 25 81.5 20t69.5 -42q27 -29 29 -42.5t-15 -43.5q-16 -27 -34.5 -37t-59.5 -15q-45 -2 -62.5 4.5t-35.5 32.5z" />
<glyph unicode="/" />
<glyph unicode="0" horiz-adv-x="882" d="M22.5 551q-4.5 117 1.5 170t31 125q49 145 118 234t141.5 117t147.5 19.5t142.5 -53.5t122.5 -104.5t90 -128.5q72 -137 32 -343t-159 -313q-51 -47 -86 -63t-108 -29q-279 -49 -430 140q-25 31 -32 71.5t-11.5 157.5zM223 608q4 -82 13.5 -119.5t31.5 -70.5 q25 -35 44.5 -45.5t62.5 -10.5q152 0 225.5 116t48.5 313q-8 57 -22.5 88.5t-53.5 72.5q-162 172 -303 -106q-37 -70 -44 -108t-3 -130z" />
<glyph unicode="1" horiz-adv-x="249" d="M21 296q0 50 16 228q12 129 15 247t-1 183.5t-5 122t6 84t26.5 46t60.5 28.5q4 0 47 -16l43 -17v-452q0 -451 -12 -504q-12 -68 -76.5 -77t-103.5 50q-16 27 -16 77z" />
<glyph unicode="2" horiz-adv-x="792" d="M28.5 297q20.5 51 127.5 180q137 162 198 211q117 94 160 146.5t43 97.5q0 80 -53 107.5t-129 -11.5q-25 -12 -59.5 -45t-63.5 -58.5t-59.5 -46t-61.5 -13.5t-55 44q-18 29 -19.5 44.5t15.5 41.5q24 43 141 133q86 66 116.5 78.5t110.5 12.5q109 0 151 -34t62 -34 q29 0 58.5 -66.5t29.5 -132.5q0 -90 -43 -157.5t-196 -216.5q-74 -72 -127 -131.5t-53 -69.5q0 -20 35.5 -25.5t177.5 -9.5q205 -4 229 -31q18 -20 -8 -75l-23 -50l-325 -4q-213 -2 -274.5 2t-84.5 23q-41 39 -20.5 90z" />
<glyph unicode="3" horiz-adv-x="739" d="M20 1079q-4 56 27 66q20 6 67.5 28.5t94.5 33t127 12.5q98 0 157.5 -24t133.5 -93q31 -27 39 -53.5t8 -108.5q0 -74 -7.5 -102.5t-27.5 -46.5q-31 -29 -30 -48.5t38 -62.5q37 -45 57.5 -115.5t12.5 -124.5q-12 -59 -69.5 -121.5t-133.5 -97.5q-53 -27 -97 -35t-124 -8 q-86 0 -120 7.5t-75 35.5q-55 39 -69.5 74t12.5 76q27 39 60.5 40t93.5 -34q63 -37 146 -28t134 58.5t50 110t-54 96.5q-35 25 -77 30t-73.5 -3t-71.5 -6t-69 22q-43 31 -44 64t42 59.5t113 32.5q88 8 142 41t54 78q0 68 -84 109.5t-155 11.5q-53 -25 -137 -25 q-61 -2 -73.5 5t-17.5 46z" />
<glyph unicode="4" horiz-adv-x="808" d="M20 666q-4 39 33 84t211 219q250 248 287 250q55 0 75.5 -73t16.5 -162t8.5 -166t50.5 -83q18 -2 38 -15t33 -31.5t16.5 -37t-13 -34t-53.5 -19.5l-57 -8l-9 -184q-10 -186 -22 -207q-14 -20 -62.5 -20.5t-60.5 20.5q-14 20 -23 196l-10 178l-176 2q-123 2 -178 9.5 t-77.5 25t-27.5 56.5zM254 747.5q8 -18.5 127 -12.5l98 4v103q0 100 -27.5 102t-121.5 -92q-84 -86 -76 -104.5z" />
<glyph unicode="5" horiz-adv-x="843" d="M35 438q25 29 65.5 25t81.5 -39q49 -43 138.5 -70.5t142.5 -17.5q57 10 102 53q29 29 35 47.5t0 63.5q-8 70 -51 112q-31 31 -63.5 38t-155.5 12q-68 2 -104 7t-64.5 12t-38.5 26.5t-15.5 44t-5.5 71.5q0 59 -8 117.5t-15 89.5t-5 66.5t18 66.5q20 41 49 49q43 16 365 11 q111 -2 170 -6.5t95 -15.5t45 -27.5t5 -45.5q-6 -49 -66.5 -63t-224.5 -8q-205 8 -223 -10.5t-18 -100.5q0 -39 3 -57.5t25.5 -33.5t55.5 -21.5t110 -18.5q100 -14 131 -28.5t93 -73.5q72 -74 97 -143.5t15 -163.5q-8 -68 -38.5 -111t-104.5 -88q-63 -39 -211 -37t-244 43 q-115 47 -169 113.5t-17 111.5z" />
<glyph unicode="6" horiz-adv-x="774" d="M49 403q-63 178 7.5 379t252.5 359q158 137 223 37q31 -47 13.5 -90.5t-86.5 -90.5q-66 -43 -129.5 -118.5t-50.5 -96.5q10 -14 131 -14q143 0 222 -48t111 -157q23 -76 -3.5 -150.5t-88 -127t-139.5 -84t-167 -26.5t-161 52q-66 41 -85 66.5t-50 109.5zM258 547 q-72 -96 4 -166q27 -27 48.5 -32t72.5 1q111 12 154.5 78t-15.5 129q-23 25 -48 33t-85 8q-63 0 -84.5 -8t-46.5 -43z" />
<glyph unicode="7" horiz-adv-x="825" d="M45 1182q18 27 59 30q47 6 316 7q311 0 356 -17q39 -16 25 -69q-4 -12 -13 -37q-16 -49 -49.5 -119t-57.5 -118t-24 -58t29 -19.5t64.5 -21.5t46.5 -31q20 -31 -13.5 -64.5t-83.5 -33.5q-51 0 -77.5 -6.5t-50 -35t-38 -71.5t-36.5 -131q-33 -127 -84.5 -183.5 t-110.5 -25.5q-41 23 -40 71t48 157q31 68 50.5 131t13.5 69q-8 8 -56 8q-86 0 -121.5 39t-11.5 105l17 45l250 -25l51 115q51 113 51 127t-231 14q-137 0 -191.5 5t-77.5 22q-63 43 -10 121z" />
<glyph unicode="8" horiz-adv-x="847" d="M21.5 499.5q5.5 71.5 62.5 166.5q41 66 45 89t-10 87q-25 102 13 190.5t132 147.5q41 27 73 33t103.5 1.5t104.5 -14.5t71 -43q168 -133 105 -342q-12 -43 -10 -60.5t20 -37.5q39 -45 66.5 -112.5t29.5 -121.5q0 -43 -12 -72.5t-49 -74.5q-61 -74 -135 -117 q-51 -31 -86 -37t-137 0q-98 4 -134 13.5t-90 46.5q-31 20 -67.5 56t-55.5 62q-45 68 -39.5 139.5zM188.5 526q-4.5 -41 34.5 -88q51 -66 142.5 -85t177.5 18q90 37 108 109.5t-43 135.5q-35 35 -62.5 42.5t-121.5 7.5t-122 -8.5t-64 -45.5q-45 -45 -49.5 -86zM294 879.5 q32 -64.5 135 -64.5t132 56t-37 128q-94 100 -192 11q-70 -66 -38 -130.5z" />
<glyph unicode="9" horiz-adv-x="749" d="M23 973q2 39 16 64.5t59 68.5q74 70 146 88q70 18 159 21.5t100 -13t40 -16.5q27 0 90 -65.5t80 -112.5q16 -43 16 -203q0 -111 -8 -153t-45 -117q-45 -88 -162 -218.5t-168 -144.5q-57 -18 -105 39t-18 111q14 27 96 88q61 47 109.5 107.5t48.5 88.5q0 18 -115 12 q-72 -4 -108.5 2.5t-85.5 30.5q-94 45 -123 109.5t-22 212.5zM209 913q0 -49 42 -90t93 -41q49 0 99.5 26t68.5 60q23 41 8.5 96.5t-53.5 69.5q-41 16 -53 15q-115 -20 -160 -49t-45 -87z" />
<glyph unicode=":" />
<glyph unicode=";" />
<glyph unicode="&#x3c;" />
<glyph unicode="=" />
<glyph unicode="&#x3e;" />
<glyph unicode="?" horiz-adv-x="778" d="M29 924q-18 27 2 84q33 88 131 154.5t216 79.5t230 -34q53 -25 100.5 -110.5t49.5 -159.5q2 -45 -10.5 -68.5t-63.5 -70.5q-49 -45 -97 -82t-67.5 -51.5t-36 -37t-26.5 -61.5q-14 -59 -50 -101t-65 -32q-25 10 -53 53q-18 29 -20.5 49.5t12.5 71.5q14 45 34.5 73 t65.5 60.5t94 61t71.5 45t37.5 43.5q16 29 13 49.5t-26 69.5q-33 63 -71.5 79.5t-126.5 6.5q-55 -8 -94 -30t-58.5 -47.5t-35 -51t-35 -44t-48.5 -20.5q-55 -6 -73 21zM266 239.5q2 38.5 35 63.5q35 23 56.5 25t65.5 -14.5t44 -57.5t-45 -76q-39 -33 -67.5 -34t-59.5 27 t-29 66.5z" />
<glyph unicode="@" />
<glyph unicode="A" horiz-adv-x="1077" d="M26 284q16 54 95 187l72 127q20 39 91.5 161t106.5 193q20 39 41 63.5t32 34t11 17.5q0 14 45 82q31 47 49.5 58.5t63.5 11.5q59 0 84.5 -17.5t25.5 -58.5q0 -18 12.5 -42t49.5 -115t80 -236q39 -129 75.5 -228.5t56 -138.5t31.5 -69q10 -26 9 -40q0 -14 -17 -43 q-27 -45 -77 -49q-7 -1 -13 -1q-24 1 -36 13q-16 16 -52 95q-53 111 -53 141q0 46 -45 58q-30 8 -111 8q-39 0 -90 -2q-125 -4 -176 -14.5t-81 -37t-68 -96.5q-66 -118 -112 -152q-22 -16 -42 -16q-23 0 -43 21q-20 20 -20 50q-1 16 5 35zM446 658q11 -9 68 -9q27 0 64 2 l106 4l-6 68q-4 39 -20.5 91t-33 86t-20.5 34q-8 0 -31.5 -28.5t-40.5 -57.5l-61 -109q-30 -49 -30 -70q1 -7 5 -11z" />
<glyph unicode="B" horiz-adv-x="880" d="M20 455q0 133 34 299t34 266q0 117 29.5 152.5t134.5 48.5q121 14 205 14q58 0 99 -7q99 -16 167 -81q81 -79 97 -151q5 -21 5 -47q0 -61 -26 -146l-29 -92l45 -82q45 -82 45 -178q0 -66 -9 -90.5t-42 -57.5q-59 -57 -192.5 -91t-303.5 -34h-188l-53 60 q-37 43 -44.5 72.5t-7.5 144.5zM225 461l4 -90l121 -15q47 -6 88 -6q60 0 109 12q82 20 110 70q17 32 17 49.5t-19 53.5q-27 57 -93 77q-60 18 -78 17h-3q-82 -10 -156.5 -28.5t-84.5 -29.5q-15 -15 -15 -85v-25zM229 768q7 -11 46 -11q42 0 123 13q155 25 206 57 q23 12 30 33t7 62q0 49 -10 68t-53 50q-37 25 -69 35t-83 10q-94 0 -138 -45t-57 -153q-6 -58 -6 -88q0 -24 4 -31z" />
<glyph unicode="C" horiz-adv-x="985" d="M20 696q0 132 46 217q39 74 112.5 148t147.5 113q61 33 152 40q44 3 80 3q40 1 70 -3q58 -8 72 -14q47 -25 104.5 -85t57.5 -87q0 -72 -57 -90q-14 -4 -28 -4q-42 0 -81 41q-43 45 -129 45h-7q-91 -2 -167 -51q-113 -72 -149 -153q-23 -51 -24 -115q0 -39 9 -83 q10 -51 30 -83.5t69 -81.5l82 -80h149h41q76 0 98 6q28 8 86 55q72 61 120 61q4 -1 10 -1q50 -8 51 -82q0 -86 -139.5 -160t-299.5 -74q-147 0 -269 78t-191 215q-46 89 -46 225z" />
<glyph unicode="D" horiz-adv-x="839" d="M25 680l10 442l55 47q39 35 67.5 42.5t129.5 7.5q90 0 131 -8.5t94 -34.5q227 -119 293 -443q8 -37 11 -71q2 -26 2 -49v-14q-1 -28 -7 -54.5t-11 -45t-17.5 -40t-18.5 -31.5t-21.5 -26.5t-20.5 -22.5t-20.5 -19.5t-17.5 -13.5q-59 -57 -104 -82.5t-119 -48.5 q-121 -37 -267 -40h-23q-126 0 -142 32q-8 18 -8 176q0 113 4 297zM205 430q0 -29 10 -36t53 -11q9 -1 19 -1q63 0 164 32q76 25 101.5 42t45.5 60q34 66 34 147q0 43 -10 91q-28 136 -120 211q-41 33 -68.5 43t-85.5 10q-88 0 -94 -21q-4 -14 -23.5 -239.5t-25.5 -327.5z " />
<glyph unicode="E" horiz-adv-x="821" d="M20 637q0 270 5.5 349t27.5 126q31 70 61.5 87.5t346.5 18.5q223 0 271 -5t61 -27q7 -15 7 -31q0 -17 -8 -34q-14 -34 -51 -54q-18 -10 -65 -13t-136 -7.5t-175 -18.5l-135 -18v-203l190 -4q127 -4 160.5 -10.5t46.5 -28.5q14 -31 10 -52.5t-34 -37t-83 -24.5t-139 -15 l-151 -12v-269l233 -6q233 -4 272 -31q38 -24 38 -44t-34 -56q-27 -29 -72.5 -34t-273.5 -5q-199 0 -260 5t-82 22q-20 20 -25.5 87.5t-5.5 344.5z" />
<glyph unicode="F" horiz-adv-x="878" d="M22 306q-1 19 -1 57q0 97 6 313q8 293 15 371.5t30 115.5q23 33 42 44.5t62 15.5q85 9 278 9h40q224 -1 282 -9q45 -8 61.5 -17.5t18.5 -34.5q2 -10 2 -19q0 -32 -22 -48q-28 -20 -99 -19q-98 0 -287.5 -20.5t-201.5 -30.5q-12 -14 -23 -90q-2 -23 -2 -41q1 -57 23 -71 q20 -13 84 -12q33 0 78 3q54 4 93 4q55 0 80 -8q44 -14 44 -67q0 -55 -34 -70.5t-155 -15.5q-145 0 -190 -19l-45 -16l12 -193q6 -94 6 -140q0 -17 -1 -28q-3 -39 -23 -61q-29 -31 -74 -31t-76 33q-19 25 -23 95z" />
<glyph unicode="G" horiz-adv-x="946" d="M22 679q3 87 14 143.5t21 76.5q29 55 29 82q0 10 20.5 43t54.5 74t88 76.5t113 46.5q37 7 86 7q41 0 91 -5q131 -10 219 -77q67 -51 67 -104q0 -16 -6 -32q-10 -26 -60 -26h-3q-54 1 -125 34q-78 33 -131 33q-66 0 -134.5 -41t-103.5 -103q-29 -45 -35 -85t-6 -146 q0 -152 23.5 -215.5t97.5 -100.5q43 -20 78 -25q19 -3 49 -3q23 0 53 2q109 8 156 26q31 12 38 29t7 68q0 98 -27.5 119.5t-152.5 21.5q-121 0 -155 15.5t-34 70.5q0 41 20.5 58.5t74 24.5t182.5 9h39q49 0 70.5 1t54 -2t44 -3t32 -10t24.5 -14.5t14.5 -26t10.5 -32.5t3 -45 t3 -55.5v-72.5v-41q0 -256 -20.5 -276.5t-305.5 -20.5q-188 0 -248.5 5t-105.5 28q-90 45 -144.5 127t-69.5 168q-11 69 -11 139q0 17 1 34z" />
<glyph unicode="H" horiz-adv-x="874" d="M23 897q-1 55 -1 99q0 154 11 178q6 14 24 30q37 29 53.5 29t49.5 -27q23 -20 30 -54t9 -151l4 -178h469l6 191q4 168 18 188q6 8 31 19q22 8 42.5 8t39.5 -8q23 -10 29 -45q8 -51 14 -447q1 -102 1 -184q0 -273 -15 -324q-20 -41 -64 -43q-39 0 -58.5 23.5t-31.5 238.5 l-12 215h-469l-6 -209q-2 -123 -8.5 -172t-22.5 -65q-27 -29 -57.5 -29t-47.5 29q-31 55 -38 688z" />
<glyph unicode="I" horiz-adv-x="200" d="M22 706q-2 157 -2 263q0 213 9 227q13 20 71 20q1 0 3 1q55 1 68 -19q9 -13 9 -239q0 -104 -2 -252q-4 -424 -24 -486q-20 -43 -64 -43q-31 0 -47 31q-14 27 -21 497z" />
<glyph unicode="J" horiz-adv-x="675" d="M20 526q4 45 14.5 54.5t59.5 13.5q16 1 28 1q24 0 36 -5q16 -8 39 -47q35 -55 45 -101q8 -33 60 -72.5t89 -39.5q25 0 66 43q29 31 35 80q4 51 6 348q0 262 5 327.5t25 90.5q30 32 58 32h2q39 0 51 -34q16 -53 16 -459q0 -397 -16 -463q-14 -53 -61 -80q-8 -4 -23 -12 q-49 -26 -157 -26h-8q-114 1 -154 28q-45 31 -97.5 82t-52.5 63t-18.5 37t-33.5 61q-14 31 -14 68v10z" />
<glyph unicode="K" horiz-adv-x="843" d="M23 575q2 47 4 138q8 289 15 382t24 111q27 31 45 29t53 -35q27 -25 33 -56.5t6 -146.5q0 -163 18 -163q12 0 96 78.5t185.5 176t138.5 121.5q55 41 88 41q35 0 64.5 -19.5t29.5 -41.5q0 -10 -60.5 -76.5t-144.5 -148.5l-204 -197l94 -98q106 -111 210.5 -240t104.5 -151 q1 -41 -27 -63q-23 -19 -60 -20q-6 0 -13 1q-41 4 -69.5 34.5t-118.5 163.5q-53 78 -91 130.5t-71 89t-55.5 53t-44 16.5t-37 -13.5t-33.5 -41.5q-21 -37 -25 -74q-2 -16 -1 -45q0 -39 3 -100q4 -57 4 -97q0 -56 -8 -79q-14 -39 -74 -39q-51 0 -63 26q-18 33 -18 223 q0 58 2 131z" />
<glyph unicode="L" horiz-adv-x="731" d="M22 712q-2 99 -2 179q0 280 29 323q22 36 53 36h2q32 -1 76 -38l51 -38l-20 -275q-9 -131 -9 -226q0 -106 11 -170q20 -120 30.5 -131.5t235.5 -13.5l223 -4l7 -59q1 -9 1 -18q0 -46 -28 -60q-43 -22 -286 -22h-21q-184 0 -236.5 5t-68.5 23q-38 43 -48 489z" />
<glyph unicode="M" horiz-adv-x="956" d="M22 448q8 80 18 236q5 94 5 183q0 60 -2 118q-6 104 -6 154q0 19 1 29q3 40 23 57q35 29 69 29q22 0 42 -11q54 -29 90.5 -72t36.5 -53q0 -14 86 -141l86 -129l41 39q31 29 102.5 128t128.5 165q67 74 95 84q6 2 11 2q24 0 54 -31q25 -23 29 -95.5t4 -408.5 q0 -471 -16 -504q-16 -29 -46 -31q-3 0 -6 -1q-27 0 -57 22q-23 17 -27 73q-3 36 -3 156q0 60 1 140q1 69 1 124q0 222 -13 230q-1 1 -3 1q-12 0 -46 -42q-39 -47 -96.5 -124t-83.5 -107q-33 -37 -48.5 -44.5t-37.5 5.5q-31 16 -86.5 84.5t-87.5 126.5q-30 58 -45 58 q-5 0 -9 -7q-12 -31 -12 -246v-65q3 -217 2 -300v-49q-2 -29 -49 -39q-15 -3 -29 -3q-29 0 -51 14q-46 31 -60 99q-8 41 -9 87q0 28 3 59z" />
<glyph unicode="N" horiz-adv-x="802" d="M20 539v6q2 365 14.5 513t41.5 171q29 21 56 21q22 0 41 -14q44 -32 97 -142l70 -146q31 -61 31 -84q0 -16 33.5 -65t33.5 -68q2 -27 68 -99q60 -64 83 -64q3 0 5 1q14 5 16 95q1 26 1 53q0 69 -4 145q-3 60 -3 118q0 46 2 94q4 106 25 136q23 37 55 40h6q28 0 51 -25 q18 -20 24.5 -117.5t8.5 -409.5l6 -495l-63 -4q-9 -1 -17 -1q-30 0 -52 12q-28 15 -103 87q-109 105 -109 125q0 12 -33.5 50t-33.5 56q0 20 -33 68.5t-35 65.5q0 25 -44 89q-39 57 -53 57q-2 0 -3 -1q-16 -10 -17 -268q0 -117 -2 -179.5t-11 -102.5t-24.5 -51t-42.5 -11 q-53 0 -67 28q-19 39 -19 290v26z" />
<glyph unicode="O" horiz-adv-x="1048" d="M20 629q0 104 28 179t110 196q39 57 109.5 119.5t97.5 62.5q22 1 63 24q44 25 110 25q11 0 23 -1q82 -5 152 -40q94 -47 186 -166t117 -225q14 -56 13 -113q0 -105 -46 -214q-72 -167 -207 -240q-49 -27 -91 -34t-138 -7q-174 0 -279.5 51t-195.5 180q-35 49 -43.5 83 t-8.5 120zM215 537q29 -53 65.5 -82t108.5 -52q80 -24 155 -24q54 0 105 13q121 30 158 116q28 70 28 143q1 43 -9 87q-26 118 -121 220q-53 59 -80 76t-64 17q-119 -2 -219 -113q-68 -74 -91.5 -119t-39.5 -131q-13 -62 -13 -90q0 -29 17 -61z" />
<glyph unicode="P" horiz-adv-x="790" d="M23 647q-2 167 -2 277q0 183 6 206q8 33 46 56t122 43q85 21 164 22q58 0 113 -12q130 -27 198 -104q80 -89 97 -193q4 -25 4 -49q0 -73 -40 -131q-49 -74 -128 -105.5t-232 -40.5l-176 -10l-5 -184q-6 -184 -24 -206q-15 -18 -55 -18q-11 0 -23 1l-61 4zM171 878v-17 q0 -94 11 -101q9 -4 33 -4q45 0 143 14q152 22 181 43q52 38 52 89q0 18 -6 37q-24 75 -122 122q-69 33 -105 37q-6 1 -13 1q-34 0 -89 -18q-55 -16 -70 -57q-14 -36 -15 -146z" />
<glyph unicode="Q" horiz-adv-x="1159" d="M27 592q-6 61 -6 115q0 173 65 276q97 149 238 227q47 27 89 34t146 7t149.5 -7t104.5 -34q92 -43 154.5 -113.5t85 -147.5t22.5 -148.5t-20 -128.5q-12 -39 -21.5 -71t-14.5 -54.5t-3 -43t1 -30.5t8 -25.5t11 -18.5t15.5 -17.5t15.5 -16.5q73 -86 73 -138q0 -22 -14 -38 q-18 -24 -57 -24q-5 0 -11 1q-48 3 -85 33q-40 32 -100 32h-3q-63 -1 -122 -32q-39 -20 -82 -27q-33 -5 -96 -5h-38q-150 0 -239.5 41t-175.5 149q-53 63 -67.5 98t-22.5 107zM231 821q-26 -71 -26 -134q0 -69 31 -130q59 -117 217 -170q61 -19 115 -19q13 0 25 2 q64 5 77 38q6 18 -24 51t-62.5 62.5t-43.5 71.5q-3 9 -3 17q0 33 36 64q24 22 55 22q51 0 120 -57q45 -38 74 -38q14 0 24 9q31 29 31 152q0 66 -10.5 95.5t-47.5 80.5q-59 76 -112 94q-37 12 -129 16h-38q-67 0 -110 -10q-39 -6 -106.5 -80.5t-92.5 -136.5z" />
<glyph unicode="R" horiz-adv-x="1128" d="M23 582q0 51 2 139q6 371 22 436q18 70 74 84q24 6 110 12q74 5 147 5l111 -3q129 -6 170 -22q47 -18 99 -76q33 -37 42 -63.5t9 -81.5q0 -76 -33 -131.5t-123 -132.5q-51 -45 -56 -58.5t13 -50.5l54 -104q29 -55 90 -105q51 -43 105 -49q11 -1 23 -1q48 0 113 19 q45 14 60.5 12.5t31.5 -24.5q23 -31 23 -59q0 -53 -84 -95q-76 -39 -154 -39q-48 0 -97 15q-128 39 -230 170q-72 92 -137 166q-45 47 -67 58q-16 8 -44 8q-10 0 -21 -1l-63 -4v-184q0 -184 -14.5 -205.5t-79.5 -21.5q-59 0 -76 30q-21 39 -21 241q0 53 1 116zM203 877 q18 -51 59 -63q17 -5 43 -6q37 0 94 11q98 16 144.5 42t72.5 75q23 44 22 68v6q-3 24 -40 65q-29 29 -56.5 36t-123.5 7q-98 0 -126 -7t-61 -40q-46 -48 -46 -111q0 -39 18 -83z" />
<glyph unicode="S" horiz-adv-x="856" d="M20 909q0 45 47.5 124t90.5 110q88 59 204 81q50 9 97 9q63 -1 125 -17q108 -28 157 -108q27 -43 28 -55.5t-19 -34.5q-25 -29 -62 -32h-9q-33 0 -63 20q-42 29 -114 46q-38 9 -77 9q-36 1 -75 -7q-80 -16 -110 -77q-13 -27 -13 -51q-1 -19 7 -36q18 -40 67 -48 q23 -6 146.5 -41t152.5 -35q39 0 115 -55.5t90 -92.5q27 -68 30 -92q1 -4 1 -10q0 -22 -11 -57q-18 -63 -73.5 -127t-122.5 -99q-47 -25 -90 -31.5t-131 -6.5q-98 0 -134 8t-88 39q-127 80 -157 207q-3 12 -3 23q0 31 25 56q35 35 69 35q38 0 75 -43q102 -123 131.5 -148.5 t74.5 -25.5q72 0 164 53.5t92 96.5q0 27 -59 72.5t-96 45.5q-49 0 -182.5 46.5t-182.5 78.5q-47 33 -82 84t-35 86z" />
<glyph unicode="T" horiz-adv-x="958" d="M20 1158v6q0 52 31 71q29 16 436 16h406l29 -41q18 -27 18 -53q0 -11 -4 -21q-10 -36 -51 -53q-43 -16 -158 -16t-133.5 -22.5t-22.5 -432.5l-4 -409h-59q-39 0 -54.5 10t-31.5 47q-18 38 -22 106q-1 25 -1 71q0 79 4 220q2 98 2 168q0 142 -8 176q-16 55 -75 64 q-23 2 -103 2q-133 0 -164 18q-33 16 -35 73z" />
<glyph unicode="U" horiz-adv-x="876" d="M20 829q0 242 5 296.5t28 70.5q23 17 54 17q10 1 20 -1q43 -8 68 -41q16 -20 16 -118.5t-5 -212.5q-2 -38 -2 -78q0 -78 7 -160q8 -80 20.5 -110.5t49.5 -69.5q41 -43 65.5 -51.5t102.5 -8.5q72 0 98 7.5t49 31.5q72 76 72 519q0 197 14 239q23 55 74 55q24 0 53 -12 l47 -18l-10 -324q-8 -184 -19.5 -289.5t-38 -181.5t-64.5 -112.5t-108 -67.5q-63 -29 -148 -29q-54 0 -117 12q-163 30 -230 105q-35 41 -68 115q-23 49 -28 119.5t-5 297.5z" />
<glyph unicode="V" horiz-adv-x="1038" d="M31 1202q18 33 41 33q27 0 85 -53.5t66 -85.5q18 -63 127 -319.5t135 -272.5q16 -10 49 19.5t44 64.5q16 55 213 459q57 121 97 151q19 14 40 15q25 0 53 -19q29 -18 35 -34q3 -7 3 -17q0 -15 -5 -39q-10 -61 -62 -162l-268 -532q-33 -61 -33 -84t-51 -84 q-42 -48 -72 -60q-7 -3 -15 -3q-25 0 -54 27q-39 36 -82 115.5t-111 231.5q-100 230 -100 248t-45 102t-79 171q-20 52 -20 87q0 24 9 41z" />
<glyph unicode="W" horiz-adv-x="1284" d="M20 1172q2 26 13 40q18 23 43 23q27 0 73 -53.5t70 -108.5q31 -80 63.5 -184.5t32.5 -128.5q0 -31 37 -138.5t47 -107.5q20 0 68.5 148.5t56.5 232.5q12 129 62 191q31 39 65 40q21 0 43 -14q31 -20 41 -75.5t26.5 -186.5t55.5 -268q12 -43 37 -47q12 6 16 20 q0 18 10.5 42t37 79t49.5 115l77 186q43 104 43 138t41 81l41 47l50 -35q37 -28 44 -68q2 -9 2 -20q-1 -36 -19 -93q-24 -73 -57.5 -150.5t-91 -223t-102.5 -291.5q-33 -104 -67 -146q-29 -37 -67 -37q-5 0 -11 1q-23 4 -39 27.5t-43 87.5q-102 258 -131 276q-8 4 -14.5 3 t-13.5 -13t-14 -33.5t-17 -58.5q-82 -292 -184 -292q-5 0 -9 1q-37 6 -72 49q-27 31 -72.5 161t-86.5 286l-39 149q-8 31 -21.5 73t-26 78t-24.5 74q-13 39 -19 69q-5 24 -5 46q1 4 1 9z" />
<glyph unicode="X" horiz-adv-x="1064" d="M20 266q0 25 185.5 210.5t191.5 207.5q1 4 1 9q0 33 -54 114q-63 94 -164 203q-80 84 -90 128q-2 7 -2 14q0 34 43 54q23 6 40 8.5t41 -10t42 -24t41.5 -35t41 -43t40 -47t40 -49t38 -47t34.5 -41.5l50 -60l182 189q141 145 197 177q23 13 42 12q28 0 50 -26 q13 -16 13 -36q0 -24 -18 -53q-34 -54 -169 -185q-178 -174 -179 -197q0 -16 126 -163.5t214 -235.5q47 -47 47 -61t-46 -57.5t-62 -43.5q-43 0 -136 94.5t-173 188.5t-88 94q-10 0 -207 -188.5t-221 -188.5q-29 0 -60 29t-31 59z" />
<glyph unicode="Y" horiz-adv-x="997" d="M20 1149q0 29 45.5 65.5t61.5 36.5q29 0 242 -241l86 -99l59 45q25 18 94 78q215 186 291 205q10 2 18 2q58 0 60 -82q0 -39 -22.5 -63.5t-120.5 -96.5q-145 -104 -213 -174l-66 -67l10 -260q4 -113 4 -173q0 -30 -1 -47q-3 -49 -21 -69q-29 -31 -74 -31t-72 31 q-25 27 -25.5 141.5t-9 246.5t-49.5 194q-23 33 -99.5 115.5t-137 152.5t-60.5 90z" />
<glyph unicode="Z" horiz-adv-x="960" d="M20 268q0 27 28 89.5t61 113.5q72 113 129 180.5t184 192.5q115 113 149.5 155.5t22.5 55.5q-23 20 -252 26q-180 4 -234.5 20.5t-54.5 65.5t62 64q68 16 434 18q66 1 118 1q103 0 149 -3q68 -4 91 -20q25 -17 32 -35q2 -5 2 -12q1 -16 -11 -39q-16 -33 -54 -77 t-114 -122q-150 -156 -290 -317.5t-165 -206.5q-18 -37 -1.5 -47.5t286.5 -14.5q188 -4 234 -10t72 -31.5t28 -37t-17 -44.5l-26 -47l-410 -4q-112 -1 -190 -1q-117 0 -159 2q-70 3 -83 24q-20 29 -21 61z" />
<glyph unicode="[" />
<glyph unicode="\" />
<glyph unicode="]" />
<glyph unicode="a" />
<glyph unicode="b" />
<glyph unicode="c" />
<glyph unicode="d" />
<glyph unicode="e" />
<glyph unicode="f" />
<glyph unicode="g" />
<glyph unicode="h" />
<glyph unicode="i" />
<glyph unicode="j" />
<glyph unicode="k" />
<glyph unicode="l" />
<glyph unicode="m" />
<glyph unicode="n" />
<glyph unicode="o" />
<glyph unicode="p" />
<glyph unicode="q" />
<glyph unicode="r" />
<glyph unicode="s" />
<glyph unicode="t" />
<glyph unicode="u" />
<glyph unicode="v" />
<glyph unicode="w" />
<glyph unicode="x" />
<glyph unicode="y" />
<glyph unicode="z" />
<glyph unicode="{" />
<glyph unicode="|" />
<glyph unicode="}" />
<glyph unicode="~" />
<glyph unicode="&#xa2;" />
<glyph unicode="&#xa3;" />
<glyph unicode="&#xa7;" />
<glyph unicode="&#xab;" />
<glyph unicode="&#xad;" horiz-adv-x="727" d="M21 719q-4 37 12 53q12 14 319 4q86 -2 138.5 -4t96.5 -6t65.5 -9t35.5 -15.5t17.5 -21.5t-0.5 -28q-2 -23 -27 -28q-35 -8 -295 -13q-315 -4 -338 17q-20 14 -24 51z" />
<glyph unicode="&#xbb;" />
<glyph unicode="&#xbf;" />
<glyph unicode="&#xc0;" />
<glyph unicode="&#xc1;" />
<glyph unicode="&#xc2;" />
<glyph unicode="&#xc4;" />
<glyph unicode="&#xc7;" />
<glyph unicode="&#xc8;" />
<glyph unicode="&#xc9;" />
<glyph unicode="&#xca;" />
<glyph unicode="&#xcb;" />
<glyph unicode="&#xce;" />
<glyph unicode="&#xcf;" />
<glyph unicode="&#xd1;" />
<glyph unicode="&#xd3;" />
<glyph unicode="&#xd4;" />
<glyph unicode="&#xd6;" />
<glyph unicode="&#xd9;" />
<glyph unicode="&#xda;" />
<glyph unicode="&#xdb;" />
<glyph unicode="&#xdc;" />
<glyph unicode="&#xdf;" />
<glyph unicode="&#xe0;" />
<glyph unicode="&#xe1;" />
<glyph unicode="&#xe2;" />
<glyph unicode="&#xe4;" />
<glyph unicode="&#xe7;" />
<glyph unicode="&#xe8;" />
<glyph unicode="&#xe9;" />
<glyph unicode="&#xea;" />
<glyph unicode="&#xeb;" />
<glyph unicode="&#xee;" />
<glyph unicode="&#xef;" />
<glyph unicode="&#xf3;" />
<glyph unicode="&#xf4;" />
<glyph unicode="&#xf6;" />
<glyph unicode="&#xf9;" />
<glyph unicode="&#xfa;" />
<glyph unicode="&#xfb;" />
<glyph unicode="&#xfc;" />
<glyph unicode="&#x2000;" horiz-adv-x="682" />
<glyph unicode="&#x2001;" horiz-adv-x="1365" />
<glyph unicode="&#x2002;" horiz-adv-x="682" />
<glyph unicode="&#x2003;" horiz-adv-x="1365" />
<glyph unicode="&#x2004;" horiz-adv-x="455" />
<glyph unicode="&#x2005;" horiz-adv-x="341" />
<glyph unicode="&#x2006;" horiz-adv-x="227" />
<glyph unicode="&#x2007;" horiz-adv-x="227" />
<glyph unicode="&#x2008;" horiz-adv-x="170" />
<glyph unicode="&#x2009;" horiz-adv-x="273" />
<glyph unicode="&#x200a;" horiz-adv-x="75" />
<glyph unicode="&#x2010;" horiz-adv-x="727" d="M21 719q-4 37 12 53q12 14 319 4q86 -2 138.5 -4t96.5 -6t65.5 -9t35.5 -15.5t17.5 -21.5t-0.5 -28q-2 -23 -27 -28q-35 -8 -295 -13q-315 -4 -338 17q-20 14 -24 51z" />
<glyph unicode="&#x2011;" horiz-adv-x="727" d="M21 719q-4 37 12 53q12 14 319 4q86 -2 138.5 -4t96.5 -6t65.5 -9t35.5 -15.5t17.5 -21.5t-0.5 -28q-2 -23 -27 -28q-35 -8 -295 -13q-315 -4 -338 17q-20 14 -24 51z" />
<glyph unicode="&#x2012;" horiz-adv-x="727" d="M21 719q-4 37 12 53q12 14 319 4q86 -2 138.5 -4t96.5 -6t65.5 -9t35.5 -15.5t17.5 -21.5t-0.5 -28q-2 -23 -27 -28q-35 -8 -295 -13q-315 -4 -338 17q-20 14 -24 51z" />
<glyph unicode="&#x2013;" horiz-adv-x="1062" d="M21 719q-6 37 18 53q18 14 476 4q128 -2 206 -4t144 -6t98 -9t52.5 -15.5t26 -21.5t-0.5 -28q-3 -23 -40 -28q-53 -8 -440 -13q-470 -4 -504 17q-30 14 -36 51z" />
<glyph unicode="&#x2014;" horiz-adv-x="2086" d="M22 719q-12 37 36 53q36 14 951 4q257 -2 413.5 -4t287.5 -6t195 -9t106 -15.5t52.5 -21.5t-1.5 -28q-6 -23 -81 -28q-104 -8 -879 -13q-939 -4 -1008 17q-60 14 -72 51z" />
<glyph unicode="&#x201c;" horiz-adv-x="524" d="M23 971q-12 55 30 125q33 55 33 76.5t35 93.5q25 57 47 66t61 -19q27 -20 21 -58t-60 -188q-49 -131 -112 -141q-43 -8 -55 45zM270.5 941q-14.5 44 8.5 97q84 199 100 252q8 29 37.5 29t58.5 -27q29 -25 29 -53.5t-16.5 -51t-33 -53t-16.5 -53.5q0 -39 -43 -106.5 t-71 -71.5q-39 -6 -53.5 38z" />
<glyph unicode="&#x201e;" />
<glyph unicode="&#x2022;" />
<glyph unicode="&#x202f;" horiz-adv-x="273" />
<glyph unicode="&#x205f;" horiz-adv-x="341" />
<glyph unicode="&#x20ac;" />
<glyph unicode="&#x25fc;" horiz-adv-x="1024" d="M0 0z" />
</font>
</defs>
</svg>
