<?xml version="1.0" standalone="yes"?><svg version="1.1" xmlns = 'http://www.w3.org/2000/svg'><defs><font id='web' horiz-adv-x="1000">
<font-face font-family="web" descent="-367" cap-height="1518" units-per-em="2048" bbox="-169,-557,3015,2136" x-height="1126" ascent="1593" />
<missing-glyph horiz-adv-x="1024" d="M 0 1434 L 1024 1434 L 1024 0 L 0 0 L 0 1434 Z M 102 102 L 922 102 L 922 1331 L 102 1331 L 102 102 Z" /><glyph horiz-adv-x="1024" d="" unicode=" " />
<glyph horiz-adv-x="2048" d="" unicode=" " />
<glyph horiz-adv-x="1372" d="" unicode=" " />
<glyph horiz-adv-x="410" d="" unicode=" " />
<glyph horiz-adv-x="1372" d="M 121 690 L 1251 690 L 1251 559 L 121 559 L 121 690 Z" unicode="‒" />
<glyph horiz-adv-x="1348" d="M 109 690 L 1239 690 L 1239 559 L 109 559 L 109 690 Z" unicode="–" />
<glyph horiz-adv-x="1800" d="M 109 690 L 1692 690 L 1692 559 L 109 559 L 109 690 Z" unicode="—" />
<glyph horiz-adv-x="2048" d="M 0 690 L 2048 690 L 2048 559 L 0 559 L 0 690 Z" unicode="―" />
<glyph horiz-adv-x="483" d="M 143 1212 C 143 1299 154 1364 176 1406 C 198 1448 240 1485 303 1518 L 346 1442 C 302 1418 274 1395 260 1373 C 246 1351 240 1314 240 1262 L 340 1262 L 340 1049 L 143 1049 L 143 1212 Z" unicode="‘" />
<glyph horiz-adv-x="483" d="M 137 1124 C 183 1149 212 1173 225 1197 C 237 1220 244 1256 244 1305 L 143 1305 L 143 1518 L 340 1518 L 340 1354 C 340 1264 328 1199 305 1157 C 281 1115 240 1079 180 1049 L 137 1124 Z" unicode="’" />
<glyph horiz-adv-x="483" d="M 137 -180 C 183 -155 212 -131 225 -108 C 237 -85 244 -49 244 0 L 143 0 L 143 213 L 340 213 L 340 49 C 340 -40 328 -106 305 -148 C 281 -190 240 -226 180 -256 L 137 -180 Z" unicode="‚" />
<glyph horiz-adv-x="848" d="M 143 1212 C 143 1299 154 1364 176 1406 C 198 1448 240 1485 303 1518 L 346 1442 C 302 1418 274 1395 260 1373 C 246 1351 240 1314 240 1262 L 340 1262 L 340 1049 L 143 1049 L 143 1212 Z M 508 1212 C 508 1299 519 1364 541 1406 C 563 1448 605 1485 668 1518 L 711 1442 C 665 1416 635 1392 623 1369 C 610 1345 604 1310 604 1262 L 705 1262 L 705 1049 L 508 1049 L 508 1212 Z" unicode="“" />
<glyph horiz-adv-x="848" d="M 137 1124 C 183 1149 212 1173 225 1197 C 237 1220 244 1256 244 1305 L 143 1305 L 143 1518 L 340 1518 L 340 1354 C 340 1264 328 1199 305 1157 C 281 1115 240 1079 180 1049 L 137 1124 Z M 502 1124 C 545 1147 573 1170 587 1192 C 601 1214 608 1252 608 1305 L 508 1305 L 508 1518 L 705 1518 L 705 1354 C 705 1264 693 1199 670 1157 C 646 1115 605 1079 545 1049 L 502 1124 Z" unicode="”" />
<glyph horiz-adv-x="848" d="M 137 -180 C 183 -155 212 -131 225 -108 C 237 -85 244 -49 244 0 L 143 0 L 143 213 L 340 213 L 340 49 C 340 -40 328 -106 305 -148 C 281 -190 240 -226 180 -256 L 137 -180 Z M 502 -180 C 545 -156 573 -133 587 -111 C 601 -89 608 -52 608 0 L 508 0 L 508 213 L 705 213 L 705 49 C 705 -40 693 -106 670 -148 C 646 -190 605 -226 545 -256 L 502 -180 Z" unicode="„" />
<glyph horiz-adv-x="483" d="" unicode=" " />
<glyph horiz-adv-x="729" d="M 266 213 L 463 213 L 463 0 L 266 0 L 266 213 Z M 272 1518 L 457 1518 L 416 412 L 311 412 L 272 1518 Z" unicode="!" />
<glyph horiz-adv-x="983" d="M 205 1518 L 367 1518 L 344 946 L 229 946 L 205 1518 Z M 616 1518 L 778 1518 L 754 946 L 641 946 L 616 1518 Z" unicode="&#x22;" />
<glyph horiz-adv-x="1489" d="M 371 438 L 106 438 L 106 569 L 397 569 L 463 897 L 106 897 L 106 1030 L 489 1030 L 575 1466 L 725 1466 L 639 1030 L 969 1030 L 1055 1466 L 1204 1466 L 1118 1030 L 1382 1030 L 1382 897 L 1092 897 L 1026 569 L 1382 569 L 1382 438 L 999 438 L 913 0 L 764 0 L 850 438 L 522 438 L 436 0 L 285 0 L 371 438 Z M 877 569 L 942 897 L 612 897 L 549 569 L 877 569 Z" unicode="#" />
<glyph horiz-adv-x="1286" d="M 586 -20 C 470 -12 368 12 282 54 C 195 96 129 156 84 233 L 201 313 C 240 253 293 207 360 173 C 426 139 504 120 592 114 L 592 693 C 472 724 384 756 328 790 C 272 823 229 864 199 912 C 169 960 154 1020 154 1092 C 154 1159 172 1221 209 1277 C 245 1333 296 1378 362 1411 C 428 1444 502 1463 586 1467 L 586 1589 L 713 1589 L 713 1464 C 908 1446 1048 1378 1133 1260 L 1014 1178 C 955 1260 853 1311 709 1330 L 709 794 C 811 766 888 739 940 713 C 992 687 1032 658 1062 627 C 1092 596 1115 559 1131 517 C 1147 475 1155 427 1155 373 C 1155 264 1114 173 1033 100 C 951 27 845 -13 713 -21 L 713 -193 L 586 -193 L 586 -20 Z M 1012 373 C 1012 441 989 498 944 543 C 899 588 821 627 709 660 L 709 112 C 809 118 884 144 935 190 C 986 236 1012 297 1012 373 Z M 299 1092 C 299 1031 320 980 362 938 C 404 896 480 859 592 826 L 592 1334 C 500 1330 429 1306 377 1263 C 325 1220 299 1163 299 1092 Z" unicode="$" />
<glyph horiz-adv-x="2253" d="M 496 535 C 420 535 351 554 289 594 C 227 634 178 689 144 761 C 109 832 92 915 92 1010 C 92 1104 109 1188 144 1260 C 179 1332 228 1389 290 1429 C 352 1469 420 1489 496 1489 C 570 1489 638 1469 700 1429 C 761 1389 809 1333 844 1260 C 879 1186 897 1103 897 1010 C 897 916 879 833 845 761 C 810 689 762 633 700 594 C 638 554 570 535 496 535 Z M 496 662 C 574 662 637 693 685 756 C 733 819 758 904 758 1010 C 758 1118 733 1203 684 1265 C 634 1327 572 1358 496 1358 C 445 1358 399 1344 359 1316 C 319 1288 287 1248 265 1195 C 242 1142 231 1080 231 1010 C 231 906 255 822 303 758 C 351 694 415 662 496 662 Z M 1483 1466 L 1616 1466 L 768 0 L 633 0 L 1483 1466 Z M 1759 -23 C 1683 -23 1615 -3 1553 37 C 1491 77 1442 133 1408 206 C 1373 279 1356 362 1356 455 C 1356 549 1373 632 1408 704 C 1442 776 1491 832 1553 872 C 1615 912 1684 932 1759 932 C 1833 932 1901 912 1963 873 C 2025 833 2073 777 2108 705 C 2143 633 2161 549 2161 455 C 2161 361 2143 277 2108 205 C 2073 132 2025 76 1963 36 C 1901 -3 1833 -23 1759 -23 Z M 1759 106 C 1809 106 1854 120 1895 149 C 1935 178 1966 219 1988 271 C 2010 323 2021 385 2021 455 C 2021 563 1996 648 1947 710 C 1897 772 1835 803 1759 803 C 1709 803 1663 789 1623 761 C 1583 733 1551 692 1529 640 C 1506 588 1495 526 1495 455 C 1495 384 1506 322 1529 269 C 1551 216 1583 176 1623 148 C 1663 120 1709 106 1759 106 Z" unicode="%" />
<glyph horiz-adv-x="1694" d="M 584 -14 C 440 -14 324 23 238 99 C 152 174 109 274 109 399 C 109 468 121 529 147 583 C 173 637 210 685 260 727 C 310 769 383 812 481 856 C 451 963 436 1063 436 1155 C 436 1237 452 1307 484 1364 C 516 1421 561 1464 618 1494 C 675 1523 740 1538 813 1538 C 863 1538 910 1525 954 1501 C 998 1476 1032 1442 1058 1398 C 1083 1354 1096 1302 1096 1243 C 1096 1196 1088 1154 1073 1116 C 1057 1078 1035 1043 1007 1011 C 979 979 941 949 894 920 C 847 890 765 850 649 799 C 688 692 738 595 798 508 C 858 421 927 348 1004 289 C 1058 349 1106 427 1150 523 C 1194 619 1238 754 1282 926 L 1413 897 C 1371 724 1325 584 1277 478 C 1228 371 1174 284 1116 217 C 1209 167 1305 143 1405 143 C 1448 143 1496 148 1550 158 L 1579 35 C 1515 14 1450 4 1382 4 C 1256 4 1132 41 1010 117 C 892 29 750 -14 584 -14 Z M 592 115 C 710 115 812 143 897 199 C 813 269 739 351 675 445 C 610 539 558 638 518 743 C 422 695 354 644 314 590 C 274 536 254 473 254 403 C 254 315 284 245 344 193 C 404 141 487 115 592 115 Z M 614 911 C 711 951 781 987 823 1017 C 865 1047 898 1080 921 1117 C 944 1154 956 1196 956 1243 C 956 1295 941 1335 911 1365 C 881 1394 841 1409 791 1409 C 751 1409 714 1399 682 1381 C 650 1362 624 1335 606 1300 C 587 1265 578 1221 578 1169 C 578 1085 590 999 614 911 Z" unicode="&#x26;" />
<glyph horiz-adv-x="573" d="M 205 1518 L 367 1518 L 344 946 L 229 946 L 205 1518 Z" unicode="'" />
<glyph horiz-adv-x="940" d="M 655 -401 C 572 -331 499 -243 435 -137 C 371 -31 322 86 286 215 C 250 343 233 479 233 623 C 233 749 250 878 286 1008 C 322 1138 373 1262 441 1379 C 509 1496 580 1587 655 1651 L 752 1540 C 682 1482 620 1406 565 1311 C 510 1216 467 1110 436 993 C 404 876 389 754 389 627 C 389 499 404 377 435 259 C 466 141 509 34 565 -61 C 621 -157 683 -234 752 -291 L 655 -401 Z" unicode="(" />
<glyph horiz-adv-x="940" d="M 188 -291 C 257 -233 319 -156 374 -61 C 429 33 472 139 504 256 C 535 373 551 495 551 623 C 551 750 535 873 504 991 C 473 1109 430 1215 375 1310 C 320 1404 258 1481 188 1540 L 285 1651 C 369 1579 442 1490 506 1384 C 569 1278 618 1161 654 1033 C 689 905 707 769 707 627 C 707 501 689 372 653 242 C 617 111 566 -12 499 -129 C 432 -245 361 -336 285 -401 L 188 -291 Z" unicode=")" />
<glyph horiz-adv-x="1171" d="M 532 942 L 201 737 L 135 850 L 479 1034 L 135 1219 L 201 1331 L 532 1126 L 520 1518 L 649 1518 L 639 1124 L 971 1331 L 1036 1221 L 690 1034 L 1036 848 L 971 737 L 639 944 L 649 553 L 520 553 L 532 942 Z" unicode="*" />
<glyph horiz-adv-x="1421" d="M 641 655 L 219 655 L 219 788 L 641 788 L 641 1208 L 780 1208 L 780 788 L 1200 788 L 1200 655 L 780 655 L 780 231 L 641 231 L 641 655 Z" unicode="+" />
<glyph horiz-adv-x="483" d="M 131 -160 C 175 -135 205 -111 221 -88 C 236 -64 244 -35 244 0 L 143 0 L 143 213 L 340 213 L 340 49 C 340 -32 327 -92 301 -132 C 275 -172 233 -206 174 -236 L 131 -160 Z" unicode="," />
<glyph horiz-adv-x="928" d="M 109 690 L 819 690 L 819 559 L 109 559 L 109 690 Z" unicode="-" />
<glyph horiz-adv-x="483" d="M 143 213 L 340 213 L 340 0 L 143 0 L 143 213 Z" unicode="." />
<glyph horiz-adv-x="997" d="M 848 1518 L 997 1518 L 150 0 L 0 0 L 848 1518 Z" unicode="/" />
<glyph horiz-adv-x="1421" d="M 711 -23 C 535 -23 400 42 304 174 C 208 306 160 492 160 733 C 160 972 207 1158 303 1290 C 399 1422 535 1489 711 1489 C 887 1489 1022 1422 1118 1289 C 1214 1155 1262 970 1262 733 C 1262 491 1213 305 1117 174 C 1020 42 885 -23 711 -23 Z M 711 111 C 841 111 940 163 1008 267 C 1076 371 1110 526 1110 733 C 1110 939 1076 1094 1008 1198 C 940 1302 841 1354 711 1354 C 444 1354 311 1147 311 733 C 311 318 444 111 711 111 Z" unicode="0" />
<glyph horiz-adv-x="733" d="M 346 1313 C 274 1291 178 1280 57 1280 L 57 1413 C 214 1413 328 1430 399 1466 L 496 1466 L 496 0 L 346 0 L 346 1313 Z" unicode="1" />
<glyph horiz-adv-x="1198" d="M 111 162 L 401 408 C 504 494 587 568 651 629 C 715 690 765 744 801 792 C 837 839 863 884 879 928 C 895 971 903 1024 903 1087 C 903 1171 878 1236 828 1284 C 778 1332 710 1356 625 1356 C 539 1356 466 1340 405 1309 C 343 1277 290 1229 244 1165 L 125 1243 C 183 1328 254 1390 337 1430 C 420 1469 519 1489 633 1489 C 760 1489 862 1453 938 1381 C 1014 1309 1053 1211 1053 1087 C 1053 1006 1036 931 1004 861 C 972 791 919 716 845 636 C 771 556 658 451 504 322 L 279 133 L 1079 133 L 1079 0 L 111 0 L 111 162 Z" unicode="2" />
<glyph horiz-adv-x="1196" d="M 555 -23 C 432 -23 330 -1 249 43 C 168 87 102 158 51 258 L 182 328 C 228 244 279 186 336 155 C 392 124 467 109 561 109 C 682 109 776 136 843 192 C 910 248 944 326 944 426 C 944 536 903 615 822 665 C 740 714 615 739 446 739 L 446 868 C 590 868 698 890 771 936 C 844 981 881 1046 881 1130 C 881 1202 856 1258 807 1298 C 758 1338 686 1358 592 1358 C 507 1358 436 1345 378 1319 C 320 1293 267 1249 221 1188 L 106 1270 C 163 1346 232 1402 312 1437 C 392 1471 487 1489 596 1489 C 730 1489 835 1458 912 1398 C 989 1338 1028 1255 1028 1149 C 1028 1070 1001 1000 947 940 C 893 880 825 839 743 819 C 807 807 867 784 921 749 C 975 714 1017 670 1048 616 C 1078 562 1094 502 1094 434 C 1094 292 1045 181 948 99 C 851 17 720 -23 555 -23 Z" unicode="3" />
<glyph horiz-adv-x="1311" d="M 88 473 L 760 1466 L 922 1466 L 268 498 L 821 498 L 872 838 L 965 838 L 965 498 L 1239 498 L 1239 365 L 965 365 L 965 0 L 817 0 L 817 365 L 88 365 L 88 473 Z" unicode="4" />
<glyph horiz-adv-x="1276" d="M 606 -23 C 482 -23 378 0 294 44 C 210 88 142 160 92 258 L 225 326 C 269 243 321 186 379 155 C 437 124 515 109 612 109 C 736 109 832 141 902 206 C 971 271 1006 363 1006 483 C 1006 555 991 618 962 674 C 932 729 891 772 838 802 C 784 832 724 848 657 848 C 592 848 526 839 459 822 C 392 804 333 781 281 752 L 164 829 L 231 1466 L 1049 1466 L 1049 1333 L 354 1333 L 307 885 C 346 910 401 932 473 950 C 545 968 614 977 682 977 C 771 977 852 956 924 915 C 996 874 1053 816 1094 742 C 1134 668 1155 584 1155 492 C 1155 334 1105 208 1007 116 C 908 23 774 -23 606 -23 Z" unicode="5" />
<glyph horiz-adv-x="1331" d="M 698 -25 C 518 -25 381 32 289 148 C 196 263 150 433 150 657 C 150 828 182 976 246 1100 C 310 1224 403 1319 527 1386 C 651 1453 801 1487 977 1487 L 995 1487 L 995 1354 L 981 1354 C 877 1354 786 1343 708 1321 C 630 1299 564 1266 510 1224 C 456 1182 411 1126 376 1058 C 341 990 315 898 299 782 C 386 928 537 1001 752 1001 C 890 1001 1001 956 1084 866 C 1166 776 1208 656 1208 506 C 1208 347 1161 219 1069 121 C 976 23 852 -25 698 -25 Z M 713 109 C 821 109 906 143 966 211 C 1026 279 1057 376 1057 502 C 1057 623 1028 716 971 780 C 914 844 828 877 713 877 C 640 877 572 860 508 828 C 444 795 395 751 362 696 C 329 641 313 579 313 510 C 313 387 348 289 419 217 C 490 145 588 109 713 109 Z" unicode="6" />
<glyph horiz-adv-x="1133" d="M 334 0 C 367 268 432 517 528 747 C 624 977 743 1172 887 1333 L 96 1333 L 96 1466 L 1049 1466 L 1049 1333 C 956 1244 870 1130 792 992 C 714 853 648 698 596 527 C 544 356 510 180 494 0 L 334 0 Z" unicode="7" />
<glyph horiz-adv-x="1282" d="M 639 -39 C 528 -39 433 -20 354 18 C 274 56 214 109 172 179 C 130 249 109 328 109 416 C 109 514 133 597 182 664 C 231 730 302 778 395 807 C 327 832 274 872 236 926 C 198 980 180 1047 180 1126 C 180 1200 198 1265 234 1321 C 270 1377 323 1420 393 1452 C 462 1483 544 1499 639 1499 C 734 1499 816 1483 885 1452 C 953 1421 1006 1377 1043 1321 C 1079 1264 1098 1199 1098 1126 C 1098 1052 1077 987 1037 929 C 996 871 939 831 866 807 C 962 781 1037 732 1092 662 C 1146 592 1174 510 1174 416 C 1174 326 1152 247 1110 178 C 1067 108 1006 55 926 17 C 846 -20 750 -39 639 -39 Z M 639 94 C 758 94 852 121 920 177 C 988 233 1022 310 1022 410 C 1022 512 987 592 917 652 C 847 711 755 741 639 741 C 562 741 494 727 436 699 C 377 671 333 631 303 581 C 273 530 258 473 258 410 C 258 312 292 234 360 178 C 428 122 521 94 639 94 Z M 639 868 C 734 868 810 891 866 937 C 922 983 950 1046 950 1126 C 950 1202 923 1261 869 1303 C 815 1345 738 1366 639 1366 C 540 1366 464 1345 410 1303 C 356 1261 330 1202 330 1126 C 330 1046 357 983 412 937 C 467 891 543 868 639 868 Z" unicode="8" />
<glyph horiz-adv-x="1331" d="M 633 1489 C 812 1489 948 1431 1042 1316 C 1135 1200 1182 1031 1182 807 C 1182 636 1149 488 1085 363 C 1020 238 926 142 802 76 C 678 10 528 -23 354 -23 L 336 -23 L 336 111 L 350 111 C 454 111 544 122 622 144 C 700 166 766 198 821 241 C 876 283 921 338 955 406 C 989 474 1015 566 1032 682 C 944 536 794 463 580 463 C 440 463 329 508 247 598 C 164 688 123 808 123 958 C 123 1116 169 1244 262 1342 C 354 1440 478 1489 633 1489 Z M 618 1356 C 509 1356 424 1321 364 1252 C 304 1183 274 1087 274 963 C 274 839 302 746 360 683 C 417 619 503 588 618 588 C 690 588 758 604 822 637 C 886 669 935 713 968 767 C 1001 821 1018 884 1018 954 C 1018 1078 982 1176 910 1248 C 838 1320 741 1356 618 1356 Z" unicode="9" />
<glyph horiz-adv-x="524" d="M 164 213 L 360 213 L 360 0 L 164 0 L 164 213 Z M 164 1126 L 360 1126 L 360 913 L 164 913 L 164 1126 Z" unicode=":" />
<glyph horiz-adv-x="524" d="M 152 -160 C 192 -138 221 -115 238 -93 C 255 -70 264 -39 264 0 L 164 0 L 164 213 L 360 213 L 360 49 C 360 -31 347 -91 323 -131 C 298 -171 255 -206 195 -236 L 152 -160 Z M 164 1126 L 360 1126 L 360 913 L 164 913 L 164 1126 Z" unicode=";" />
<glyph horiz-adv-x="1421" d="M 268 631 L 268 788 L 1128 1212 L 1128 1071 L 397 711 L 1128 348 L 1128 205 L 268 631 Z" unicode="&#x3C;" />
<glyph horiz-adv-x="1421" d="M 231 569 L 1190 569 L 1190 438 L 231 438 L 231 569 Z M 231 1006 L 1190 1006 L 1190 872 L 231 872 L 231 1006 Z" unicode="=" />
<glyph horiz-adv-x="1421" d="M 293 348 L 1024 709 L 293 1071 L 293 1212 L 1153 788 L 1153 631 L 293 205 L 293 348 Z" unicode="&#x3E;" />
<glyph horiz-adv-x="1339" d="M 541 412 C 531 464 527 510 527 550 C 527 614 546 671 585 722 C 624 773 687 822 774 870 C 860 917 919 963 953 1008 C 987 1053 1004 1104 1004 1161 C 1004 1240 976 1301 922 1344 C 868 1387 792 1409 694 1409 C 604 1409 529 1393 467 1361 C 405 1329 351 1281 305 1217 L 186 1294 C 245 1380 316 1442 398 1481 C 480 1520 578 1540 694 1540 C 838 1540 951 1507 1032 1442 C 1112 1377 1153 1286 1153 1169 C 1153 1089 1128 1016 1078 948 C 1028 880 946 817 834 758 C 778 728 738 697 713 663 C 687 629 675 588 675 541 C 675 513 680 470 690 412 L 541 412 Z M 520 213 L 717 213 L 717 0 L 520 0 L 520 213 Z" unicode="?" />
<glyph horiz-adv-x="2206" d="M 1137 -338 C 942 -338 773 -301 630 -228 C 486 -155 377 -49 302 89 C 227 228 190 396 190 594 C 190 780 230 945 310 1089 C 390 1232 504 1344 651 1424 C 797 1504 961 1544 1143 1544 C 1411 1544 1623 1473 1780 1333 C 1936 1193 2015 997 2015 745 C 2015 523 1979 362 1909 263 C 1838 164 1729 115 1581 115 C 1498 115 1435 132 1391 167 C 1347 201 1325 251 1325 315 C 1283 244 1229 189 1162 151 C 1095 113 1024 94 950 94 C 838 94 751 129 689 199 C 627 269 596 366 596 492 C 596 616 617 730 661 834 C 705 938 765 1018 843 1074 C 921 1129 1009 1157 1108 1157 C 1188 1157 1257 1138 1313 1102 C 1369 1065 1410 1011 1436 940 L 1520 1126 L 1606 1126 L 1454 410 C 1449 387 1447 367 1447 349 C 1447 315 1457 286 1478 262 C 1498 238 1540 227 1602 227 C 1696 227 1766 267 1813 349 C 1860 430 1884 562 1884 745 C 1884 960 1819 1126 1690 1244 C 1561 1362 1379 1421 1143 1421 C 983 1421 840 1386 714 1318 C 588 1249 492 1152 425 1028 C 357 904 324 759 324 594 C 324 334 394 135 534 -5 C 674 -145 875 -215 1137 -215 C 1371 -215 1565 -159 1718 -49 L 1792 -147 C 1708 -207 1611 -254 1500 -288 C 1389 -321 1268 -338 1137 -338 Z M 965 219 C 1039 219 1109 242 1174 289 C 1238 335 1289 399 1325 479 C 1361 559 1380 647 1380 743 C 1380 832 1356 901 1309 951 C 1262 1001 1193 1026 1102 1026 C 1030 1026 967 1004 913 961 C 859 917 816 854 784 771 C 752 688 737 598 737 500 C 737 407 756 337 794 290 C 832 242 889 219 965 219 Z" unicode="@" />
<glyph horiz-adv-x="1452" d="M 653 1528 L 801 1528 L 1393 0 L 1237 0 L 1098 360 L 346 360 L 207 0 L 59 0 L 653 1528 Z M 1049 489 L 723 1333 L 395 489 L 1049 489 Z" unicode="A" />
<glyph horiz-adv-x="1327" d="M 180 1518 L 717 1518 C 866 1518 981 1486 1063 1422 C 1145 1358 1186 1265 1186 1145 C 1186 1062 1164 991 1122 933 C 1079 875 1020 834 946 811 C 1040 788 1111 744 1161 678 C 1210 612 1235 531 1235 436 C 1235 294 1188 185 1096 111 C 1003 37 870 0 696 0 L 180 0 L 180 1518 Z M 723 129 C 840 129 929 153 989 202 C 1049 250 1079 327 1079 432 C 1079 630 960 729 723 729 L 332 729 L 332 129 L 723 129 Z M 723 860 C 820 860 895 883 949 931 C 1003 979 1030 1044 1030 1128 C 1030 1207 1004 1269 952 1315 C 900 1361 825 1384 725 1384 L 332 1384 L 332 860 L 723 860 Z" unicode="B" />
<glyph horiz-adv-x="1501" d="M 760 -25 C 631 -25 516 6 414 69 C 312 132 232 222 176 340 C 120 457 92 593 92 748 C 92 903 121 1041 179 1161 C 237 1281 319 1375 425 1442 C 530 1508 647 1542 776 1542 C 930 1542 1058 1510 1160 1447 C 1262 1383 1341 1289 1399 1165 L 1264 1100 C 1210 1201 1145 1276 1068 1326 C 991 1376 893 1401 774 1401 C 671 1401 580 1375 500 1323 C 420 1271 357 1195 313 1097 C 268 999 246 883 246 750 C 246 617 268 503 312 407 C 356 311 418 238 499 188 C 580 138 673 113 778 113 C 856 113 923 123 979 143 C 1035 163 1085 194 1129 236 C 1173 278 1220 343 1270 430 L 1403 365 C 1331 228 1244 129 1143 67 C 1041 5 914 -25 760 -25 Z" unicode="C" />
<glyph horiz-adv-x="1473" d="M 180 0 L 180 1518 L 639 1518 C 887 1518 1073 1455 1196 1330 C 1318 1205 1380 1015 1380 760 C 1380 510 1315 321 1185 193 C 1055 64 863 0 610 0 L 180 0 Z M 647 131 C 841 131 987 182 1083 286 C 1179 390 1227 548 1227 760 C 1227 974 1178 1131 1082 1232 C 985 1333 833 1384 625 1384 L 332 1384 L 332 131 L 647 131 Z" unicode="D" />
<glyph horiz-adv-x="1231" d="M 180 1518 L 1104 1518 L 1104 1382 L 332 1382 L 332 834 L 1030 834 L 1030 700 L 332 700 L 332 131 L 1112 131 L 1112 0 L 180 0 L 180 1518 Z" unicode="E" />
<glyph horiz-adv-x="1178" d="M 180 1518 L 1092 1518 L 1092 1382 L 332 1382 L 332 799 L 1040 799 L 1040 666 L 332 666 L 332 0 L 180 0 L 180 1518 Z" unicode="F" />
<glyph horiz-adv-x="1571" d="M 745 -23 C 615 -23 501 7 402 69 C 302 131 226 220 172 337 C 118 453 92 591 92 750 C 92 905 121 1043 181 1164 C 240 1284 322 1377 428 1443 C 534 1509 652 1542 782 1542 C 926 1542 1049 1512 1151 1453 C 1252 1394 1328 1310 1378 1202 L 1243 1137 C 1198 1222 1136 1287 1057 1333 C 977 1378 886 1401 782 1401 C 677 1401 584 1375 503 1323 C 421 1271 358 1197 313 1100 C 268 1002 246 886 246 750 C 246 616 267 501 311 405 C 354 309 415 237 495 187 C 574 137 667 113 774 113 C 868 113 953 135 1029 180 C 1105 225 1164 287 1206 367 C 1248 447 1270 535 1270 633 L 844 633 L 844 764 L 1411 764 L 1411 0 L 1313 0 L 1278 274 C 1232 178 1163 104 1071 53 C 979 2 870 -23 745 -23 Z" unicode="G" />
<glyph horiz-adv-x="1561" d="M 180 1518 L 332 1518 L 332 848 L 1229 848 L 1229 1518 L 1380 1518 L 1380 0 L 1229 0 L 1229 713 L 332 713 L 332 0 L 180 0 L 180 1518 Z" unicode="H" />
<glyph horiz-adv-x="561" d="M 205 1518 L 356 1518 L 356 0 L 205 0 L 205 1518 Z" unicode="I" />
<glyph horiz-adv-x="948" d="M 362 -18 C 266 -18 163 -2 53 29 L 94 166 C 145 151 191 139 232 131 C 273 123 316 119 360 119 C 458 119 527 143 568 192 C 608 240 629 317 629 422 L 629 1518 L 780 1518 L 780 422 C 780 128 640 -18 362 -18 Z" unicode="J" />
<glyph horiz-adv-x="1436" d="M 180 1518 L 330 1518 L 330 655 L 1110 1518 L 1282 1518 L 748 926 L 1356 0 L 1188 0 L 647 815 L 330 465 L 330 0 L 180 0 L 180 1518 Z" unicode="K" />
<glyph horiz-adv-x="1145" d="M 180 1518 L 332 1518 L 332 131 L 1087 131 L 1087 0 L 180 0 L 180 1518 Z" unicode="L" />
<glyph horiz-adv-x="1876" d="M 180 1518 L 379 1518 L 938 166 L 1495 1518 L 1694 1518 L 1694 0 L 1544 0 L 1544 1286 L 1008 0 L 860 0 L 324 1286 L 324 0 L 180 0 L 180 1518 Z" unicode="M" />
<glyph horiz-adv-x="1561" d="M 180 1518 L 373 1518 L 1237 238 L 1237 1518 L 1380 1518 L 1380 0 L 1235 0 L 324 1348 L 324 0 L 180 0 L 180 1518 Z" unicode="N" />
<glyph horiz-adv-x="1640" d="M 821 -25 C 687 -25 563 8 450 74 C 336 140 248 233 186 352 C 123 470 92 606 92 760 C 92 910 122 1043 183 1161 C 244 1279 331 1372 445 1440 C 558 1508 683 1542 821 1542 C 955 1542 1078 1509 1190 1444 C 1302 1378 1389 1286 1453 1168 C 1516 1050 1548 914 1548 760 C 1548 605 1516 468 1453 349 C 1389 230 1302 138 1190 73 C 1078 7 955 -25 821 -25 Z M 821 113 C 930 113 1030 140 1120 195 C 1210 249 1278 325 1325 422 C 1371 519 1395 632 1395 760 C 1395 891 1370 1005 1321 1101 C 1272 1197 1204 1271 1116 1323 C 1028 1375 929 1401 821 1401 C 709 1401 609 1374 520 1320 C 430 1266 362 1190 316 1094 C 269 997 246 886 246 760 C 246 633 269 521 315 424 C 361 327 430 251 520 196 C 610 140 710 113 821 113 Z" unicode="O" />
<glyph horiz-adv-x="1364" d="M 180 1518 L 770 1518 C 932 1518 1056 1478 1142 1400 C 1228 1321 1272 1208 1272 1061 C 1272 913 1228 799 1142 719 C 1055 639 931 600 770 600 L 332 600 L 332 0 L 180 0 L 180 1518 Z M 791 731 C 897 731 978 758 1033 812 C 1088 866 1116 947 1116 1055 C 1116 1170 1086 1254 1027 1306 C 968 1358 882 1384 770 1384 L 332 1384 L 332 731 L 791 731 Z" unicode="P" />
<glyph horiz-adv-x="1640" d="M 1018 -365 C 912 -365 831 -334 775 -274 C 719 -213 691 -124 690 -6 C 572 13 467 57 377 126 C 286 195 216 284 166 392 C 116 500 92 623 92 760 C 92 910 122 1043 183 1161 C 244 1279 331 1372 445 1440 C 558 1508 683 1542 821 1542 C 955 1542 1078 1509 1190 1444 C 1302 1378 1389 1286 1453 1168 C 1516 1050 1548 914 1548 760 C 1548 609 1518 476 1458 361 C 1398 245 1313 154 1202 86 C 1090 18 968 -16 834 -18 C 839 -90 857 -142 887 -175 C 917 -208 967 -225 1036 -225 C 1121 -225 1215 -202 1317 -156 L 1372 -274 C 1252 -334 1134 -365 1018 -365 Z M 821 113 C 930 113 1030 140 1120 195 C 1210 249 1278 325 1325 422 C 1371 519 1395 632 1395 760 C 1395 891 1370 1005 1321 1101 C 1272 1197 1204 1271 1116 1323 C 1028 1375 929 1401 821 1401 C 709 1401 609 1374 520 1320 C 430 1266 362 1190 316 1094 C 269 997 246 886 246 760 C 246 633 269 521 315 424 C 361 327 430 251 520 196 C 610 140 710 113 821 113 Z" unicode="Q" />
<glyph horiz-adv-x="1384" d="M 672 637 L 332 637 L 332 0 L 180 0 L 180 1518 L 748 1518 C 911 1518 1035 1480 1121 1404 C 1206 1328 1249 1219 1249 1077 C 1249 950 1214 849 1144 774 C 1074 698 971 654 837 641 L 1233 0 L 1065 0 L 672 637 Z M 768 764 C 878 764 960 789 1014 841 C 1067 892 1094 969 1094 1071 C 1094 1177 1066 1256 1011 1307 C 955 1358 868 1384 748 1384 L 332 1384 L 332 764 L 768 764 Z" unicode="R" />
<glyph horiz-adv-x="1348" d="M 709 -25 C 565 -25 440 -2 334 44 C 228 90 150 156 98 244 L 221 328 C 266 260 329 207 411 170 C 493 133 592 115 709 115 C 825 115 915 139 978 188 C 1041 237 1073 305 1073 391 C 1073 445 1060 491 1036 528 C 1011 565 976 597 931 623 C 885 649 805 679 690 711 C 580 741 503 764 460 781 C 417 797 378 816 344 838 C 309 859 279 884 255 913 C 231 941 212 975 198 1014 C 184 1053 178 1097 178 1147 C 178 1222 198 1290 239 1351 C 279 1411 336 1458 410 1492 C 484 1525 568 1542 662 1542 C 788 1542 896 1523 988 1485 C 1080 1447 1150 1393 1200 1323 L 1075 1237 C 1038 1290 984 1331 913 1360 C 841 1388 758 1403 662 1403 C 558 1403 476 1380 418 1335 C 359 1289 330 1227 330 1147 C 330 1096 342 1053 366 1019 C 390 984 426 954 472 930 C 518 905 601 876 721 844 C 761 832 801 821 841 809 C 881 797 920 784 958 768 C 995 752 1030 733 1063 712 C 1095 690 1124 665 1148 635 C 1172 605 1190 570 1204 530 C 1218 490 1225 443 1225 391 C 1225 268 1176 168 1080 91 C 984 13 860 -25 709 -25 Z" unicode="S" />
<glyph horiz-adv-x="1339" d="M 594 1382 L 57 1382 L 57 1518 L 1282 1518 L 1282 1382 L 745 1382 L 745 0 L 594 0 L 594 1382 Z" unicode="T" />
<glyph horiz-adv-x="1546" d="M 1374 1518 L 1374 543 C 1374 430 1350 331 1302 245 C 1254 159 1185 92 1095 45 C 1005 -1 896 -25 768 -25 C 641 -25 533 -1 444 45 C 354 92 286 158 240 244 C 193 329 170 429 170 543 L 170 1518 L 322 1518 L 322 543 C 322 408 361 303 441 227 C 520 151 631 113 774 113 C 872 113 954 130 1021 165 C 1088 199 1139 249 1173 313 C 1207 377 1225 453 1225 543 L 1225 1518 L 1374 1518 Z" unicode="U" />
<glyph horiz-adv-x="1452" d="M 59 1518 L 215 1518 L 729 184 L 1245 1518 L 1393 1518 L 801 -10 L 653 -10 L 59 1518 Z" unicode="V" />
<glyph horiz-adv-x="2161" d="M 59 1518 L 207 1518 L 629 231 L 1024 1518 L 1141 1518 L 1536 229 L 1960 1518 L 2099 1518 L 1593 -10 L 1466 -10 L 1079 1235 L 694 -10 L 567 -10 L 59 1518 Z" unicode="W" />
<glyph horiz-adv-x="1413" d="M 702 678 L 248 0 L 82 0 L 623 795 L 131 1518 L 299 1518 L 711 911 L 1118 1518 L 1282 1518 L 791 793 L 1331 0 L 1163 0 L 702 678 Z" unicode="X" />
<glyph horiz-adv-x="1386" d="M 618 633 L 49 1518 L 213 1518 L 696 760 L 1182 1518 L 1339 1518 L 770 633 L 770 0 L 618 0 L 618 633 Z" unicode="Y" />
<glyph horiz-adv-x="1298" d="M 94 119 L 983 1382 L 129 1382 L 129 1518 L 1174 1518 L 1174 1413 L 270 131 L 1198 131 L 1198 0 L 94 0 L 94 119 Z" unicode="Z" />
<glyph horiz-adv-x="940" d="M 254 1589 L 733 1589 L 733 1454 L 403 1454 L 403 -207 L 739 -207 L 739 -338 L 254 -338 L 254 1589 Z" unicode="[" />
<glyph horiz-adv-x="997" d="M 0 1518 L 150 1518 L 997 0 L 848 0 L 0 1518 Z" unicode="\" />
<glyph horiz-adv-x="940" d="M 201 -207 L 537 -207 L 537 1454 L 207 1454 L 207 1589 L 686 1589 L 686 -338 L 201 -338 L 201 -207 Z" unicode="]" />
<glyph horiz-adv-x="1421" d="M 1214 606 L 1073 606 L 713 1337 L 350 606 L 207 606 L 633 1466 L 791 1466 L 1214 606 Z" unicode="^" />
<glyph horiz-adv-x="928" d="M -76 -125 L 1004 -125 L 1004 -258 L -76 -258 L -76 -125 Z" unicode="_" />
<glyph horiz-adv-x="1208" d="M 328 1448 L 385 1579 L 879 1325 L 836 1235 L 328 1448 Z" unicode="`" />
<glyph horiz-adv-x="1192" d="M 449 -16 C 333 -16 243 13 180 72 C 117 130 86 214 86 324 C 86 437 127 524 209 584 C 291 644 412 674 571 674 C 687 674 783 666 858 651 L 858 670 C 858 765 849 835 831 880 C 813 925 785 959 746 983 C 707 1006 654 1018 588 1018 C 474 1018 369 989 274 932 L 207 1049 C 323 1119 456 1155 606 1155 C 748 1155 849 1119 910 1049 C 970 978 1001 860 1001 694 L 1001 117 L 1147 117 L 1147 16 C 1111 6 1085 0 1068 -2 C 1050 -4 1030 -6 1006 -6 C 962 -6 929 5 909 28 C 889 51 877 87 874 137 L 870 207 C 836 135 783 80 710 42 C 636 3 549 -16 449 -16 Z M 459 113 C 543 113 614 126 674 153 C 734 180 779 218 811 266 C 842 314 858 370 858 432 L 858 528 C 764 546 682 555 612 555 C 359 555 233 479 233 328 C 233 257 252 203 291 167 C 330 131 386 113 459 113 Z" unicode="a" />
<glyph horiz-adv-x="1300" d="M 158 1589 L 301 1589 L 301 909 C 347 985 408 1044 485 1088 C 561 1131 647 1153 741 1153 C 885 1153 997 1100 1077 996 C 1157 892 1198 748 1198 565 C 1198 447 1179 345 1141 257 C 1103 169 1048 101 976 53 C 904 5 817 -18 717 -18 C 623 -18 539 3 466 45 C 392 87 335 147 293 225 L 260 0 L 158 0 L 158 1589 Z M 717 113 C 825 113 907 151 964 229 C 1020 307 1049 419 1049 565 C 1049 711 1020 823 964 901 C 907 979 825 1018 717 1018 C 595 1018 495 976 417 894 C 339 811 301 701 301 565 C 301 427 338 317 414 235 C 489 153 590 113 717 113 Z" unicode="b" />
<glyph horiz-adv-x="1169" d="M 598 -18 C 497 -18 409 5 335 53 C 260 101 202 169 162 258 C 122 346 102 449 102 565 C 102 675 123 775 165 865 C 207 955 267 1026 344 1077 C 420 1127 506 1153 602 1153 C 715 1153 809 1131 883 1087 C 957 1043 1020 966 1071 858 L 940 799 C 901 877 856 933 804 967 C 752 1001 682 1018 596 1018 C 529 1018 469 998 417 960 C 365 921 324 867 295 797 C 266 727 252 649 252 565 C 252 430 284 321 348 238 C 412 154 499 113 608 113 C 687 113 754 130 808 164 C 862 198 913 256 963 338 L 1087 270 C 1031 170 964 97 886 51 C 808 5 712 -18 598 -18 Z" unicode="c" />
<glyph horiz-adv-x="1300" d="M 559 -18 C 416 -18 304 33 223 136 C 142 238 102 381 102 565 C 102 746 144 889 229 995 C 314 1100 432 1153 582 1153 C 669 1153 749 1132 823 1091 C 897 1049 955 991 999 915 L 999 1589 L 1143 1589 L 1143 0 L 1047 0 L 1008 233 C 964 154 902 92 822 48 C 742 4 655 -18 559 -18 Z M 582 113 C 704 113 804 154 882 237 C 960 319 999 429 999 565 C 999 704 961 814 885 896 C 809 977 708 1018 582 1018 C 475 1018 393 979 337 902 C 280 825 252 713 252 565 C 252 417 280 304 337 228 C 393 151 475 113 582 113 Z" unicode="d" />
<glyph horiz-adv-x="1188" d="M 594 -18 C 442 -18 322 35 234 142 C 146 248 102 389 102 565 C 102 676 123 777 165 867 C 207 957 266 1028 342 1078 C 418 1128 506 1153 604 1153 C 752 1153 865 1109 941 1023 C 1017 937 1055 811 1055 645 L 1055 532 L 253 532 C 259 403 293 301 356 226 C 418 150 502 113 606 113 C 686 113 752 128 805 160 C 858 192 907 243 952 315 L 1069 244 C 1014 152 949 86 874 44 C 798 2 705 -18 594 -18 Z M 604 1020 C 514 1020 438 988 375 925 C 312 861 273 774 258 664 L 905 664 L 905 672 C 905 784 879 870 829 930 C 778 990 703 1020 604 1020 Z" unicode="e" />
<glyph horiz-adv-x="752" d="M 39 1126 L 258 1126 L 258 1231 C 258 1349 288 1439 350 1501 C 411 1562 498 1593 612 1593 C 680 1593 745 1584 807 1567 L 772 1436 C 717 1449 660 1456 600 1456 C 534 1456 485 1438 451 1403 C 417 1368 401 1313 401 1239 L 401 1126 L 743 1126 L 743 993 L 401 993 L 401 0 L 258 0 L 258 993 L 39 993 L 39 1126 Z" unicode="f" />
<glyph horiz-adv-x="1153" d="M 485 -367 C 345 -367 237 -342 160 -293 C 83 -244 45 -178 45 -94 C 45 -24 68 34 116 82 C 164 130 229 163 313 180 C 277 192 250 212 234 239 C 217 266 209 294 209 324 C 209 377 234 426 285 471 C 181 542 129 643 129 774 C 129 889 168 981 248 1050 C 328 1118 434 1153 567 1153 C 633 1153 694 1145 750 1130 L 1042 1225 L 1077 1075 L 848 1075 C 958 1007 1014 906 1014 774 C 1014 659 973 567 892 499 C 810 431 702 397 567 397 C 501 397 438 406 379 426 C 354 401 342 375 342 348 C 342 324 349 307 364 297 C 378 287 402 279 436 274 C 470 268 526 264 606 260 C 744 254 848 242 916 223 C 984 203 1033 173 1063 133 C 1093 93 1108 36 1108 -37 C 1108 -146 1056 -228 952 -284 C 848 -339 692 -367 485 -367 Z M 485 -238 C 643 -238 762 -222 843 -191 C 924 -159 965 -108 965 -37 C 965 17 949 56 919 78 C 888 100 836 116 764 124 C 692 132 615 137 533 137 C 433 137 352 118 289 80 C 226 42 195 -7 195 -68 C 195 -181 291 -238 485 -238 Z M 567 520 C 664 520 739 542 793 587 C 847 631 874 694 874 774 C 874 852 847 914 794 958 C 740 1002 665 1024 567 1024 C 472 1024 398 1001 344 957 C 290 913 264 852 264 774 C 264 694 291 632 345 587 C 399 542 473 520 567 520 Z" unicode="g" />
<glyph horiz-adv-x="1233" d="M 158 1589 L 301 1589 L 301 956 C 335 1016 387 1063 457 1099 C 527 1135 606 1153 696 1153 C 829 1153 927 1117 989 1046 C 1051 975 1083 858 1083 694 L 1083 0 L 940 0 L 940 670 C 940 798 918 888 876 940 C 834 992 763 1018 664 1018 C 546 1018 456 987 394 925 C 332 863 301 773 301 653 L 301 0 L 158 0 L 158 1589 Z" unicode="h" />
<glyph horiz-adv-x="471" d="M 164 1126 L 307 1126 L 307 0 L 164 0 L 164 1126 Z M 156 1473 L 315 1473 L 315 1280 L 156 1280 L 156 1473 Z" unicode="i" />
<glyph horiz-adv-x="471" d="M -88 -213 C -45 -218 0 -221 47 -221 C 89 -221 119 -209 137 -187 C 155 -165 164 -124 164 -66 L 164 1126 L 307 1126 L 307 -74 C 307 -169 284 -240 240 -286 C 196 -332 126 -356 31 -356 C -17 -356 -62 -352 -104 -346 L -88 -213 Z M 156 1473 L 315 1473 L 315 1280 L 156 1280 L 156 1473 Z" unicode="j" />
<glyph horiz-adv-x="1087" d="M 158 1589 L 301 1589 L 301 524 L 811 1126 L 969 1126 L 582 668 L 1044 0 L 877 0 L 487 559 L 301 340 L 301 0 L 158 0 L 158 1589 Z" unicode="k" />
<glyph horiz-adv-x="471" d="M 164 1589 L 307 1589 L 307 0 L 164 0 L 164 1589 Z" unicode="l" />
<glyph horiz-adv-x="1964" d="M 158 1126 L 254 1126 L 287 930 C 319 1000 370 1055 440 1094 C 510 1133 592 1153 684 1153 C 749 1153 802 1145 842 1130 C 882 1114 915 1095 939 1071 C 963 1047 981 1020 993 991 C 1005 961 1015 933 1024 905 C 1055 981 1108 1042 1184 1086 C 1260 1130 1346 1153 1442 1153 C 1530 1153 1602 1137 1657 1106 C 1711 1075 1751 1028 1777 964 C 1802 900 1815 810 1815 694 L 1815 0 L 1671 0 L 1671 670 C 1671 765 1662 836 1645 883 C 1628 929 1601 963 1564 985 C 1526 1007 1475 1018 1409 1018 C 1175 1018 1059 896 1059 653 L 1059 0 L 915 0 L 915 670 C 915 763 906 833 889 880 C 872 927 845 962 807 984 C 769 1006 717 1018 651 1018 C 417 1018 301 896 301 653 L 301 0 L 158 0 L 158 1126 Z" unicode="m" />
<glyph horiz-adv-x="1233" d="M 158 1126 L 254 1126 L 287 930 C 318 1000 371 1054 445 1094 C 519 1133 603 1153 696 1153 C 829 1153 927 1117 989 1046 C 1051 975 1083 858 1083 694 L 1083 0 L 940 0 L 940 670 C 940 798 918 888 876 940 C 834 992 763 1018 664 1018 C 546 1018 456 987 394 925 C 332 863 301 773 301 653 L 301 0 L 158 0 L 158 1126 Z" unicode="n" />
<glyph horiz-adv-x="1257" d="M 629 -23 C 525 -23 433 2 353 52 C 273 102 211 173 167 263 C 123 353 102 454 102 565 C 102 676 123 776 167 866 C 211 956 273 1026 353 1077 C 433 1127 525 1153 629 1153 C 731 1153 822 1128 902 1078 C 982 1028 1045 957 1089 866 C 1133 775 1155 675 1155 565 C 1155 454 1132 353 1088 262 C 1043 171 981 101 901 51 C 821 1 730 -23 629 -23 Z M 629 113 C 704 113 770 132 828 171 C 886 209 930 263 961 333 C 992 402 1008 479 1008 565 C 1008 699 973 808 904 892 C 834 976 743 1018 629 1018 C 514 1018 422 976 353 892 C 284 808 250 699 250 565 C 250 431 284 323 353 239 C 421 155 513 113 629 113 Z" unicode="o" />
<glyph horiz-adv-x="1300" d="M 158 1126 L 254 1126 L 293 895 C 337 975 398 1038 478 1084 C 558 1130 645 1153 741 1153 C 885 1153 997 1100 1077 996 C 1157 892 1198 748 1198 565 C 1198 447 1179 345 1141 257 C 1103 169 1048 101 976 53 C 904 5 817 -18 717 -18 C 628 -18 547 2 474 44 C 401 85 343 142 301 215 L 301 -338 L 158 -338 L 158 1126 Z M 717 113 C 825 113 907 151 964 229 C 1020 307 1049 419 1049 565 C 1049 711 1020 823 964 901 C 907 979 825 1018 717 1018 C 595 1018 495 976 417 894 C 339 811 301 701 301 565 C 301 427 338 317 414 235 C 489 153 590 113 717 113 Z" unicode="p" />
<glyph horiz-adv-x="1300" d="M 999 223 C 952 145 890 86 813 44 C 735 2 651 -18 559 -18 C 416 -18 304 34 223 138 C 142 242 102 385 102 567 C 102 748 144 891 230 996 C 315 1100 432 1153 582 1153 C 675 1153 759 1131 834 1089 C 909 1046 968 986 1010 909 L 1049 1126 L 1143 1126 L 1143 -338 L 999 -338 L 999 223 Z M 582 113 C 706 113 806 155 883 239 C 960 323 999 432 999 567 C 999 706 961 816 885 897 C 809 977 708 1018 582 1018 C 475 1018 393 979 337 903 C 280 827 252 715 252 567 C 252 419 280 306 337 229 C 393 151 475 113 582 113 Z" unicode="q" />
<glyph horiz-adv-x="770" d="M 160 1126 L 256 1126 L 293 913 C 334 985 386 1041 449 1079 C 511 1117 592 1141 690 1153 L 713 1018 C 577 1001 474 961 406 898 C 337 834 303 745 303 629 L 303 0 L 160 0 L 160 1126 Z" unicode="r" />
<glyph horiz-adv-x="1042" d="M 532 -23 C 445 -23 361 -8 281 22 C 201 52 130 101 70 170 L 172 262 C 213 214 265 178 329 152 C 392 126 460 113 532 113 C 618 113 685 129 733 162 C 781 195 805 240 805 297 C 805 334 796 365 780 390 C 763 414 737 435 703 452 C 668 469 608 488 522 508 C 408 534 326 561 278 589 C 230 617 192 651 166 693 C 140 734 127 786 127 850 C 127 939 162 1012 233 1068 C 304 1124 396 1153 510 1153 C 600 1153 678 1142 744 1122 C 809 1101 868 1070 922 1028 L 838 920 C 752 985 642 1018 510 1018 C 437 1018 379 1003 337 975 C 295 946 274 905 274 852 C 274 814 282 783 298 759 C 314 735 339 714 375 697 C 411 680 469 662 551 643 C 669 615 752 588 800 561 C 848 534 885 500 912 458 C 938 416 952 363 952 299 C 952 201 912 122 833 64 C 753 6 653 -23 532 -23 Z" unicode="s" />
<glyph horiz-adv-x="838" d="M 506 -14 C 411 -14 344 7 305 50 C 265 93 246 166 246 268 L 246 993 L 29 993 L 29 1126 L 250 1126 L 281 1456 L 389 1456 L 389 1126 L 731 1126 L 731 993 L 389 993 L 389 285 C 389 231 393 195 401 177 C 409 159 422 145 441 136 C 460 127 488 123 524 123 C 586 123 657 139 739 172 L 788 51 C 700 7 606 -14 506 -14 Z" unicode="t" />
<glyph horiz-adv-x="1227" d="M 537 -23 C 403 -23 305 12 243 82 C 181 152 150 268 150 432 L 150 1126 L 293 1126 L 293 457 C 293 328 314 238 356 186 C 398 134 469 109 569 109 C 685 109 773 139 834 199 C 895 259 926 351 926 473 L 926 1126 L 1069 1126 L 1069 0 L 973 0 L 940 197 C 908 127 857 73 785 35 C 713 -3 630 -23 537 -23 Z" unicode="u" />
<glyph horiz-adv-x="1077" d="M 31 1126 L 176 1126 L 541 162 L 905 1126 L 1047 1126 L 612 -12 L 467 -12 L 31 1126 Z" unicode="v" />
<glyph horiz-adv-x="1722" d="M 41 1126 L 182 1126 L 512 203 L 801 1126 L 928 1126 L 1217 203 L 1546 1126 L 1681 1126 L 1276 -12 L 1153 -12 L 862 901 L 571 -12 L 449 -12 L 41 1126 Z" unicode="w" />
<glyph horiz-adv-x="1100" d="M 541 496 L 201 0 L 43 0 L 467 600 L 92 1126 L 254 1126 L 559 698 L 854 1126 L 1010 1126 L 635 592 L 1057 0 L 895 0 L 541 496 Z" unicode="x" />
<glyph horiz-adv-x="1063" d="M 258 -360 C 168 -360 82 -339 0 -299 L 61 -178 C 97 -194 130 -205 158 -213 C 186 -221 217 -225 250 -225 C 300 -225 339 -209 369 -179 C 399 -148 430 -89 463 -2 L 31 1126 L 178 1126 L 535 180 L 893 1126 L 1032 1126 L 569 -80 C 533 -176 490 -246 440 -292 C 389 -337 328 -360 258 -360 Z" unicode="y" />
<glyph horiz-adv-x="993" d="M 70 117 L 717 993 L 104 993 L 104 1126 L 905 1126 L 905 1024 L 244 129 L 930 129 L 930 0 L 70 0 L 70 117 Z" unicode="z" />
<glyph horiz-adv-x="1016" d="M 645 -338 C 542 -338 462 -313 404 -265 C 346 -216 317 -149 317 -65 L 319 -25 C 323 21 342 104 376 224 C 402 319 417 379 423 405 C 428 430 431 450 431 465 C 431 489 424 507 411 521 C 397 535 375 545 345 551 C 314 557 256 561 170 561 L 170 690 C 254 690 311 693 343 699 C 374 705 396 715 410 729 C 424 743 431 762 431 786 C 431 814 420 867 400 943 C 362 1079 338 1166 330 1205 C 322 1243 317 1280 317 1315 C 317 1399 346 1465 405 1515 C 463 1564 543 1589 645 1589 L 815 1589 L 815 1454 L 645 1454 C 589 1454 546 1441 515 1416 C 483 1390 468 1355 468 1311 C 468 1264 487 1173 525 1038 C 551 946 566 886 572 857 C 578 828 581 805 581 788 C 581 746 567 712 541 686 C 515 660 477 640 428 627 C 530 594 581 539 581 462 L 580 442 C 576 408 558 332 525 214 C 487 78 468 -13 468 -60 C 468 -104 484 -139 516 -165 C 548 -190 591 -203 645 -203 L 815 -203 L 815 -338 L 645 -338 Z" unicode="{" />
<glyph horiz-adv-x="657" d="M 254 1589 L 403 1589 L 403 -338 L 254 -338 L 254 1589 Z" unicode="|" />
<glyph horiz-adv-x="1016" d="M 201 -203 L 371 -203 C 425 -203 468 -190 500 -165 C 532 -139 548 -103 548 -57 C 548 -13 528 76 490 214 C 461 314 444 377 440 402 C 435 426 433 446 433 462 C 433 502 445 535 471 562 C 497 589 536 611 588 627 C 537 641 498 661 472 687 C 446 713 433 746 433 788 L 434 809 C 437 839 456 916 490 1038 C 528 1174 548 1264 548 1308 C 548 1354 532 1390 501 1416 C 469 1441 426 1454 371 1454 L 201 1454 L 201 1589 L 371 1589 C 471 1589 550 1564 609 1515 C 667 1466 697 1398 698 1312 L 696 1276 C 692 1228 673 1145 640 1029 C 615 944 600 887 594 859 C 588 830 585 807 585 789 C 585 763 591 744 605 730 C 618 716 640 705 671 699 C 702 693 760 690 846 690 L 846 561 C 762 561 704 558 673 552 C 641 546 619 536 606 522 C 592 508 585 488 585 462 L 586 449 C 588 415 606 340 640 224 C 664 140 679 78 687 40 C 694 2 698 -32 698 -62 C 698 -148 669 -216 611 -265 C 553 -313 473 -338 371 -338 L 201 -338 L 201 -203 Z" unicode="}" />
<glyph horiz-adv-x="1421" d="M 219 653 C 315 767 410 825 504 825 C 542 825 579 818 617 806 C 655 793 692 779 728 763 C 764 747 800 733 834 721 C 868 708 900 702 930 702 C 964 702 996 710 1027 728 C 1058 746 1092 778 1128 825 L 1223 752 C 1172 689 1124 645 1079 619 C 1034 593 987 580 938 580 C 900 580 862 586 824 599 C 786 611 749 625 713 641 C 677 656 642 670 608 683 C 574 695 542 702 512 702 C 442 702 375 661 313 580 L 219 653 Z" unicode="~" />
<glyph horiz-adv-x="1137" d="M 567 -354 C 440 -354 342 -307 272 -213 C 202 -119 168 10 168 177 C 168 343 203 473 273 566 C 343 658 441 705 567 705 C 692 705 790 658 862 565 C 933 472 969 343 969 177 C 969 9 933 -121 863 -214 C 792 -307 693 -354 567 -354 Z M 567 -233 C 741 -233 829 -96 829 177 C 829 447 741 582 567 582 C 392 582 305 447 305 177 C 305 -96 392 -233 567 -233 Z" unicode="₀" />
<glyph horiz-adv-x="655" d="M 297 556 C 251 540 186 533 102 533 L 102 652 C 216 652 298 664 348 689 L 432 689 L 432 -337 L 297 -337 L 297 556 Z" unicode="₁" />
<glyph horiz-adv-x="987" d="M 145 -200 L 373 -22 C 453 40 516 95 562 141 C 608 187 641 230 661 268 C 680 306 690 354 690 412 C 690 469 672 512 638 541 C 604 569 560 584 506 584 C 446 584 396 573 355 552 C 314 530 276 500 242 462 L 143 535 C 185 591 237 634 297 662 C 357 690 430 705 516 705 C 609 705 684 679 740 629 C 796 578 825 508 825 419 C 825 329 799 246 747 172 C 695 98 603 10 471 -91 L 305 -220 L 850 -220 L 850 -337 L 145 -337 L 145 -200 Z" unicode="₂" />
<glyph horiz-adv-x="983" d="M 469 -354 C 379 -354 302 -336 238 -301 C 174 -265 126 -214 94 -147 L 209 -93 C 233 -141 266 -177 307 -201 C 347 -225 401 -237 467 -237 C 545 -237 607 -219 652 -184 C 696 -148 719 -98 719 -32 C 719 38 691 89 636 120 C 581 151 495 167 377 167 L 377 275 C 576 275 676 331 676 443 C 676 488 660 524 628 550 C 596 576 549 589 485 589 C 427 589 378 580 338 562 C 298 544 263 514 233 472 L 127 537 C 201 649 322 705 492 705 C 588 705 664 683 722 641 C 780 599 809 540 809 466 C 809 410 790 361 754 319 C 717 277 670 249 612 234 C 684 221 743 190 787 142 C 831 93 854 34 854 -34 C 854 -131 819 -209 750 -267 C 681 -325 587 -354 469 -354 Z" unicode="₃" />
<glyph horiz-adv-x="1049" d="M 625 -96 L 111 -96 L 111 3 L 580 689 L 725 689 L 268 19 L 629 19 L 668 249 L 756 249 L 756 19 L 940 19 L 940 -96 L 756 -96 L 756 -337 L 625 -337 L 625 -96 Z" unicode="₄" />
<glyph horiz-adv-x="1032" d="M 496 -354 C 408 -354 332 -336 268 -300 C 204 -264 157 -213 125 -147 L 240 -93 C 264 -141 297 -177 338 -201 C 378 -225 432 -237 498 -237 C 579 -237 642 -215 687 -173 C 731 -131 754 -71 754 5 C 754 75 733 132 691 174 C 649 216 594 238 526 238 C 434 238 353 217 283 177 L 176 234 L 225 689 L 815 689 L 815 570 L 334 570 L 301 281 C 325 299 361 315 409 328 C 457 340 507 347 557 347 C 653 347 733 316 795 254 C 857 192 889 110 889 9 C 889 -103 853 -192 783 -257 C 712 -321 616 -354 496 -354 Z" unicode="₅" />
<glyph horiz-adv-x="1075" d="M 561 -354 C 429 -354 330 -312 262 -229 C 194 -146 160 -28 160 126 C 160 309 210 451 311 552 C 412 652 555 703 739 703 L 760 703 L 782 701 L 776 586 L 739 586 C 605 586 501 557 428 499 C 355 441 311 346 295 214 C 355 313 459 363 608 363 C 707 363 786 331 844 269 C 902 206 932 122 932 17 C 932 -95 898 -184 831 -252 C 763 -320 673 -354 561 -354 Z M 569 -237 C 639 -237 695 -215 735 -172 C 775 -128 795 -67 795 13 C 795 92 776 152 738 194 C 700 236 645 257 571 257 C 523 257 479 247 439 228 C 399 209 367 182 343 146 C 319 110 307 67 307 19 C 307 -60 330 -122 377 -168 C 423 -214 487 -237 569 -237 Z" unicode="₆" />
<glyph horiz-adv-x="913" d="M 289 -337 C 308 -150 351 21 417 177 C 483 333 566 464 668 570 L 121 570 L 121 689 L 813 689 L 813 582 C 709 486 623 356 555 191 C 487 26 446 -149 432 -337 L 289 -337 Z" unicode="₇" />
<glyph horiz-adv-x="1040" d="M 518 -364 C 438 -364 369 -350 311 -323 C 253 -296 208 -258 178 -210 C 148 -161 133 -106 133 -44 C 133 24 149 81 183 127 C 217 173 266 206 332 228 C 283 246 246 274 220 313 C 194 351 182 397 182 449 C 182 528 212 591 272 639 C 332 687 414 711 518 711 C 622 711 704 687 764 639 C 824 591 854 528 854 449 C 854 397 840 352 812 313 C 784 273 744 245 694 228 C 760 208 812 175 850 128 C 888 80 907 23 907 -44 C 907 -106 891 -161 860 -210 C 829 -258 784 -296 726 -323 C 668 -350 598 -364 518 -364 Z M 518 -251 C 596 -251 658 -232 703 -195 C 747 -158 770 -108 770 -44 C 770 21 747 73 703 113 C 658 153 596 173 518 173 C 440 173 378 152 334 112 C 290 72 268 20 268 -44 C 268 -106 290 -156 334 -194 C 378 -232 440 -251 518 -251 Z M 518 275 C 581 275 631 289 667 319 C 703 349 721 390 721 443 C 721 490 704 528 670 556 C 636 584 586 599 518 599 C 451 599 401 584 367 556 C 333 528 317 490 317 443 C 317 390 335 349 371 319 C 407 289 456 275 518 275 Z" unicode="₈" />
<glyph horiz-adv-x="1073" d="M 297 -233 L 318 -235 L 336 -235 C 404 -235 463 -228 514 -214 C 565 -200 608 -179 643 -153 C 677 -126 706 -90 729 -45 C 752 0 768 59 778 134 C 716 34 612 -16 467 -16 C 368 -16 289 15 230 79 C 170 142 141 227 141 335 C 141 445 174 534 241 602 C 308 670 399 705 514 705 C 644 705 743 663 811 581 C 879 499 913 380 913 226 C 913 42 863 -99 763 -201 C 663 -303 520 -354 336 -354 L 314 -354 L 291 -352 L 297 -233 Z M 504 93 C 551 93 595 102 635 121 C 675 140 708 167 732 203 C 756 238 768 280 768 328 C 768 406 744 469 698 515 C 652 561 587 584 504 584 C 433 584 378 562 338 519 C 298 475 279 414 279 335 C 279 256 298 196 336 155 C 374 113 430 93 504 93 Z" unicode="₉" />
<glyph horiz-adv-x="483" d="" unicode=" " />
<glyph horiz-adv-x="729" d="M 313 1106 L 418 1106 L 457 0 L 272 0 L 313 1106 Z M 266 1518 L 463 1518 L 463 1305 L 266 1305 L 266 1518 Z" unicode="¡" />
<glyph horiz-adv-x="1190" d="M 539 -11 C 401 3 293 62 217 166 C 140 270 102 403 102 565 C 102 665 120 758 157 844 C 193 929 245 998 311 1050 C 377 1102 453 1134 539 1145 L 539 1315 L 666 1315 L 666 1146 C 764 1138 846 1112 910 1068 C 974 1023 1028 953 1071 858 L 940 799 C 907 865 869 916 827 950 C 784 984 729 1006 662 1014 L 662 116 C 727 122 783 143 829 178 C 875 213 920 266 963 338 L 1087 270 C 1036 182 978 115 912 70 C 846 25 764 -1 666 -11 L 666 -193 L 539 -193 L 539 -11 Z M 252 565 C 252 444 278 343 330 263 C 382 183 453 135 543 119 L 543 1013 C 454 997 383 948 331 866 C 278 783 252 683 252 565 Z" unicode="¢" />
<glyph horiz-adv-x="1286" d="M 82 117 C 194 147 275 184 325 229 C 375 274 401 334 401 408 C 401 457 393 503 379 546 C 364 589 347 632 328 676 L 74 676 L 74 807 L 268 807 C 230 902 211 994 211 1083 C 211 1162 229 1233 265 1295 C 301 1357 353 1404 420 1438 C 487 1472 563 1489 647 1489 C 753 1489 847 1469 928 1429 C 1008 1389 1078 1327 1137 1243 L 1018 1165 C 972 1229 916 1277 852 1309 C 788 1340 719 1356 647 1356 C 561 1356 491 1332 438 1285 C 384 1237 358 1172 358 1090 C 358 1000 378 905 420 807 L 907 807 L 907 676 L 477 676 C 495 632 512 589 526 546 C 540 503 547 457 547 408 C 547 341 528 279 492 223 C 559 185 621 158 677 143 C 733 128 790 121 846 121 C 963 121 1022 173 1022 279 C 1022 321 1011 372 991 432 L 1124 465 C 1146 396 1157 334 1157 279 C 1157 185 1130 113 1078 63 C 1025 13 948 -12 846 -12 C 768 -12 693 -1 622 20 C 550 41 477 75 403 123 C 329 58 235 12 121 -14 L 82 117 Z" unicode="£" />
<glyph horiz-adv-x="1421" d="M 967 344 C 889 277 795 244 686 244 C 574 244 478 278 399 346 L 201 147 L 109 240 L 315 446 C 265 526 240 618 240 723 C 240 829 265 922 317 1001 L 109 1212 L 201 1305 L 401 1100 C 480 1168 575 1202 686 1202 C 795 1202 890 1168 971 1100 L 1180 1307 L 1270 1214 L 1055 999 C 1107 917 1133 825 1133 723 C 1133 618 1106 524 1053 440 L 1253 238 L 1163 145 L 967 344 Z M 686 369 C 776 369 851 402 909 468 C 967 534 997 619 997 723 C 997 826 968 911 910 977 C 852 1043 778 1077 686 1077 C 594 1077 520 1043 462 977 C 404 910 375 825 375 723 C 375 621 404 536 462 469 C 520 402 595 369 686 369 Z" unicode="¤" />
<glyph horiz-adv-x="1274" d="M 197 676 L 547 676 L 49 1464 L 205 1464 L 637 754 L 1071 1464 L 1225 1464 L 725 676 L 1071 676 L 1071 545 L 707 545 L 707 389 L 1071 389 L 1071 258 L 707 258 L 707 0 L 563 0 L 563 258 L 197 258 L 197 389 L 563 389 L 563 545 L 197 545 L 197 676 Z" unicode="¥" />
<glyph horiz-adv-x="657" d="M 254 467 L 403 467 L 403 -338 L 254 -338 L 254 467 Z M 254 1589 L 403 1589 L 403 784 L 254 784 L 254 1589 Z" unicode="¦" />
<glyph horiz-adv-x="1171" d="M 631 -338 C 429 -338 285 -273 197 -145 L 309 -70 C 371 -160 475 -205 621 -205 C 697 -205 756 -189 800 -157 C 844 -125 866 -81 866 -27 C 866 21 847 62 811 94 C 774 126 717 152 640 173 C 528 201 446 224 394 244 C 342 263 298 286 264 314 C 230 342 202 376 181 418 C 160 460 150 511 150 571 C 150 643 168 707 205 762 C 242 817 294 858 360 885 C 246 937 190 1028 190 1157 C 190 1249 225 1323 296 1381 C 367 1439 457 1468 567 1468 C 662 1468 744 1452 814 1422 C 883 1391 941 1342 987 1276 L 874 1200 C 844 1243 805 1276 758 1300 C 711 1323 651 1335 578 1335 C 502 1335 443 1319 401 1288 C 359 1257 338 1213 338 1157 C 338 1108 356 1068 393 1037 C 430 1005 489 979 570 958 C 692 926 777 901 826 883 C 875 865 917 843 952 815 C 987 787 1015 753 1037 712 C 1058 671 1069 620 1069 559 C 1069 479 1048 414 1007 363 C 966 311 911 273 842 248 C 902 219 945 182 973 137 C 1000 92 1014 37 1014 -27 C 1014 -118 977 -193 905 -251 C 833 -309 741 -338 631 -338 Z M 702 313 C 770 313 823 334 862 377 C 900 420 920 481 920 559 C 920 607 903 650 871 688 C 838 726 789 757 723 781 C 657 805 588 817 518 817 C 451 817 398 796 358 755 C 318 714 299 653 299 571 C 299 519 316 474 350 436 C 384 398 434 368 498 346 C 562 324 630 313 702 313 Z" unicode="§" />
<glyph horiz-adv-x="1208" d="M 338 1481 L 481 1481 L 481 1278 L 338 1278 L 338 1481 Z M 727 1481 L 870 1481 L 870 1278 L 727 1278 L 727 1481 Z" unicode="¨" />
<glyph horiz-adv-x="1706" d="M 854 -25 C 716 -25 589 10 472 80 C 354 150 262 245 194 367 C 126 488 92 619 92 760 C 92 902 126 1035 196 1157 C 266 1279 359 1374 476 1442 C 592 1510 718 1544 854 1544 C 988 1544 1114 1509 1230 1441 C 1346 1373 1439 1278 1509 1156 C 1579 1034 1614 902 1614 760 C 1614 620 1580 489 1513 368 C 1445 247 1353 151 1236 81 C 1119 10 992 -25 854 -25 Z M 854 70 C 971 70 1080 100 1181 161 C 1282 221 1362 305 1422 412 C 1481 518 1511 634 1511 760 C 1511 886 1481 1002 1422 1108 C 1362 1214 1282 1298 1181 1359 C 1080 1419 971 1450 854 1450 C 735 1450 625 1419 523 1358 C 421 1296 341 1212 283 1105 C 224 997 195 882 195 760 C 195 636 224 521 283 414 C 342 306 422 222 524 161 C 625 100 735 70 854 70 Z M 852 236 C 764 236 685 257 615 301 C 545 344 490 406 451 487 C 412 567 393 660 393 766 C 393 868 413 960 455 1040 C 496 1120 552 1183 624 1227 C 695 1271 773 1294 858 1294 C 938 1294 1012 1277 1080 1243 C 1148 1209 1205 1160 1251 1096 L 1145 1016 C 1065 1114 970 1163 858 1163 C 794 1163 738 1147 689 1115 C 640 1083 602 1038 575 978 C 548 918 535 848 535 766 C 535 683 548 612 575 552 C 601 492 639 446 689 414 C 738 382 794 367 858 367 C 931 367 993 383 1043 417 C 1093 451 1138 510 1176 594 L 1298 545 C 1254 443 1194 366 1119 314 C 1043 262 954 236 852 236 Z" unicode="©" />
<glyph horiz-adv-x="1196" d="M 471 530 C 375 530 301 554 248 604 C 194 653 168 721 168 809 C 168 901 202 972 272 1022 C 342 1071 441 1096 571 1096 C 661 1096 737 1089 801 1077 L 801 1094 C 801 1170 793 1225 779 1261 C 765 1296 742 1322 710 1340 C 678 1357 635 1366 580 1366 C 536 1366 495 1360 456 1350 C 417 1340 374 1322 328 1296 L 266 1403 C 360 1461 470 1491 594 1491 C 712 1491 798 1461 852 1402 C 905 1342 932 1246 932 1114 L 932 649 L 1051 649 L 1051 557 C 1005 545 966 539 934 539 C 858 539 819 577 815 655 L 811 713 C 785 655 742 610 684 578 C 625 546 554 530 471 530 Z M 479 647 C 579 647 658 669 715 714 C 772 758 801 820 801 899 L 801 965 C 726 979 661 987 606 987 C 504 987 428 973 377 947 C 326 921 301 876 301 813 C 301 755 316 712 346 686 C 376 660 420 647 479 647 Z M 209 371 L 932 371 L 932 240 L 209 240 L 209 371 Z" unicode="ª" />
<glyph horiz-adv-x="1321" d="M 182 563 L 492 1126 L 614 1126 L 338 563 L 614 0 L 492 0 L 182 563 Z M 645 563 L 954 1126 L 1077 1126 L 801 563 L 1077 0 L 954 0 L 645 563 Z" unicode="«" />
<glyph horiz-adv-x="1421" d="M 1051 655 L 209 655 L 209 788 L 1190 788 L 1190 231 L 1051 231 L 1051 655 Z" unicode="¬" />
<glyph horiz-adv-x="928" d="M 109 690 L 819 690 L 819 559 L 109 559 L 109 690 Z" unicode="­" />
<glyph horiz-adv-x="1432" d="M 717 414 C 619 414 527 438 443 488 C 359 537 292 605 242 693 C 192 780 168 875 168 977 C 168 1078 192 1172 242 1260 C 292 1348 359 1417 443 1467 C 527 1517 619 1542 717 1542 C 815 1542 906 1516 990 1466 C 1074 1416 1141 1347 1190 1259 C 1239 1171 1264 1077 1264 977 C 1264 875 1239 781 1191 694 C 1142 607 1076 539 992 489 C 908 439 816 414 717 414 Z M 717 481 C 803 481 882 503 955 547 C 1028 591 1085 652 1127 729 C 1169 806 1190 889 1190 977 C 1190 1065 1169 1148 1127 1225 C 1085 1302 1027 1363 954 1408 C 881 1452 802 1475 717 1475 C 631 1475 552 1452 479 1408 C 406 1364 348 1303 306 1226 C 263 1148 242 1065 242 977 C 242 888 263 805 305 728 C 347 651 405 591 479 547 C 552 503 631 481 717 481 Z M 475 1339 L 731 1339 C 901 1339 987 1266 987 1120 C 987 1006 935 936 831 909 L 1001 635 L 889 635 L 727 897 L 578 897 L 578 635 L 475 635 L 475 1339 Z M 735 991 C 785 991 822 1001 847 1021 C 872 1041 885 1074 885 1120 C 885 1165 872 1197 847 1215 C 821 1233 781 1243 725 1243 L 578 1243 L 578 991 L 735 991 Z" unicode="®" />
<glyph horiz-adv-x="1208" d="M 338 1399 L 870 1399 L 870 1278 L 338 1278 L 338 1399 Z" unicode="¯" />
<glyph horiz-adv-x="1165" d="M 582 522 C 495 522 418 542 351 584 C 284 625 232 683 195 758 C 157 832 139 915 139 1006 C 139 1097 157 1180 195 1254 C 232 1328 284 1386 352 1427 C 419 1468 496 1489 582 1489 C 668 1489 744 1468 812 1427 C 880 1385 932 1328 970 1254 C 1007 1180 1026 1097 1026 1006 C 1026 914 1007 831 970 757 C 932 683 880 625 813 584 C 745 542 668 522 582 522 Z M 582 649 C 674 649 749 682 805 748 C 861 814 889 900 889 1006 C 889 1111 860 1197 804 1263 C 748 1329 674 1362 582 1362 C 488 1362 414 1329 359 1263 C 303 1197 276 1112 276 1006 C 276 899 303 813 359 747 C 415 681 489 649 582 649 Z" unicode="°" />
<glyph horiz-adv-x="1421" d="M 641 655 L 219 655 L 219 788 L 641 788 L 641 1208 L 780 1208 L 780 788 L 1200 788 L 1200 655 L 780 655 L 780 231 L 641 231 L 641 655 Z M 219 133 L 1200 133 L 1200 0 L 219 0 L 219 133 Z" unicode="±" />
<glyph horiz-adv-x="987" d="M 145 684 L 373 862 C 453 924 516 979 562 1025 C 608 1071 641 1114 661 1152 C 680 1190 690 1238 690 1296 C 690 1353 672 1396 638 1425 C 604 1453 560 1468 506 1468 C 446 1468 396 1457 355 1436 C 314 1414 276 1384 242 1346 L 143 1419 C 185 1475 237 1518 297 1546 C 357 1574 430 1589 516 1589 C 609 1589 684 1563 740 1513 C 796 1462 825 1392 825 1303 C 825 1213 799 1130 747 1056 C 695 982 603 894 471 793 L 305 664 L 850 664 L 850 547 L 145 547 L 145 684 Z" unicode="²" />
<glyph horiz-adv-x="983" d="M 469 530 C 379 530 302 547 238 583 C 174 618 126 669 94 737 L 209 791 C 233 742 266 706 307 682 C 347 658 401 647 467 647 C 545 647 607 664 652 700 C 696 735 719 786 719 852 C 719 922 691 973 636 1004 C 581 1035 495 1051 377 1051 L 377 1159 C 576 1159 676 1215 676 1327 C 676 1372 660 1408 628 1434 C 596 1460 549 1473 485 1473 C 427 1473 378 1464 338 1446 C 298 1428 263 1398 233 1356 L 127 1421 C 201 1533 322 1589 492 1589 C 588 1589 664 1567 722 1525 C 780 1483 809 1424 809 1350 C 809 1294 790 1245 754 1203 C 717 1161 670 1133 612 1118 C 684 1105 743 1074 787 1026 C 831 977 854 918 854 850 C 854 752 819 675 750 617 C 681 559 587 530 469 530 Z" unicode="³" />
<glyph horiz-adv-x="1208" d="M 330 1325 L 823 1579 L 881 1448 L 373 1235 L 330 1325 Z" unicode="´" />
<glyph horiz-adv-x="1235" d="M 158 1126 L 301 1126 L 301 481 C 301 346 319 250 357 194 C 395 137 458 109 547 109 C 673 109 769 138 835 197 C 901 256 934 348 934 473 L 934 1126 L 1077 1126 L 1077 0 L 981 0 L 948 197 C 916 125 862 72 787 36 C 712 0 624 -18 522 -18 C 474 -18 432 -12 394 0 C 356 12 325 36 301 72 L 301 -338 L 158 -338 L 158 1126 Z" unicode="µ" />
<glyph horiz-adv-x="1262" d="M 532 578 C 255 608 117 754 117 1016 C 117 1161 160 1272 248 1350 C 335 1427 462 1466 629 1466 L 1081 1466 L 1081 0 L 938 0 L 938 571 L 676 571 L 676 0 L 532 0 L 532 578 Z M 938 694 L 938 1335 L 641 1335 C 509 1335 413 1309 353 1259 C 293 1208 264 1127 264 1016 C 264 908 293 827 352 774 C 411 720 502 694 625 694 L 938 694 Z" unicode="¶" />
<glyph horiz-adv-x="483" d="M 143 821 L 340 821 L 340 608 L 143 608 L 143 821 Z" unicode="·" />
<glyph horiz-adv-x="1208" d="M 571 -451 C 535 -451 497 -446 459 -436 C 420 -426 386 -412 356 -395 L 414 -295 C 436 -309 464 -320 497 -328 C 530 -336 560 -340 586 -340 C 633 -340 670 -332 696 -317 C 722 -302 735 -281 735 -254 C 735 -220 723 -197 700 -187 C 677 -177 648 -172 612 -172 L 561 -174 L 485 -133 L 518 14 L 633 14 L 614 -96 C 632 -91 652 -89 672 -89 C 726 -89 771 -104 805 -134 C 839 -164 856 -204 856 -254 C 856 -314 830 -362 779 -398 C 728 -433 659 -451 571 -451 Z" unicode="¸" />
<glyph horiz-adv-x="655" d="M 297 1440 C 251 1424 186 1417 102 1417 L 102 1536 C 216 1536 298 1548 348 1573 L 432 1573 L 432 547 L 297 547 L 297 1440 Z" unicode="¹" />
<glyph horiz-adv-x="1196" d="M 598 532 C 514 532 439 552 373 594 C 307 635 257 692 221 766 C 185 840 168 922 168 1012 C 168 1102 186 1184 222 1258 C 258 1331 308 1388 374 1429 C 440 1470 514 1491 598 1491 C 680 1491 754 1470 820 1430 C 886 1389 937 1332 973 1258 C 1009 1184 1028 1102 1028 1012 C 1028 922 1010 840 974 766 C 938 692 887 634 821 593 C 755 552 681 532 598 532 Z M 598 657 C 687 657 758 690 812 756 C 866 822 893 907 893 1012 C 893 1116 866 1201 812 1267 C 758 1333 686 1366 598 1366 C 509 1366 438 1333 384 1267 C 330 1201 303 1116 303 1012 C 303 907 330 822 384 756 C 438 690 509 657 598 657 Z M 190 371 L 1004 371 L 1004 240 L 190 240 L 190 371 Z" unicode="º" />
<glyph horiz-adv-x="1321" d="M 367 0 L 244 0 L 520 563 L 244 1126 L 367 1126 L 676 563 L 367 0 Z M 829 0 L 707 0 L 983 563 L 707 1126 L 829 1126 L 1139 563 L 829 0 Z" unicode="»" />
<glyph horiz-adv-x="1851" d="M 256 1339 C 206 1324 141 1317 61 1317 L 61 1436 C 175 1436 257 1448 307 1473 L 391 1473 L 391 446 L 256 446 L 256 1339 Z M 1186 1466 L 1319 1466 L 471 0 L 336 0 L 1186 1466 Z M 1468 242 L 954 242 L 954 340 L 1423 1026 L 1569 1026 L 1112 356 L 1473 356 L 1511 586 L 1599 586 L 1599 356 L 1784 356 L 1784 242 L 1599 242 L 1599 0 L 1468 0 L 1468 242 Z" unicode="¼" />
<glyph horiz-adv-x="1905" d="M 256 1339 C 206 1324 141 1317 61 1317 L 61 1436 C 175 1436 257 1448 307 1473 L 391 1473 L 391 446 L 256 446 L 256 1339 Z M 1186 1466 L 1319 1466 L 471 0 L 336 0 L 1186 1466 Z M 1094 137 L 1321 315 C 1409 383 1476 441 1523 488 C 1569 534 1602 576 1621 614 C 1639 651 1649 696 1649 750 C 1649 804 1632 847 1599 877 C 1565 907 1520 922 1464 922 C 1412 922 1365 912 1323 894 C 1281 875 1240 843 1200 799 L 1102 872 C 1144 928 1196 971 1256 999 C 1316 1027 1389 1042 1475 1042 C 1568 1042 1643 1016 1699 966 C 1755 915 1784 845 1784 756 C 1784 670 1758 591 1707 518 C 1655 445 1559 354 1419 246 L 1253 117 L 1802 117 L 1802 0 L 1094 0 L 1094 137 Z" unicode="½" />
<glyph horiz-adv-x="2138" d="M 1473 1466 L 1606 1466 L 758 0 L 623 0 L 1473 1466 Z M 1755 242 L 1241 242 L 1241 340 L 1710 1026 L 1855 1026 L 1399 356 L 1759 356 L 1798 586 L 1886 586 L 1886 356 L 2071 356 L 2071 242 L 1886 242 L 1886 0 L 1755 0 L 1755 242 Z M 428 430 C 339 430 263 447 199 481 C 135 515 86 567 53 637 L 168 690 C 192 642 225 606 266 582 C 306 558 360 547 426 547 C 504 547 566 564 611 600 C 655 635 678 686 678 752 C 678 820 651 870 599 902 C 546 934 458 950 336 950 L 336 1059 C 535 1059 635 1115 635 1227 C 635 1272 619 1307 587 1333 C 555 1359 508 1372 444 1372 C 386 1372 337 1363 298 1345 C 258 1327 223 1297 193 1255 L 86 1321 C 162 1433 283 1489 451 1489 C 547 1489 624 1467 682 1424 C 739 1381 768 1323 768 1249 C 768 1194 750 1146 714 1104 C 678 1062 631 1033 571 1018 C 643 1005 702 974 746 926 C 790 877 813 818 813 750 C 813 652 778 575 709 517 C 640 459 546 430 428 430 Z" unicode="¾" />
<glyph horiz-adv-x="1339" d="M 645 -23 C 500 -23 387 9 307 75 C 226 140 186 231 186 348 C 186 405 197 457 221 504 C 245 551 277 594 319 633 C 361 672 423 714 506 760 C 560 789 600 820 626 854 C 651 887 664 928 664 976 C 664 1004 659 1047 649 1106 L 799 1106 C 807 1054 812 1009 812 969 C 812 904 792 846 752 794 C 712 742 650 693 565 647 C 478 599 418 553 385 509 C 352 464 336 413 336 356 C 336 278 362 217 414 174 C 466 130 543 109 645 109 C 734 109 810 124 872 156 C 934 188 988 236 1034 301 L 1153 223 C 1091 135 1019 72 937 34 C 855 -4 757 -23 645 -23 Z M 623 1518 L 819 1518 L 819 1305 L 623 1305 L 623 1518 Z" unicode="¿" />
<glyph horiz-adv-x="1452" d="M 653 1528 L 801 1528 L 1393 0 L 1237 0 L 1098 360 L 346 360 L 207 0 L 59 0 L 653 1528 Z M 1049 489 L 723 1333 L 395 489 L 1049 489 Z M 449 1817 L 506 1948 L 1000 1694 L 957 1604 L 449 1817 Z" unicode="À" />
<glyph horiz-adv-x="1452" d="M 653 1528 L 801 1528 L 1393 0 L 1237 0 L 1098 360 L 346 360 L 207 0 L 59 0 L 653 1528 Z M 1049 489 L 723 1333 L 395 489 L 1049 489 Z M 451 1694 L 944 1948 L 1002 1817 L 494 1604 L 451 1694 Z" unicode="Á" />
<glyph horiz-adv-x="1452" d="M 653 1528 L 801 1528 L 1393 0 L 1237 0 L 1098 360 L 346 360 L 207 0 L 59 0 L 653 1528 Z M 1049 489 L 723 1333 L 395 489 L 1049 489 Z M 363 1710 L 676 1895 L 772 1895 L 1088 1710 L 1047 1626 L 725 1758 L 404 1626 L 363 1710 Z" unicode="Â" />
<glyph horiz-adv-x="1452" d="M 653 1528 L 801 1528 L 1393 0 L 1237 0 L 1098 360 L 346 360 L 207 0 L 59 0 L 653 1528 Z M 1049 489 L 723 1333 L 395 489 L 1049 489 Z M 320 1727 C 366 1782 412 1824 458 1854 C 504 1884 546 1899 584 1899 C 620 1899 650 1892 675 1880 C 699 1868 722 1854 742 1839 C 762 1824 781 1810 799 1798 C 817 1786 837 1780 860 1780 C 908 1780 966 1820 1036 1901 L 1131 1829 C 1087 1777 1042 1735 995 1704 C 948 1672 906 1657 869 1657 C 838 1657 811 1663 787 1675 C 763 1687 741 1701 721 1716 C 700 1731 679 1745 659 1757 C 639 1769 616 1776 592 1776 C 568 1776 538 1763 504 1739 C 469 1714 439 1685 414 1653 L 320 1727 Z" unicode="Ã" />
<glyph horiz-adv-x="1452" d="M 653 1528 L 801 1528 L 1393 0 L 1237 0 L 1098 360 L 346 360 L 207 0 L 59 0 L 653 1528 Z M 1049 489 L 723 1333 L 395 489 L 1049 489 Z M 459 1850 L 602 1850 L 602 1647 L 459 1647 L 459 1850 Z M 848 1850 L 991 1850 L 991 1647 L 848 1647 L 848 1850 Z" unicode="Ä" />
<glyph horiz-adv-x="1452" d="M 618 1442 C 568 1463 530 1495 503 1539 C 476 1582 463 1629 463 1681 C 463 1755 488 1818 538 1870 C 588 1922 650 1948 725 1948 C 797 1948 858 1921 909 1869 C 959 1817 985 1754 985 1681 C 985 1628 971 1580 943 1538 C 915 1495 879 1464 834 1444 L 1393 0 L 1237 0 L 1098 360 L 346 360 L 207 0 L 59 0 L 618 1442 Z M 1049 489 L 723 1333 L 395 489 L 1049 489 Z M 725 1524 C 767 1524 802 1539 830 1569 C 858 1599 872 1637 872 1681 C 872 1725 858 1762 830 1794 C 802 1825 767 1841 725 1841 C 682 1841 646 1825 618 1794 C 589 1762 575 1725 575 1681 C 575 1637 589 1600 617 1570 C 645 1539 681 1524 725 1524 Z" unicode="Å" />
<glyph horiz-adv-x="2114" d="M 995 1518 L 1987 1518 L 1987 1382 L 1214 1382 L 1214 834 L 1913 834 L 1913 700 L 1214 700 L 1214 131 L 1995 131 L 1995 0 L 1067 0 L 1067 365 L 418 365 L 193 0 L 29 0 L 995 1518 Z M 1067 500 L 1067 1399 L 504 500 L 1067 500 Z" unicode="Æ" />
<glyph horiz-adv-x="1501" d="M 760 -25 C 631 -25 516 6 414 69 C 312 132 232 222 176 340 C 120 457 92 593 92 748 C 92 903 121 1041 179 1161 C 237 1281 319 1375 425 1442 C 530 1508 647 1542 776 1542 C 930 1542 1058 1510 1160 1447 C 1262 1383 1341 1289 1399 1165 L 1264 1100 C 1210 1201 1145 1276 1068 1326 C 991 1376 893 1401 774 1401 C 671 1401 580 1375 500 1323 C 420 1271 357 1195 313 1097 C 268 999 246 883 246 750 C 246 617 268 503 312 407 C 356 311 418 238 499 188 C 580 138 673 113 778 113 C 856 113 923 123 979 143 C 1035 163 1085 194 1129 236 C 1173 278 1220 343 1270 430 L 1403 365 C 1331 228 1244 129 1143 67 C 1041 5 914 -25 760 -25 Z M 716 -451 C 680 -451 642 -446 604 -436 C 565 -426 531 -412 501 -395 L 559 -295 C 581 -309 609 -320 642 -328 C 675 -336 705 -340 731 -340 C 778 -340 815 -332 841 -317 C 867 -302 880 -281 880 -254 C 880 -220 868 -197 845 -187 C 822 -177 793 -172 757 -172 L 706 -174 L 630 -133 L 663 14 L 778 14 L 759 -96 C 777 -91 797 -89 817 -89 C 871 -89 916 -104 950 -134 C 984 -164 1001 -204 1001 -254 C 1001 -314 975 -362 924 -398 C 873 -433 804 -451 716 -451 Z" unicode="Ç" />
<glyph horiz-adv-x="1231" d="M 180 1518 L 1104 1518 L 1104 1382 L 332 1382 L 332 834 L 1030 834 L 1030 700 L 332 700 L 332 131 L 1112 131 L 1112 0 L 180 0 L 180 1518 Z M 338 1817 L 395 1948 L 889 1694 L 846 1604 L 338 1817 Z" unicode="È" />
<glyph horiz-adv-x="1231" d="M 180 1518 L 1104 1518 L 1104 1382 L 332 1382 L 332 834 L 1030 834 L 1030 700 L 332 700 L 332 131 L 1112 131 L 1112 0 L 180 0 L 180 1518 Z M 340 1694 L 833 1948 L 891 1817 L 383 1604 L 340 1694 Z" unicode="É" />
<glyph horiz-adv-x="1231" d="M 180 1518 L 1104 1518 L 1104 1382 L 332 1382 L 332 834 L 1030 834 L 1030 700 L 332 700 L 332 131 L 1112 131 L 1112 0 L 180 0 L 180 1518 Z M 252 1710 L 565 1895 L 661 1895 L 977 1710 L 936 1626 L 614 1758 L 293 1626 L 252 1710 Z" unicode="Ê" />
<glyph horiz-adv-x="1231" d="M 180 1518 L 1104 1518 L 1104 1382 L 332 1382 L 332 834 L 1030 834 L 1030 700 L 332 700 L 332 131 L 1112 131 L 1112 0 L 180 0 L 180 1518 Z M 348 1850 L 491 1850 L 491 1647 L 348 1647 L 348 1850 Z M 737 1850 L 880 1850 L 880 1647 L 737 1647 L 737 1850 Z" unicode="Ë" />
<glyph horiz-adv-x="561" d="M 205 1518 L 356 1518 L 356 0 L 205 0 L 205 1518 Z M -68 1817 L -11 1948 L 483 1694 L 440 1604 L -68 1817 Z" unicode="Ì" />
<glyph horiz-adv-x="561" d="M 205 1518 L 356 1518 L 356 0 L 205 0 L 205 1518 Z M 83 1694 L 576 1948 L 634 1817 L 126 1604 L 83 1694 Z" unicode="Í" />
<glyph horiz-adv-x="561" d="M 205 1518 L 356 1518 L 356 0 L 205 0 L 205 1518 Z M -81 1710 L 232 1895 L 328 1895 L 644 1710 L 603 1626 L 281 1758 L -40 1626 L -81 1710 Z" unicode="Î" />
<glyph horiz-adv-x="561" d="M 205 1518 L 356 1518 L 356 0 L 205 0 L 205 1518 Z M 15 1850 L 158 1850 L 158 1647 L 15 1647 L 15 1850 Z M 404 1850 L 547 1850 L 547 1647 L 404 1647 L 404 1850 Z" unicode="Ï" />
<glyph horiz-adv-x="1473" d="M 180 721 L 0 721 L 0 854 L 180 854 L 180 1518 L 639 1518 C 887 1518 1073 1455 1196 1330 C 1318 1205 1380 1015 1380 760 C 1380 510 1315 321 1185 193 C 1055 64 863 0 610 0 L 180 0 L 180 721 Z M 332 854 L 649 854 L 649 721 L 332 721 L 332 131 L 647 131 C 841 131 987 182 1083 286 C 1179 390 1227 548 1227 760 C 1227 972 1179 1128 1083 1230 C 987 1331 835 1382 625 1382 L 332 1382 L 332 854 Z" unicode="Ð" />
<glyph horiz-adv-x="1561" d="M 180 1518 L 373 1518 L 1237 238 L 1237 1518 L 1380 1518 L 1380 0 L 1235 0 L 324 1348 L 324 0 L 180 0 L 180 1518 Z M 375 1727 C 421 1782 467 1824 513 1854 C 559 1884 601 1899 639 1899 C 675 1899 705 1892 730 1880 C 754 1868 777 1854 797 1839 C 817 1824 836 1810 854 1798 C 872 1786 892 1780 915 1780 C 963 1780 1021 1820 1091 1901 L 1186 1829 C 1142 1777 1097 1735 1050 1704 C 1003 1672 961 1657 924 1657 C 893 1657 866 1663 842 1675 C 818 1687 796 1701 776 1716 C 755 1731 734 1745 714 1757 C 694 1769 671 1776 647 1776 C 623 1776 593 1763 559 1739 C 524 1714 494 1685 469 1653 L 375 1727 Z" unicode="Ñ" />
<glyph horiz-adv-x="1640" d="M 821 -25 C 687 -25 563 8 450 74 C 336 140 248 233 186 352 C 123 470 92 606 92 760 C 92 910 122 1043 183 1161 C 244 1279 331 1372 445 1440 C 558 1508 683 1542 821 1542 C 955 1542 1078 1509 1190 1444 C 1302 1378 1389 1286 1453 1168 C 1516 1050 1548 914 1548 760 C 1548 605 1516 468 1453 349 C 1389 230 1302 138 1190 73 C 1078 7 955 -25 821 -25 Z M 821 113 C 930 113 1030 140 1120 195 C 1210 249 1278 325 1325 422 C 1371 519 1395 632 1395 760 C 1395 891 1370 1005 1321 1101 C 1272 1197 1204 1271 1116 1323 C 1028 1375 929 1401 821 1401 C 709 1401 609 1374 520 1320 C 430 1266 362 1190 316 1094 C 269 997 246 886 246 760 C 246 633 269 521 315 424 C 361 327 430 251 520 196 C 610 140 710 113 821 113 Z M 543 1817 L 600 1948 L 1094 1694 L 1051 1604 L 543 1817 Z" unicode="Ò" />
<glyph horiz-adv-x="1640" d="M 821 -25 C 687 -25 563 8 450 74 C 336 140 248 233 186 352 C 123 470 92 606 92 760 C 92 910 122 1043 183 1161 C 244 1279 331 1372 445 1440 C 558 1508 683 1542 821 1542 C 955 1542 1078 1509 1190 1444 C 1302 1378 1389 1286 1453 1168 C 1516 1050 1548 914 1548 760 C 1548 605 1516 468 1453 349 C 1389 230 1302 138 1190 73 C 1078 7 955 -25 821 -25 Z M 821 113 C 930 113 1030 140 1120 195 C 1210 249 1278 325 1325 422 C 1371 519 1395 632 1395 760 C 1395 891 1370 1005 1321 1101 C 1272 1197 1204 1271 1116 1323 C 1028 1375 929 1401 821 1401 C 709 1401 609 1374 520 1320 C 430 1266 362 1190 316 1094 C 269 997 246 886 246 760 C 246 633 269 521 315 424 C 361 327 430 251 520 196 C 610 140 710 113 821 113 Z M 545 1694 L 1038 1948 L 1096 1817 L 588 1604 L 545 1694 Z" unicode="Ó" />
<glyph horiz-adv-x="1640" d="M 821 -25 C 687 -25 563 8 450 74 C 336 140 248 233 186 352 C 123 470 92 606 92 760 C 92 910 122 1043 183 1161 C 244 1279 331 1372 445 1440 C 558 1508 683 1542 821 1542 C 955 1542 1078 1509 1190 1444 C 1302 1378 1389 1286 1453 1168 C 1516 1050 1548 914 1548 760 C 1548 605 1516 468 1453 349 C 1389 230 1302 138 1190 73 C 1078 7 955 -25 821 -25 Z M 821 113 C 930 113 1030 140 1120 195 C 1210 249 1278 325 1325 422 C 1371 519 1395 632 1395 760 C 1395 891 1370 1005 1321 1101 C 1272 1197 1204 1271 1116 1323 C 1028 1375 929 1401 821 1401 C 709 1401 609 1374 520 1320 C 430 1266 362 1190 316 1094 C 269 997 246 886 246 760 C 246 633 269 521 315 424 C 361 327 430 251 520 196 C 610 140 710 113 821 113 Z M 457 1710 L 770 1895 L 866 1895 L 1182 1710 L 1141 1626 L 819 1758 L 498 1626 L 457 1710 Z" unicode="Ô" />
<glyph horiz-adv-x="1640" d="M 821 -25 C 687 -25 563 8 450 74 C 336 140 248 233 186 352 C 123 470 92 606 92 760 C 92 910 122 1043 183 1161 C 244 1279 331 1372 445 1440 C 558 1508 683 1542 821 1542 C 955 1542 1078 1509 1190 1444 C 1302 1378 1389 1286 1453 1168 C 1516 1050 1548 914 1548 760 C 1548 605 1516 468 1453 349 C 1389 230 1302 138 1190 73 C 1078 7 955 -25 821 -25 Z M 821 113 C 930 113 1030 140 1120 195 C 1210 249 1278 325 1325 422 C 1371 519 1395 632 1395 760 C 1395 891 1370 1005 1321 1101 C 1272 1197 1204 1271 1116 1323 C 1028 1375 929 1401 821 1401 C 709 1401 609 1374 520 1320 C 430 1266 362 1190 316 1094 C 269 997 246 886 246 760 C 246 633 269 521 315 424 C 361 327 430 251 520 196 C 610 140 710 113 821 113 Z M 414 1727 C 460 1782 506 1824 552 1854 C 598 1884 640 1899 678 1899 C 714 1899 744 1892 769 1880 C 793 1868 816 1854 836 1839 C 856 1824 875 1810 893 1798 C 911 1786 931 1780 954 1780 C 1002 1780 1060 1820 1130 1901 L 1225 1829 C 1181 1777 1136 1735 1089 1704 C 1042 1672 1000 1657 963 1657 C 932 1657 905 1663 881 1675 C 857 1687 835 1701 815 1716 C 794 1731 773 1745 753 1757 C 733 1769 710 1776 686 1776 C 662 1776 632 1763 598 1739 C 563 1714 533 1685 508 1653 L 414 1727 Z" unicode="Õ" />
<glyph horiz-adv-x="1640" d="M 821 -25 C 687 -25 563 8 450 74 C 336 140 248 233 186 352 C 123 470 92 606 92 760 C 92 910 122 1043 183 1161 C 244 1279 331 1372 445 1440 C 558 1508 683 1542 821 1542 C 955 1542 1078 1509 1190 1444 C 1302 1378 1389 1286 1453 1168 C 1516 1050 1548 914 1548 760 C 1548 605 1516 468 1453 349 C 1389 230 1302 138 1190 73 C 1078 7 955 -25 821 -25 Z M 821 113 C 930 113 1030 140 1120 195 C 1210 249 1278 325 1325 422 C 1371 519 1395 632 1395 760 C 1395 891 1370 1005 1321 1101 C 1272 1197 1204 1271 1116 1323 C 1028 1375 929 1401 821 1401 C 709 1401 609 1374 520 1320 C 430 1266 362 1190 316 1094 C 269 997 246 886 246 760 C 246 633 269 521 315 424 C 361 327 430 251 520 196 C 610 140 710 113 821 113 Z M 553 1850 L 696 1850 L 696 1647 L 553 1647 L 553 1850 Z M 942 1850 L 1085 1850 L 1085 1647 L 942 1647 L 942 1850 Z" unicode="Ö" />
<glyph horiz-adv-x="1421" d="M 293 397 L 618 723 L 293 1049 L 385 1141 L 711 815 L 1036 1141 L 1126 1049 L 801 723 L 1126 397 L 1036 305 L 711 631 L 385 305 L 293 397 Z" unicode="×" />
<glyph horiz-adv-x="1640" d="M 821 -25 C 704 -25 595 0 494 50 L 416 -86 L 254 -86 L 374 125 C 284 195 214 284 165 392 C 116 500 92 623 92 760 C 92 910 122 1043 183 1161 C 244 1279 331 1372 445 1440 C 558 1508 683 1542 821 1542 C 935 1542 1044 1516 1147 1466 L 1227 1604 L 1391 1604 L 1268 1390 C 1358 1320 1427 1232 1475 1124 C 1523 1016 1548 894 1548 760 C 1548 605 1516 468 1453 349 C 1389 230 1302 138 1190 73 C 1078 7 955 -25 821 -25 Z M 246 760 C 246 650 263 551 297 464 C 331 377 382 304 450 246 L 1080 1341 C 1000 1381 913 1401 821 1401 C 709 1401 609 1374 520 1320 C 430 1266 362 1190 316 1094 C 269 997 246 886 246 760 Z M 821 113 C 930 113 1030 140 1120 195 C 1210 249 1278 325 1325 422 C 1371 519 1395 632 1395 760 C 1395 868 1377 966 1343 1052 C 1308 1138 1258 1209 1192 1267 L 560 174 C 641 133 728 113 821 113 Z" unicode="Ø" />
<glyph horiz-adv-x="1546" d="M 1374 1518 L 1374 543 C 1374 430 1350 331 1302 245 C 1254 159 1185 92 1095 45 C 1005 -1 896 -25 768 -25 C 641 -25 533 -1 444 45 C 354 92 286 158 240 244 C 193 329 170 429 170 543 L 170 1518 L 322 1518 L 322 543 C 322 408 361 303 441 227 C 520 151 631 113 774 113 C 872 113 954 130 1021 165 C 1088 199 1139 249 1173 313 C 1207 377 1225 453 1225 543 L 1225 1518 L 1374 1518 Z M 496 1817 L 553 1948 L 1047 1694 L 1004 1604 L 496 1817 Z" unicode="Ù" />
<glyph horiz-adv-x="1546" d="M 1374 1518 L 1374 543 C 1374 430 1350 331 1302 245 C 1254 159 1185 92 1095 45 C 1005 -1 896 -25 768 -25 C 641 -25 533 -1 444 45 C 354 92 286 158 240 244 C 193 329 170 429 170 543 L 170 1518 L 322 1518 L 322 543 C 322 408 361 303 441 227 C 520 151 631 113 774 113 C 872 113 954 130 1021 165 C 1088 199 1139 249 1173 313 C 1207 377 1225 453 1225 543 L 1225 1518 L 1374 1518 Z M 498 1694 L 991 1948 L 1049 1817 L 541 1604 L 498 1694 Z" unicode="Ú" />
<glyph horiz-adv-x="1546" d="M 1374 1518 L 1374 543 C 1374 430 1350 331 1302 245 C 1254 159 1185 92 1095 45 C 1005 -1 896 -25 768 -25 C 641 -25 533 -1 444 45 C 354 92 286 158 240 244 C 193 329 170 429 170 543 L 170 1518 L 322 1518 L 322 543 C 322 408 361 303 441 227 C 520 151 631 113 774 113 C 872 113 954 130 1021 165 C 1088 199 1139 249 1173 313 C 1207 377 1225 453 1225 543 L 1225 1518 L 1374 1518 Z M 410 1710 L 723 1895 L 819 1895 L 1135 1710 L 1094 1626 L 772 1758 L 451 1626 L 410 1710 Z" unicode="Û" />
<glyph horiz-adv-x="1546" d="M 1374 1518 L 1374 543 C 1374 430 1350 331 1302 245 C 1254 159 1185 92 1095 45 C 1005 -1 896 -25 768 -25 C 641 -25 533 -1 444 45 C 354 92 286 158 240 244 C 193 329 170 429 170 543 L 170 1518 L 322 1518 L 322 543 C 322 408 361 303 441 227 C 520 151 631 113 774 113 C 872 113 954 130 1021 165 C 1088 199 1139 249 1173 313 C 1207 377 1225 453 1225 543 L 1225 1518 L 1374 1518 Z M 506 1850 L 649 1850 L 649 1647 L 506 1647 L 506 1850 Z M 895 1850 L 1038 1850 L 1038 1647 L 895 1647 L 895 1850 Z" unicode="Ü" />
<glyph horiz-adv-x="1386" d="M 618 633 L 49 1518 L 213 1518 L 696 760 L 1182 1518 L 1339 1518 L 770 633 L 770 0 L 618 0 L 618 633 Z M 418 1694 L 911 1948 L 969 1817 L 461 1604 L 418 1694 Z" unicode="Ý" />
<glyph horiz-adv-x="1364" d="M 180 1518 L 332 1518 L 332 1264 L 737 1264 C 911 1264 1043 1224 1135 1144 C 1226 1064 1272 948 1272 797 C 1272 487 1084 332 709 332 L 332 332 L 332 0 L 180 0 L 180 1518 Z M 743 459 C 869 459 963 487 1024 543 C 1085 599 1116 684 1116 797 C 1116 915 1084 999 1021 1051 C 957 1102 858 1128 723 1128 L 332 1128 L 332 459 L 743 459 Z" unicode="Þ" />
<glyph horiz-adv-x="1296" d="M 258 993 L 39 993 L 39 1126 L 258 1126 L 258 1231 C 258 1340 298 1428 378 1494 C 458 1560 562 1593 690 1593 C 815 1593 912 1561 981 1499 C 1050 1437 1085 1348 1085 1233 C 1085 1148 1061 1075 1015 1015 C 968 954 903 912 819 889 C 895 877 962 853 1021 816 C 1080 779 1127 732 1161 674 C 1195 616 1212 548 1212 471 C 1212 323 1168 206 1080 119 C 992 31 877 -12 733 -12 C 648 -12 580 -5 530 8 L 559 145 C 574 141 600 137 637 134 C 674 130 708 129 739 129 C 840 129 919 158 977 218 C 1034 277 1063 359 1063 463 C 1063 572 1022 655 942 712 C 862 769 742 799 584 803 L 584 942 C 694 946 780 971 843 1019 C 906 1066 938 1131 938 1214 C 938 1375 850 1456 676 1456 C 593 1456 526 1435 476 1395 C 426 1354 401 1302 401 1239 L 401 0 L 258 0 L 258 993 Z" unicode="ß" />
<glyph horiz-adv-x="1192" d="M 449 -16 C 333 -16 243 13 180 72 C 117 130 86 214 86 324 C 86 437 127 524 209 584 C 291 644 412 674 571 674 C 687 674 783 666 858 651 L 858 670 C 858 765 849 835 831 880 C 813 925 785 959 746 983 C 707 1006 654 1018 588 1018 C 474 1018 369 989 274 932 L 207 1049 C 323 1119 456 1155 606 1155 C 748 1155 849 1119 910 1049 C 970 978 1001 860 1001 694 L 1001 117 L 1147 117 L 1147 16 C 1111 6 1085 0 1068 -2 C 1050 -4 1030 -6 1006 -6 C 962 -6 929 5 909 28 C 889 51 877 87 874 137 L 870 207 C 836 135 783 80 710 42 C 636 3 549 -16 449 -16 Z M 459 113 C 543 113 614 126 674 153 C 734 180 779 218 811 266 C 842 314 858 370 858 432 L 858 528 C 764 546 682 555 612 555 C 359 555 233 479 233 328 C 233 257 252 203 291 167 C 330 131 386 113 459 113 Z M 300 1448 L 357 1579 L 851 1325 L 808 1235 L 300 1448 Z" unicode="à" />
<glyph horiz-adv-x="1192" d="M 449 -16 C 333 -16 243 13 180 72 C 117 130 86 214 86 324 C 86 437 127 524 209 584 C 291 644 412 674 571 674 C 687 674 783 666 858 651 L 858 670 C 858 765 849 835 831 880 C 813 925 785 959 746 983 C 707 1006 654 1018 588 1018 C 474 1018 369 989 274 932 L 207 1049 C 323 1119 456 1155 606 1155 C 748 1155 849 1119 910 1049 C 970 978 1001 860 1001 694 L 1001 117 L 1147 117 L 1147 16 C 1111 6 1085 0 1068 -2 C 1050 -4 1030 -6 1006 -6 C 962 -6 929 5 909 28 C 889 51 877 87 874 137 L 870 207 C 836 135 783 80 710 42 C 636 3 549 -16 449 -16 Z M 459 113 C 543 113 614 126 674 153 C 734 180 779 218 811 266 C 842 314 858 370 858 432 L 858 528 C 764 546 682 555 612 555 C 359 555 233 479 233 328 C 233 257 252 203 291 167 C 330 131 386 113 459 113 Z M 302 1325 L 795 1579 L 853 1448 L 345 1235 L 302 1325 Z" unicode="á" />
<glyph horiz-adv-x="1192" d="M 449 -16 C 333 -16 243 13 180 72 C 117 130 86 214 86 324 C 86 437 127 524 209 584 C 291 644 412 674 571 674 C 687 674 783 666 858 651 L 858 670 C 858 765 849 835 831 880 C 813 925 785 959 746 983 C 707 1006 654 1018 588 1018 C 474 1018 369 989 274 932 L 207 1049 C 323 1119 456 1155 606 1155 C 748 1155 849 1119 910 1049 C 970 978 1001 860 1001 694 L 1001 117 L 1147 117 L 1147 16 C 1111 6 1085 0 1068 -2 C 1050 -4 1030 -6 1006 -6 C 962 -6 929 5 909 28 C 889 51 877 87 874 137 L 870 207 C 836 135 783 80 710 42 C 636 3 549 -16 449 -16 Z M 459 113 C 543 113 614 126 674 153 C 734 180 779 218 811 266 C 842 314 858 370 858 432 L 858 528 C 764 546 682 555 612 555 C 359 555 233 479 233 328 C 233 257 252 203 291 167 C 330 131 386 113 459 113 Z M 214 1341 L 527 1526 L 623 1526 L 939 1341 L 898 1257 L 576 1389 L 255 1257 L 214 1341 Z" unicode="â" />
<glyph horiz-adv-x="1192" d="M 449 -16 C 333 -16 243 13 180 72 C 117 130 86 214 86 324 C 86 437 127 524 209 584 C 291 644 412 674 571 674 C 687 674 783 666 858 651 L 858 670 C 858 765 849 835 831 880 C 813 925 785 959 746 983 C 707 1006 654 1018 588 1018 C 474 1018 369 989 274 932 L 207 1049 C 323 1119 456 1155 606 1155 C 748 1155 849 1119 910 1049 C 970 978 1001 860 1001 694 L 1001 117 L 1147 117 L 1147 16 C 1111 6 1085 0 1068 -2 C 1050 -4 1030 -6 1006 -6 C 962 -6 929 5 909 28 C 889 51 877 87 874 137 L 870 207 C 836 135 783 80 710 42 C 636 3 549 -16 449 -16 Z M 459 113 C 543 113 614 126 674 153 C 734 180 779 218 811 266 C 842 314 858 370 858 432 L 858 528 C 764 546 682 555 612 555 C 359 555 233 479 233 328 C 233 257 252 203 291 167 C 330 131 386 113 459 113 Z M 171 1358 C 217 1413 263 1455 309 1485 C 355 1515 397 1530 435 1530 C 471 1530 501 1523 526 1511 C 550 1499 573 1485 593 1470 C 613 1455 632 1441 650 1429 C 668 1417 688 1411 711 1411 C 759 1411 817 1451 887 1532 L 982 1460 C 938 1408 893 1366 846 1335 C 799 1303 757 1288 720 1288 C 689 1288 662 1294 638 1306 C 614 1318 592 1332 572 1347 C 551 1362 530 1376 510 1388 C 490 1400 467 1407 443 1407 C 419 1407 389 1394 355 1370 C 320 1345 290 1316 265 1284 L 171 1358 Z" unicode="ã" />
<glyph horiz-adv-x="1192" d="M 449 -16 C 333 -16 243 13 180 72 C 117 130 86 214 86 324 C 86 437 127 524 209 584 C 291 644 412 674 571 674 C 687 674 783 666 858 651 L 858 670 C 858 765 849 835 831 880 C 813 925 785 959 746 983 C 707 1006 654 1018 588 1018 C 474 1018 369 989 274 932 L 207 1049 C 323 1119 456 1155 606 1155 C 748 1155 849 1119 910 1049 C 970 978 1001 860 1001 694 L 1001 117 L 1147 117 L 1147 16 C 1111 6 1085 0 1068 -2 C 1050 -4 1030 -6 1006 -6 C 962 -6 929 5 909 28 C 889 51 877 87 874 137 L 870 207 C 836 135 783 80 710 42 C 636 3 549 -16 449 -16 Z M 459 113 C 543 113 614 126 674 153 C 734 180 779 218 811 266 C 842 314 858 370 858 432 L 858 528 C 764 546 682 555 612 555 C 359 555 233 479 233 328 C 233 257 252 203 291 167 C 330 131 386 113 459 113 Z M 310 1481 L 453 1481 L 453 1278 L 310 1278 L 310 1481 Z M 699 1481 L 842 1481 L 842 1278 L 699 1278 L 699 1481 Z" unicode="ä" />
<glyph horiz-adv-x="1192" d="M 449 -16 C 333 -16 243 13 180 72 C 117 130 86 214 86 324 C 86 437 127 524 209 584 C 291 644 412 674 571 674 C 687 674 783 666 858 651 L 858 670 C 858 765 849 835 831 880 C 813 925 785 959 746 983 C 707 1006 654 1018 588 1018 C 474 1018 369 989 274 932 L 207 1049 C 323 1119 456 1155 606 1155 C 748 1155 849 1119 910 1049 C 970 978 1001 860 1001 694 L 1001 117 L 1147 117 L 1147 16 C 1111 6 1085 0 1068 -2 C 1050 -4 1030 -6 1006 -6 C 962 -6 929 5 909 28 C 889 51 877 87 874 137 L 870 207 C 836 135 783 80 710 42 C 636 3 549 -16 449 -16 Z M 459 113 C 543 113 614 126 674 153 C 734 180 779 218 811 266 C 842 314 858 370 858 432 L 858 528 C 764 546 682 555 612 555 C 359 555 233 479 233 328 C 233 257 252 203 291 167 C 330 131 386 113 459 113 Z M 576 1237 C 502 1237 439 1262 389 1314 C 339 1365 314 1427 314 1501 C 314 1574 339 1637 389 1689 C 439 1741 501 1767 576 1767 C 648 1767 709 1740 760 1688 C 810 1636 836 1573 836 1501 C 836 1428 810 1366 759 1314 C 708 1262 647 1237 576 1237 Z M 576 1343 C 617 1343 652 1357 681 1387 C 709 1417 724 1455 724 1501 C 724 1545 710 1582 682 1614 C 654 1645 619 1661 576 1661 C 533 1661 497 1645 469 1614 C 441 1583 427 1545 427 1501 C 427 1455 441 1417 470 1387 C 499 1357 534 1343 576 1343 Z" unicode="å" />
<glyph horiz-adv-x="1937" d="M 1343 -18 C 1243 -18 1158 4 1090 50 C 1021 95 968 156 930 233 C 846 67 685 -16 449 -16 C 333 -16 243 13 180 71 C 117 129 86 213 86 322 C 86 435 128 522 213 584 C 298 645 417 676 571 676 C 681 676 776 667 858 651 L 858 670 C 858 765 849 835 831 880 C 813 925 785 959 746 983 C 707 1006 654 1018 588 1018 C 474 1018 369 989 274 932 L 207 1049 C 323 1119 456 1155 606 1155 C 702 1155 779 1137 837 1102 C 894 1067 935 1012 961 938 C 1001 1004 1055 1056 1121 1095 C 1187 1133 1264 1153 1354 1153 C 1502 1153 1614 1109 1690 1023 C 1766 937 1804 811 1804 645 L 1804 532 L 1001 532 C 1007 404 1041 303 1104 227 C 1166 151 1250 113 1356 113 C 1436 113 1502 128 1555 160 C 1608 192 1657 243 1702 315 L 1819 244 C 1765 154 1701 88 1627 46 C 1552 3 1457 -18 1343 -18 Z M 459 113 C 543 113 614 126 674 153 C 734 180 779 218 811 266 C 842 314 858 370 858 432 L 858 528 C 764 546 682 555 612 555 C 359 555 233 478 233 326 C 233 255 252 202 291 166 C 330 130 386 113 459 113 Z M 1655 664 L 1655 672 C 1655 784 1629 870 1579 930 C 1528 990 1453 1020 1354 1020 C 1263 1020 1186 988 1123 924 C 1059 860 1021 773 1008 664 L 1655 664 Z" unicode="æ" />
<glyph horiz-adv-x="1169" d="M 598 -18 C 497 -18 409 5 335 53 C 260 101 202 169 162 258 C 122 346 102 449 102 565 C 102 675 123 775 165 865 C 207 955 267 1026 344 1077 C 420 1127 506 1153 602 1153 C 715 1153 809 1131 883 1087 C 957 1043 1020 966 1071 858 L 940 799 C 901 877 856 933 804 967 C 752 1001 682 1018 596 1018 C 529 1018 469 998 417 960 C 365 921 324 867 295 797 C 266 727 252 649 252 565 C 252 430 284 321 348 238 C 412 154 499 113 608 113 C 687 113 754 130 808 164 C 862 198 913 256 963 338 L 1087 270 C 1031 170 964 97 886 51 C 808 5 712 -18 598 -18 Z M 554 -451 C 518 -451 480 -446 442 -436 C 403 -426 369 -412 339 -395 L 397 -295 C 419 -309 447 -320 480 -328 C 513 -336 543 -340 569 -340 C 616 -340 653 -332 679 -317 C 705 -302 718 -281 718 -254 C 718 -220 706 -197 683 -187 C 660 -177 631 -172 595 -172 L 544 -174 L 468 -133 L 501 14 L 616 14 L 597 -96 C 615 -91 635 -89 655 -89 C 709 -89 754 -104 788 -134 C 822 -164 839 -204 839 -254 C 839 -314 813 -362 762 -398 C 711 -433 642 -451 554 -451 Z" unicode="ç" />
<glyph horiz-adv-x="1188" d="M 594 -18 C 442 -18 322 35 234 142 C 146 248 102 389 102 565 C 102 676 123 777 165 867 C 207 957 266 1028 342 1078 C 418 1128 506 1153 604 1153 C 752 1153 865 1109 941 1023 C 1017 937 1055 811 1055 645 L 1055 532 L 253 532 C 259 403 293 301 356 226 C 418 150 502 113 606 113 C 686 113 752 128 805 160 C 858 192 907 243 952 315 L 1069 244 C 1014 152 949 86 874 44 C 798 2 705 -18 594 -18 Z M 604 1020 C 514 1020 438 988 375 925 C 312 861 273 774 258 664 L 905 664 L 905 672 C 905 784 879 870 829 930 C 778 990 703 1020 604 1020 Z M 321 1448 L 378 1579 L 872 1325 L 829 1235 L 321 1448 Z" unicode="è" />
<glyph horiz-adv-x="1188" d="M 594 -18 C 442 -18 322 35 234 142 C 146 248 102 389 102 565 C 102 676 123 777 165 867 C 207 957 266 1028 342 1078 C 418 1128 506 1153 604 1153 C 752 1153 865 1109 941 1023 C 1017 937 1055 811 1055 645 L 1055 532 L 253 532 C 259 403 293 301 356 226 C 418 150 502 113 606 113 C 686 113 752 128 805 160 C 858 192 907 243 952 315 L 1069 244 C 1014 152 949 86 874 44 C 798 2 705 -18 594 -18 Z M 604 1020 C 514 1020 438 988 375 925 C 312 861 273 774 258 664 L 905 664 L 905 672 C 905 784 879 870 829 930 C 778 990 703 1020 604 1020 Z M 323 1325 L 816 1579 L 874 1448 L 366 1235 L 323 1325 Z" unicode="é" />
<glyph horiz-adv-x="1188" d="M 594 -18 C 442 -18 322 35 234 142 C 146 248 102 389 102 565 C 102 676 123 777 165 867 C 207 957 266 1028 342 1078 C 418 1128 506 1153 604 1153 C 752 1153 865 1109 941 1023 C 1017 937 1055 811 1055 645 L 1055 532 L 253 532 C 259 403 293 301 356 226 C 418 150 502 113 606 113 C 686 113 752 128 805 160 C 858 192 907 243 952 315 L 1069 244 C 1014 152 949 86 874 44 C 798 2 705 -18 594 -18 Z M 604 1020 C 514 1020 438 988 375 925 C 312 861 273 774 258 664 L 905 664 L 905 672 C 905 784 879 870 829 930 C 778 990 703 1020 604 1020 Z M 235 1341 L 548 1526 L 644 1526 L 960 1341 L 919 1257 L 597 1389 L 276 1257 L 235 1341 Z" unicode="ê" />
<glyph horiz-adv-x="1188" d="M 594 -18 C 442 -18 322 35 234 142 C 146 248 102 389 102 565 C 102 676 123 777 165 867 C 207 957 266 1028 342 1078 C 418 1128 506 1153 604 1153 C 752 1153 865 1109 941 1023 C 1017 937 1055 811 1055 645 L 1055 532 L 253 532 C 259 403 293 301 356 226 C 418 150 502 113 606 113 C 686 113 752 128 805 160 C 858 192 907 243 952 315 L 1069 244 C 1014 152 949 86 874 44 C 798 2 705 -18 594 -18 Z M 604 1020 C 514 1020 438 988 375 925 C 312 861 273 774 258 664 L 905 664 L 905 672 C 905 784 879 870 829 930 C 778 990 703 1020 604 1020 Z M 331 1481 L 474 1481 L 474 1278 L 331 1278 L 331 1481 Z M 720 1481 L 863 1481 L 863 1278 L 720 1278 L 720 1481 Z" unicode="ë" />
<glyph horiz-adv-x="471" d="M 164 1126 L 307 1126 L 307 0 L 164 0 L 164 1126 Z M -109 1448 L -52 1579 L 442 1325 L 399 1235 L -109 1448 Z" unicode="ì" />
<glyph horiz-adv-x="471" d="M 164 1126 L 307 1126 L 307 0 L 164 0 L 164 1126 Z M 34 1325 L 527 1579 L 585 1448 L 77 1235 L 34 1325 Z" unicode="í" />
<glyph horiz-adv-x="471" d="M 164 1126 L 307 1126 L 307 0 L 164 0 L 164 1126 Z M -126 1341 L 187 1526 L 283 1526 L 599 1341 L 558 1257 L 236 1389 L -85 1257 L -126 1341 Z" unicode="î" />
<glyph horiz-adv-x="471" d="M 164 1126 L 307 1126 L 307 0 L 164 0 L 164 1126 Z M -30 1481 L 113 1481 L 113 1278 L -30 1278 L -30 1481 Z M 359 1481 L 502 1481 L 502 1278 L 359 1278 L 359 1481 Z" unicode="ï" />
<glyph horiz-adv-x="1257" d="M 629 -23 C 525 -23 433 2 353 52 C 273 102 211 173 167 263 C 123 353 102 454 102 565 C 102 676 123 776 167 866 C 211 956 273 1026 353 1077 C 433 1127 525 1153 629 1153 C 702 1153 768 1140 826 1114 C 884 1088 930 1050 965 1001 C 934 1118 888 1223 827 1315 L 594 1229 L 594 1372 L 741 1425 C 712 1456 681 1486 647 1516 L 750 1620 C 802 1575 847 1528 887 1479 L 1124 1567 L 1124 1423 L 965 1366 C 1091 1154 1155 887 1155 565 C 1155 454 1132 353 1088 262 C 1043 171 981 101 901 51 C 821 1 730 -23 629 -23 Z M 629 113 C 704 113 770 132 828 171 C 886 209 930 263 961 333 C 992 402 1008 479 1008 565 C 1008 699 973 808 904 892 C 834 976 743 1018 629 1018 C 514 1018 422 976 353 892 C 284 808 250 699 250 565 C 250 431 284 323 353 239 C 421 155 513 113 629 113 Z" unicode="ð" />
<glyph horiz-adv-x="1233" d="M 158 1126 L 254 1126 L 287 930 C 318 1000 371 1054 445 1094 C 519 1133 603 1153 696 1153 C 829 1153 927 1117 989 1046 C 1051 975 1083 858 1083 694 L 1083 0 L 940 0 L 940 670 C 940 798 918 888 876 940 C 834 992 763 1018 664 1018 C 546 1018 456 987 394 925 C 332 863 301 773 301 653 L 301 0 L 158 0 L 158 1126 Z M 211 1358 C 257 1413 303 1455 349 1485 C 395 1515 437 1530 475 1530 C 511 1530 541 1523 566 1511 C 590 1499 613 1485 633 1470 C 653 1455 672 1441 690 1429 C 708 1417 728 1411 751 1411 C 799 1411 857 1451 927 1532 L 1022 1460 C 978 1408 933 1366 886 1335 C 839 1303 797 1288 760 1288 C 729 1288 702 1294 678 1306 C 654 1318 632 1332 612 1347 C 591 1362 570 1376 550 1388 C 530 1400 507 1407 483 1407 C 459 1407 429 1394 395 1370 C 360 1345 330 1316 305 1284 L 211 1358 Z" unicode="ñ" />
<glyph horiz-adv-x="1257" d="M 629 -23 C 525 -23 433 2 353 52 C 273 102 211 173 167 263 C 123 353 102 454 102 565 C 102 676 123 776 167 866 C 211 956 273 1026 353 1077 C 433 1127 525 1153 629 1153 C 731 1153 822 1128 902 1078 C 982 1028 1045 957 1089 866 C 1133 775 1155 675 1155 565 C 1155 454 1132 353 1088 262 C 1043 171 981 101 901 51 C 821 1 730 -23 629 -23 Z M 629 113 C 704 113 770 132 828 171 C 886 209 930 263 961 333 C 992 402 1008 479 1008 565 C 1008 699 973 808 904 892 C 834 976 743 1018 629 1018 C 514 1018 422 976 353 892 C 284 808 250 699 250 565 C 250 431 284 323 353 239 C 421 155 513 113 629 113 Z M 353 1448 L 410 1579 L 904 1325 L 861 1235 L 353 1448 Z" unicode="ò" />
<glyph horiz-adv-x="1257" d="M 629 -23 C 525 -23 433 2 353 52 C 273 102 211 173 167 263 C 123 353 102 454 102 565 C 102 676 123 776 167 866 C 211 956 273 1026 353 1077 C 433 1127 525 1153 629 1153 C 731 1153 822 1128 902 1078 C 982 1028 1045 957 1089 866 C 1133 775 1155 675 1155 565 C 1155 454 1132 353 1088 262 C 1043 171 981 101 901 51 C 821 1 730 -23 629 -23 Z M 629 113 C 704 113 770 132 828 171 C 886 209 930 263 961 333 C 992 402 1008 479 1008 565 C 1008 699 973 808 904 892 C 834 976 743 1018 629 1018 C 514 1018 422 976 353 892 C 284 808 250 699 250 565 C 250 431 284 323 353 239 C 421 155 513 113 629 113 Z M 355 1325 L 848 1579 L 906 1448 L 398 1235 L 355 1325 Z" unicode="ó" />
<glyph horiz-adv-x="1257" d="M 629 -23 C 525 -23 433 2 353 52 C 273 102 211 173 167 263 C 123 353 102 454 102 565 C 102 676 123 776 167 866 C 211 956 273 1026 353 1077 C 433 1127 525 1153 629 1153 C 731 1153 822 1128 902 1078 C 982 1028 1045 957 1089 866 C 1133 775 1155 675 1155 565 C 1155 454 1132 353 1088 262 C 1043 171 981 101 901 51 C 821 1 730 -23 629 -23 Z M 629 113 C 704 113 770 132 828 171 C 886 209 930 263 961 333 C 992 402 1008 479 1008 565 C 1008 699 973 808 904 892 C 834 976 743 1018 629 1018 C 514 1018 422 976 353 892 C 284 808 250 699 250 565 C 250 431 284 323 353 239 C 421 155 513 113 629 113 Z M 267 1341 L 580 1526 L 676 1526 L 992 1341 L 951 1257 L 629 1389 L 308 1257 L 267 1341 Z" unicode="ô" />
<glyph horiz-adv-x="1257" d="M 629 -23 C 525 -23 433 2 353 52 C 273 102 211 173 167 263 C 123 353 102 454 102 565 C 102 676 123 776 167 866 C 211 956 273 1026 353 1077 C 433 1127 525 1153 629 1153 C 731 1153 822 1128 902 1078 C 982 1028 1045 957 1089 866 C 1133 775 1155 675 1155 565 C 1155 454 1132 353 1088 262 C 1043 171 981 101 901 51 C 821 1 730 -23 629 -23 Z M 629 113 C 704 113 770 132 828 171 C 886 209 930 263 961 333 C 992 402 1008 479 1008 565 C 1008 699 973 808 904 892 C 834 976 743 1018 629 1018 C 514 1018 422 976 353 892 C 284 808 250 699 250 565 C 250 431 284 323 353 239 C 421 155 513 113 629 113 Z M 224 1358 C 270 1413 316 1455 362 1485 C 408 1515 450 1530 488 1530 C 524 1530 554 1523 579 1511 C 603 1499 626 1485 646 1470 C 666 1455 685 1441 703 1429 C 721 1417 741 1411 764 1411 C 812 1411 870 1451 940 1532 L 1035 1460 C 991 1408 946 1366 899 1335 C 852 1303 810 1288 773 1288 C 742 1288 715 1294 691 1306 C 667 1318 645 1332 625 1347 C 604 1362 583 1376 563 1388 C 543 1400 520 1407 496 1407 C 472 1407 442 1394 408 1370 C 373 1345 343 1316 318 1284 L 224 1358 Z" unicode="õ" />
<glyph horiz-adv-x="1257" d="M 629 -23 C 525 -23 433 2 353 52 C 273 102 211 173 167 263 C 123 353 102 454 102 565 C 102 676 123 776 167 866 C 211 956 273 1026 353 1077 C 433 1127 525 1153 629 1153 C 731 1153 822 1128 902 1078 C 982 1028 1045 957 1089 866 C 1133 775 1155 675 1155 565 C 1155 454 1132 353 1088 262 C 1043 171 981 101 901 51 C 821 1 730 -23 629 -23 Z M 629 113 C 704 113 770 132 828 171 C 886 209 930 263 961 333 C 992 402 1008 479 1008 565 C 1008 699 973 808 904 892 C 834 976 743 1018 629 1018 C 514 1018 422 976 353 892 C 284 808 250 699 250 565 C 250 431 284 323 353 239 C 421 155 513 113 629 113 Z M 363 1481 L 506 1481 L 506 1278 L 363 1278 L 363 1481 Z M 752 1481 L 895 1481 L 895 1278 L 752 1278 L 752 1481 Z" unicode="ö" />
<glyph horiz-adv-x="1421" d="M 616 434 L 805 434 L 805 231 L 616 231 L 616 434 Z M 219 788 L 1200 788 L 1200 655 L 219 655 L 219 788 Z M 616 1208 L 805 1208 L 805 1006 L 616 1006 L 616 1208 Z" unicode="÷" />
<glyph horiz-adv-x="1257" d="M 629 -23 C 548 -23 472 -6 401 26 L 336 -86 L 172 -86 L 283 107 C 224 161 179 227 148 307 C 117 387 102 473 102 565 C 102 676 123 776 167 866 C 211 956 273 1026 353 1077 C 433 1127 525 1153 629 1153 C 711 1153 788 1135 859 1101 L 934 1231 L 1096 1231 L 974 1022 C 1032 968 1077 901 1108 822 C 1139 742 1155 657 1155 565 C 1155 454 1132 353 1088 262 C 1043 171 981 101 901 51 C 821 1 730 -23 629 -23 Z M 250 565 C 250 425 287 313 362 229 L 796 979 C 746 1005 691 1018 629 1018 C 514 1018 422 976 353 892 C 284 808 250 699 250 565 Z M 629 113 C 704 113 770 132 828 171 C 886 209 930 263 961 333 C 992 402 1008 479 1008 565 C 1008 702 971 813 898 899 L 466 149 C 515 125 569 113 629 113 Z" unicode="ø" />
<glyph horiz-adv-x="1227" d="M 537 -23 C 403 -23 305 12 243 82 C 181 152 150 268 150 432 L 150 1126 L 293 1126 L 293 457 C 293 328 314 238 356 186 C 398 134 469 109 569 109 C 685 109 773 139 834 199 C 895 259 926 351 926 473 L 926 1126 L 1069 1126 L 1069 0 L 973 0 L 940 197 C 908 127 857 73 785 35 C 713 -3 630 -23 537 -23 Z M 336 1448 L 393 1579 L 887 1325 L 844 1235 L 336 1448 Z" unicode="ù" />
<glyph horiz-adv-x="1227" d="M 537 -23 C 403 -23 305 12 243 82 C 181 152 150 268 150 432 L 150 1126 L 293 1126 L 293 457 C 293 328 314 238 356 186 C 398 134 469 109 569 109 C 685 109 773 139 834 199 C 895 259 926 351 926 473 L 926 1126 L 1069 1126 L 1069 0 L 973 0 L 940 197 C 908 127 857 73 785 35 C 713 -3 630 -23 537 -23 Z M 338 1325 L 831 1579 L 889 1448 L 381 1235 L 338 1325 Z" unicode="ú" />
<glyph horiz-adv-x="1227" d="M 537 -23 C 403 -23 305 12 243 82 C 181 152 150 268 150 432 L 150 1126 L 293 1126 L 293 457 C 293 328 314 238 356 186 C 398 134 469 109 569 109 C 685 109 773 139 834 199 C 895 259 926 351 926 473 L 926 1126 L 1069 1126 L 1069 0 L 973 0 L 940 197 C 908 127 857 73 785 35 C 713 -3 630 -23 537 -23 Z M 250 1341 L 563 1526 L 659 1526 L 975 1341 L 934 1257 L 612 1389 L 291 1257 L 250 1341 Z" unicode="û" />
<glyph horiz-adv-x="1227" d="M 537 -23 C 403 -23 305 12 243 82 C 181 152 150 268 150 432 L 150 1126 L 293 1126 L 293 457 C 293 328 314 238 356 186 C 398 134 469 109 569 109 C 685 109 773 139 834 199 C 895 259 926 351 926 473 L 926 1126 L 1069 1126 L 1069 0 L 973 0 L 940 197 C 908 127 857 73 785 35 C 713 -3 630 -23 537 -23 Z M 346 1481 L 489 1481 L 489 1278 L 346 1278 L 346 1481 Z M 735 1481 L 878 1481 L 878 1278 L 735 1278 L 735 1481 Z" unicode="ü" />
<glyph horiz-adv-x="1063" d="M 258 -360 C 168 -360 82 -339 0 -299 L 61 -178 C 97 -194 130 -205 158 -213 C 186 -221 217 -225 250 -225 C 300 -225 339 -209 369 -179 C 399 -148 430 -89 463 -2 L 31 1126 L 178 1126 L 535 180 L 893 1126 L 1032 1126 L 569 -80 C 533 -176 490 -246 440 -292 C 389 -337 328 -360 258 -360 Z M 257 1325 L 750 1579 L 808 1448 L 300 1235 L 257 1325 Z" unicode="ý" />
<glyph horiz-adv-x="1300" d="M 158 1589 L 301 1589 L 301 909 C 348 987 409 1047 485 1089 C 560 1131 645 1153 741 1153 C 885 1153 997 1100 1077 996 C 1157 892 1198 748 1198 565 C 1198 447 1179 345 1141 257 C 1103 169 1048 101 976 53 C 904 5 817 -18 717 -18 C 628 -18 547 2 474 44 C 401 85 343 142 301 215 L 301 -338 L 158 -338 L 158 1589 Z M 717 113 C 825 113 907 151 964 229 C 1020 307 1049 419 1049 565 C 1049 711 1020 823 964 901 C 907 979 825 1018 717 1018 C 595 1018 495 976 417 894 C 339 811 301 701 301 565 C 301 427 338 317 414 235 C 489 153 590 113 717 113 Z" unicode="þ" />
<glyph horiz-adv-x="1063" d="M 258 -360 C 168 -360 82 -339 0 -299 L 61 -178 C 97 -194 130 -205 158 -213 C 186 -221 217 -225 250 -225 C 300 -225 339 -209 369 -179 C 399 -148 430 -89 463 -2 L 31 1126 L 178 1126 L 535 180 L 893 1126 L 1032 1126 L 569 -80 C 533 -176 490 -246 440 -292 C 389 -337 328 -360 258 -360 Z M 265 1481 L 408 1481 L 408 1278 L 265 1278 L 265 1481 Z M 654 1481 L 797 1481 L 797 1278 L 654 1278 L 654 1481 Z" unicode="ÿ" />
<glyph horiz-adv-x="1452" d="M 653 1528 L 801 1528 L 1393 0 L 1237 0 L 1098 360 L 346 360 L 207 0 L 59 0 L 653 1528 Z M 1049 489 L 723 1333 L 395 489 L 1049 489 Z M 459 1768 L 991 1768 L 991 1647 L 459 1647 L 459 1768 Z" unicode="Ā" />
<glyph horiz-adv-x="1192" d="M 449 -16 C 333 -16 243 13 180 72 C 117 130 86 214 86 324 C 86 437 127 524 209 584 C 291 644 412 674 571 674 C 687 674 783 666 858 651 L 858 670 C 858 765 849 835 831 880 C 813 925 785 959 746 983 C 707 1006 654 1018 588 1018 C 474 1018 369 989 274 932 L 207 1049 C 323 1119 456 1155 606 1155 C 748 1155 849 1119 910 1049 C 970 978 1001 860 1001 694 L 1001 117 L 1147 117 L 1147 16 C 1111 6 1085 0 1068 -2 C 1050 -4 1030 -6 1006 -6 C 962 -6 929 5 909 28 C 889 51 877 87 874 137 L 870 207 C 836 135 783 80 710 42 C 636 3 549 -16 449 -16 Z M 459 113 C 543 113 614 126 674 153 C 734 180 779 218 811 266 C 842 314 858 370 858 432 L 858 528 C 764 546 682 555 612 555 C 359 555 233 479 233 328 C 233 257 252 203 291 167 C 330 131 386 113 459 113 Z M 310 1399 L 842 1399 L 842 1278 L 310 1278 L 310 1399 Z" unicode="ā" />
<glyph horiz-adv-x="1452" d="M 653 1528 L 801 1528 L 1393 0 L 1237 0 L 1098 360 L 346 360 L 207 0 L 59 0 L 653 1528 Z M 1049 489 L 723 1333 L 395 489 L 1049 489 Z M 725 1610 C 619 1610 534 1635 469 1687 C 404 1738 362 1811 344 1905 L 461 1928 C 489 1798 577 1733 725 1733 C 798 1733 857 1749 902 1782 C 946 1814 975 1863 987 1928 L 1106 1905 C 1084 1809 1041 1735 977 1685 C 913 1635 829 1610 725 1610 Z" unicode="Ă" />
<glyph horiz-adv-x="1192" d="M 449 -16 C 333 -16 243 13 180 72 C 117 130 86 214 86 324 C 86 437 127 524 209 584 C 291 644 412 674 571 674 C 687 674 783 666 858 651 L 858 670 C 858 765 849 835 831 880 C 813 925 785 959 746 983 C 707 1006 654 1018 588 1018 C 474 1018 369 989 274 932 L 207 1049 C 323 1119 456 1155 606 1155 C 748 1155 849 1119 910 1049 C 970 978 1001 860 1001 694 L 1001 117 L 1147 117 L 1147 16 C 1111 6 1085 0 1068 -2 C 1050 -4 1030 -6 1006 -6 C 962 -6 929 5 909 28 C 889 51 877 87 874 137 L 870 207 C 836 135 783 80 710 42 C 636 3 549 -16 449 -16 Z M 459 113 C 543 113 614 126 674 153 C 734 180 779 218 811 266 C 842 314 858 370 858 432 L 858 528 C 764 546 682 555 612 555 C 359 555 233 479 233 328 C 233 257 252 203 291 167 C 330 131 386 113 459 113 Z M 576 1241 C 470 1241 385 1266 320 1318 C 255 1369 213 1442 195 1536 L 312 1559 C 340 1429 428 1364 576 1364 C 649 1364 708 1380 753 1413 C 797 1445 826 1494 838 1559 L 957 1536 C 935 1440 892 1366 828 1316 C 764 1266 680 1241 576 1241 Z" unicode="ă" />
<glyph horiz-adv-x="1452" d="M 653 1528 L 801 1528 L 1393 0 L 1237 0 L 1098 360 L 346 360 L 207 0 L 59 0 L 653 1528 Z M 1049 489 L 723 1333 L 395 489 L 1049 489 Z M 1303 -405 C 1221 -405 1159 -389 1115 -359 C 1071 -328 1049 -282 1049 -221 C 1049 -169 1065 -119 1097 -69 C 1129 -19 1173 21 1229 55 L 1366 55 C 1300 7 1251 -35 1219 -75 C 1187 -115 1171 -155 1171 -197 C 1171 -261 1216 -293 1307 -293 C 1333 -293 1363 -288 1395 -279 C 1427 -269 1453 -259 1475 -248 L 1526 -346 C 1452 -385 1377 -405 1303 -405 Z" unicode="Ą" />
<glyph horiz-adv-x="1192" d="M 449 -16 C 333 -16 243 13 180 72 C 117 130 86 214 86 324 C 86 437 127 524 209 584 C 291 644 412 674 571 674 C 687 674 783 666 858 651 L 858 670 C 858 765 849 835 831 880 C 813 925 785 959 746 983 C 707 1006 654 1018 588 1018 C 474 1018 369 989 274 932 L 207 1049 C 323 1119 456 1155 606 1155 C 748 1155 849 1119 910 1049 C 970 978 1001 860 1001 694 L 1001 117 L 1147 117 L 1147 16 C 1111 6 1085 0 1068 -2 C 1050 -4 1030 -6 1006 -6 C 962 -6 929 5 909 28 C 889 51 877 87 874 137 L 870 207 C 836 135 783 80 710 42 C 636 3 549 -16 449 -16 Z M 459 113 C 543 113 614 126 674 153 C 734 180 779 218 811 266 C 842 314 858 370 858 432 L 858 528 C 764 546 682 555 612 555 C 359 555 233 479 233 328 C 233 257 252 203 291 167 C 330 131 386 113 459 113 Z M 1010 -405 C 928 -405 866 -389 822 -359 C 778 -328 756 -282 756 -221 C 756 -169 772 -119 804 -69 C 836 -19 880 21 936 55 L 1073 55 C 1007 7 958 -35 926 -75 C 894 -115 878 -155 878 -197 C 878 -261 923 -293 1014 -293 C 1040 -293 1070 -288 1102 -279 C 1134 -269 1160 -259 1182 -248 L 1233 -346 C 1159 -385 1084 -405 1010 -405 Z" unicode="ą" />
<glyph horiz-adv-x="1501" d="M 760 -25 C 631 -25 516 6 414 69 C 312 132 232 222 176 340 C 120 457 92 593 92 748 C 92 903 121 1041 179 1161 C 237 1281 319 1375 425 1442 C 530 1508 647 1542 776 1542 C 930 1542 1058 1510 1160 1447 C 1262 1383 1341 1289 1399 1165 L 1264 1100 C 1210 1201 1145 1276 1068 1326 C 991 1376 893 1401 774 1401 C 671 1401 580 1375 500 1323 C 420 1271 357 1195 313 1097 C 268 999 246 883 246 750 C 246 617 268 503 312 407 C 356 311 418 238 499 188 C 580 138 673 113 778 113 C 856 113 923 123 979 143 C 1035 163 1085 194 1129 236 C 1173 278 1220 343 1270 430 L 1403 365 C 1331 228 1244 129 1143 67 C 1041 5 914 -25 760 -25 Z M 496 1694 L 989 1948 L 1047 1817 L 539 1604 L 496 1694 Z" unicode="Ć" />
<glyph horiz-adv-x="1169" d="M 598 -18 C 497 -18 409 5 335 53 C 260 101 202 169 162 258 C 122 346 102 449 102 565 C 102 675 123 775 165 865 C 207 955 267 1026 344 1077 C 420 1127 506 1153 602 1153 C 715 1153 809 1131 883 1087 C 957 1043 1020 966 1071 858 L 940 799 C 901 877 856 933 804 967 C 752 1001 682 1018 596 1018 C 529 1018 469 998 417 960 C 365 921 324 867 295 797 C 266 727 252 649 252 565 C 252 430 284 321 348 238 C 412 154 499 113 608 113 C 687 113 754 130 808 164 C 862 198 913 256 963 338 L 1087 270 C 1031 170 964 97 886 51 C 808 5 712 -18 598 -18 Z M 332 1325 L 825 1579 L 883 1448 L 375 1235 L 332 1325 Z" unicode="ć" />
<glyph horiz-adv-x="1501" d="M 760 -25 C 631 -25 516 6 414 69 C 312 132 232 222 176 340 C 120 457 92 593 92 748 C 92 903 121 1041 179 1161 C 237 1281 319 1375 425 1442 C 530 1508 647 1542 776 1542 C 930 1542 1058 1510 1160 1447 C 1262 1383 1341 1289 1399 1165 L 1264 1100 C 1210 1201 1145 1276 1068 1326 C 991 1376 893 1401 774 1401 C 671 1401 580 1375 500 1323 C 420 1271 357 1195 313 1097 C 268 999 246 883 246 750 C 246 617 268 503 312 407 C 356 311 418 238 499 188 C 580 138 673 113 778 113 C 856 113 923 123 979 143 C 1035 163 1085 194 1129 236 C 1173 278 1220 343 1270 430 L 1403 365 C 1331 228 1244 129 1143 67 C 1041 5 914 -25 760 -25 Z M 408 1710 L 721 1895 L 817 1895 L 1133 1710 L 1092 1626 L 770 1758 L 449 1626 L 408 1710 Z" unicode="Ĉ" />
<glyph horiz-adv-x="1169" d="M 598 -18 C 497 -18 409 5 335 53 C 260 101 202 169 162 258 C 122 346 102 449 102 565 C 102 675 123 775 165 865 C 207 955 267 1026 344 1077 C 420 1127 506 1153 602 1153 C 715 1153 809 1131 883 1087 C 957 1043 1020 966 1071 858 L 940 799 C 901 877 856 933 804 967 C 752 1001 682 1018 596 1018 C 529 1018 469 998 417 960 C 365 921 324 867 295 797 C 266 727 252 649 252 565 C 252 430 284 321 348 238 C 412 154 499 113 608 113 C 687 113 754 130 808 164 C 862 198 913 256 963 338 L 1087 270 C 1031 170 964 97 886 51 C 808 5 712 -18 598 -18 Z M 244 1341 L 557 1526 L 653 1526 L 969 1341 L 928 1257 L 606 1389 L 285 1257 L 244 1341 Z" unicode="ĉ" />
<glyph horiz-adv-x="1501" d="M 760 -25 C 631 -25 516 6 414 69 C 312 132 232 222 176 340 C 120 457 92 593 92 748 C 92 903 121 1041 179 1161 C 237 1281 319 1375 425 1442 C 530 1508 647 1542 776 1542 C 930 1542 1058 1510 1160 1447 C 1262 1383 1341 1289 1399 1165 L 1264 1100 C 1210 1201 1145 1276 1068 1326 C 991 1376 893 1401 774 1401 C 671 1401 580 1375 500 1323 C 420 1271 357 1195 313 1097 C 268 999 246 883 246 750 C 246 617 268 503 312 407 C 356 311 418 238 499 188 C 580 138 673 113 778 113 C 856 113 923 123 979 143 C 1035 163 1085 194 1129 236 C 1173 278 1220 343 1270 430 L 1403 365 C 1331 228 1244 129 1143 67 C 1041 5 914 -25 760 -25 Z M 694 1862 L 846 1862 L 846 1649 L 694 1649 L 694 1862 Z" unicode="Ċ" />
<glyph horiz-adv-x="1169" d="M 598 -18 C 497 -18 409 5 335 53 C 260 101 202 169 162 258 C 122 346 102 449 102 565 C 102 675 123 775 165 865 C 207 955 267 1026 344 1077 C 420 1127 506 1153 602 1153 C 715 1153 809 1131 883 1087 C 957 1043 1020 966 1071 858 L 940 799 C 901 877 856 933 804 967 C 752 1001 682 1018 596 1018 C 529 1018 469 998 417 960 C 365 921 324 867 295 797 C 266 727 252 649 252 565 C 252 430 284 321 348 238 C 412 154 499 113 608 113 C 687 113 754 130 808 164 C 862 198 913 256 963 338 L 1087 270 C 1031 170 964 97 886 51 C 808 5 712 -18 598 -18 Z M 530 1493 L 682 1493 L 682 1280 L 530 1280 L 530 1493 Z" unicode="ċ" />
<glyph horiz-adv-x="1501" d="M 760 -25 C 631 -25 516 6 414 69 C 312 132 232 222 176 340 C 120 457 92 593 92 748 C 92 903 121 1041 179 1161 C 237 1281 319 1375 425 1442 C 530 1508 647 1542 776 1542 C 930 1542 1058 1510 1160 1447 C 1262 1383 1341 1289 1399 1165 L 1264 1100 C 1210 1201 1145 1276 1068 1326 C 991 1376 893 1401 774 1401 C 671 1401 580 1375 500 1323 C 420 1271 357 1195 313 1097 C 268 999 246 883 246 750 C 246 617 268 503 312 407 C 356 311 418 238 499 188 C 580 138 673 113 778 113 C 856 113 923 123 979 143 C 1035 163 1085 194 1129 236 C 1173 278 1220 343 1270 430 L 1403 365 C 1331 228 1244 129 1143 67 C 1041 5 914 -25 760 -25 Z M 408 1796 L 449 1880 L 770 1749 L 1092 1880 L 1133 1796 L 817 1612 L 723 1612 L 408 1796 Z" unicode="Č" />
<glyph horiz-adv-x="1169" d="M 598 -18 C 497 -18 409 5 335 53 C 260 101 202 169 162 258 C 122 346 102 449 102 565 C 102 675 123 775 165 865 C 207 955 267 1026 344 1077 C 420 1127 506 1153 602 1153 C 715 1153 809 1131 883 1087 C 957 1043 1020 966 1071 858 L 940 799 C 901 877 856 933 804 967 C 752 1001 682 1018 596 1018 C 529 1018 469 998 417 960 C 365 921 324 867 295 797 C 266 727 252 649 252 565 C 252 430 284 321 348 238 C 412 154 499 113 608 113 C 687 113 754 130 808 164 C 862 198 913 256 963 338 L 1087 270 C 1031 170 964 97 886 51 C 808 5 712 -18 598 -18 Z M 244 1427 L 285 1511 L 606 1380 L 928 1511 L 969 1427 L 653 1243 L 559 1243 L 244 1427 Z" unicode="č" />
<glyph horiz-adv-x="1473" d="M 180 0 L 180 1518 L 639 1518 C 887 1518 1073 1455 1196 1330 C 1318 1205 1380 1015 1380 760 C 1380 510 1315 321 1185 193 C 1055 64 863 0 610 0 L 180 0 Z M 647 131 C 841 131 987 182 1083 286 C 1179 390 1227 548 1227 760 C 1227 974 1178 1131 1082 1232 C 985 1333 833 1384 625 1384 L 332 1384 L 332 131 L 647 131 Z M 373 1796 L 414 1880 L 735 1749 L 1057 1880 L 1098 1796 L 782 1612 L 688 1612 L 373 1796 Z" unicode="Ď" />
<glyph horiz-adv-x="1300" d="M 559 -18 C 416 -18 304 33 223 136 C 142 238 102 381 102 565 C 102 746 144 889 229 995 C 314 1100 432 1153 582 1153 C 669 1153 749 1132 823 1091 C 897 1049 955 991 999 915 L 999 1589 L 1143 1589 L 1143 0 L 1047 0 L 1008 233 C 964 154 902 92 822 48 C 742 4 655 -18 559 -18 Z M 582 113 C 704 113 804 154 882 237 C 960 319 999 429 999 565 C 999 704 961 814 885 896 C 809 977 708 1018 582 1018 C 475 1018 393 979 337 902 C 280 825 252 713 252 565 C 252 417 280 304 337 228 C 393 151 475 113 582 113 Z M 1441 1466 C 1441 1374 1429 1308 1406 1267 C 1382 1225 1341 1190 1282 1161 L 1239 1237 C 1282 1260 1310 1283 1324 1305 C 1338 1327 1345 1365 1345 1417 L 1245 1417 L 1245 1630 L 1441 1630 L 1441 1466 Z" unicode="ď" />
<glyph horiz-adv-x="1473" d="M 180 721 L 0 721 L 0 854 L 180 854 L 180 1518 L 639 1518 C 887 1518 1073 1455 1196 1330 C 1318 1205 1380 1015 1380 760 C 1380 510 1315 321 1185 193 C 1055 64 863 0 610 0 L 180 0 L 180 721 Z M 332 854 L 649 854 L 649 721 L 332 721 L 332 131 L 647 131 C 841 131 987 182 1083 286 C 1179 390 1227 548 1227 760 C 1227 972 1179 1128 1083 1230 C 987 1331 835 1382 625 1382 L 332 1382 L 332 854 Z" unicode="Đ" />
<glyph horiz-adv-x="1300" d="M 764 1391 L 999 1391 L 999 1589 L 1143 1589 L 1143 1391 L 1300 1391 L 1300 1257 L 1143 1257 L 1143 0 L 1047 0 L 1008 233 C 964 154 902 92 822 48 C 742 4 655 -18 559 -18 C 416 -18 304 33 223 136 C 142 238 102 381 102 565 C 102 746 144 889 229 995 C 314 1100 432 1153 582 1153 C 669 1153 749 1132 823 1091 C 897 1049 955 991 999 915 L 999 1257 L 764 1257 L 764 1391 Z M 582 113 C 704 113 804 154 882 237 C 960 319 999 429 999 565 C 999 704 961 814 885 896 C 809 977 708 1018 582 1018 C 475 1018 393 979 337 902 C 280 825 252 713 252 565 C 252 417 280 304 337 228 C 393 151 475 113 582 113 Z" unicode="đ" />
<glyph horiz-adv-x="1231" d="M 180 1518 L 1104 1518 L 1104 1382 L 332 1382 L 332 834 L 1030 834 L 1030 700 L 332 700 L 332 131 L 1112 131 L 1112 0 L 180 0 L 180 1518 Z M 348 1768 L 880 1768 L 880 1647 L 348 1647 L 348 1768 Z" unicode="Ē" />
<glyph horiz-adv-x="1188" d="M 594 -18 C 442 -18 322 35 234 142 C 146 248 102 389 102 565 C 102 676 123 777 165 867 C 207 957 266 1028 342 1078 C 418 1128 506 1153 604 1153 C 752 1153 865 1109 941 1023 C 1017 937 1055 811 1055 645 L 1055 532 L 253 532 C 259 403 293 301 356 226 C 418 150 502 113 606 113 C 686 113 752 128 805 160 C 858 192 907 243 952 315 L 1069 244 C 1014 152 949 86 874 44 C 798 2 705 -18 594 -18 Z M 604 1020 C 514 1020 438 988 375 925 C 312 861 273 774 258 664 L 905 664 L 905 672 C 905 784 879 870 829 930 C 778 990 703 1020 604 1020 Z M 331 1399 L 863 1399 L 863 1278 L 331 1278 L 331 1399 Z" unicode="ē" />
<glyph horiz-adv-x="1231" d="M 180 1518 L 1104 1518 L 1104 1382 L 332 1382 L 332 834 L 1030 834 L 1030 700 L 332 700 L 332 131 L 1112 131 L 1112 0 L 180 0 L 180 1518 Z M 614 1610 C 508 1610 423 1635 358 1687 C 293 1738 251 1811 233 1905 L 350 1928 C 378 1798 466 1733 614 1733 C 687 1733 746 1749 791 1782 C 835 1814 864 1863 876 1928 L 995 1905 C 973 1809 930 1735 866 1685 C 802 1635 718 1610 614 1610 Z" unicode="Ĕ" />
<glyph horiz-adv-x="1188" d="M 594 -18 C 442 -18 322 35 234 142 C 146 248 102 389 102 565 C 102 676 123 777 165 867 C 207 957 266 1028 342 1078 C 418 1128 506 1153 604 1153 C 752 1153 865 1109 941 1023 C 1017 937 1055 811 1055 645 L 1055 532 L 253 532 C 259 403 293 301 356 226 C 418 150 502 113 606 113 C 686 113 752 128 805 160 C 858 192 907 243 952 315 L 1069 244 C 1014 152 949 86 874 44 C 798 2 705 -18 594 -18 Z M 604 1020 C 514 1020 438 988 375 925 C 312 861 273 774 258 664 L 905 664 L 905 672 C 905 784 879 870 829 930 C 778 990 703 1020 604 1020 Z M 597 1241 C 491 1241 406 1266 341 1318 C 276 1369 234 1442 216 1536 L 333 1559 C 361 1429 449 1364 597 1364 C 670 1364 729 1380 774 1413 C 818 1445 847 1494 859 1559 L 978 1536 C 956 1440 913 1366 849 1316 C 785 1266 701 1241 597 1241 Z" unicode="ĕ" />
<glyph horiz-adv-x="1231" d="M 180 1518 L 1104 1518 L 1104 1382 L 332 1382 L 332 834 L 1030 834 L 1030 700 L 332 700 L 332 131 L 1112 131 L 1112 0 L 180 0 L 180 1518 Z M 538 1862 L 690 1862 L 690 1649 L 538 1649 L 538 1862 Z" unicode="Ė" />
<glyph horiz-adv-x="1188" d="M 594 -18 C 442 -18 322 35 234 142 C 146 248 102 389 102 565 C 102 676 123 777 165 867 C 207 957 266 1028 342 1078 C 418 1128 506 1153 604 1153 C 752 1153 865 1109 941 1023 C 1017 937 1055 811 1055 645 L 1055 532 L 253 532 C 259 403 293 301 356 226 C 418 150 502 113 606 113 C 686 113 752 128 805 160 C 858 192 907 243 952 315 L 1069 244 C 1014 152 949 86 874 44 C 798 2 705 -18 594 -18 Z M 604 1020 C 514 1020 438 988 375 925 C 312 861 273 774 258 664 L 905 664 L 905 672 C 905 784 879 870 829 930 C 778 990 703 1020 604 1020 Z M 521 1493 L 673 1493 L 673 1280 L 521 1280 L 521 1493 Z" unicode="ė" />
<glyph horiz-adv-x="1231" d="M 180 1518 L 1104 1518 L 1104 1382 L 332 1382 L 332 834 L 1030 834 L 1030 700 L 332 700 L 332 131 L 1112 131 L 1112 0 L 180 0 L 180 1518 Z M 971 -405 C 889 -405 827 -389 783 -359 C 739 -328 717 -282 717 -221 C 717 -169 733 -119 765 -69 C 797 -19 841 21 897 55 L 1034 55 C 968 7 919 -35 887 -75 C 855 -115 839 -155 839 -197 C 839 -261 884 -293 975 -293 C 1001 -293 1031 -288 1063 -279 C 1095 -269 1121 -259 1143 -248 L 1194 -346 C 1120 -385 1045 -405 971 -405 Z" unicode="Ę" />
<glyph horiz-adv-x="1188" d="M 594 -18 C 442 -18 322 35 234 142 C 146 248 102 389 102 565 C 102 676 123 777 165 867 C 207 957 266 1028 342 1078 C 418 1128 506 1153 604 1153 C 752 1153 865 1109 941 1023 C 1017 937 1055 811 1055 645 L 1055 532 L 253 532 C 259 403 293 301 356 226 C 418 150 502 113 606 113 C 686 113 752 128 805 160 C 858 192 907 243 952 315 L 1069 244 C 1014 152 949 86 874 44 C 798 2 705 -18 594 -18 Z M 604 1020 C 514 1020 438 988 375 925 C 312 861 273 774 258 664 L 905 664 L 905 672 C 905 784 879 870 829 930 C 778 990 703 1020 604 1020 Z M 715 -405 C 633 -405 571 -389 527 -359 C 483 -328 461 -282 461 -221 C 461 -169 477 -119 509 -69 C 541 -19 585 21 641 55 L 778 55 C 712 7 663 -35 631 -75 C 599 -115 583 -155 583 -197 C 583 -261 628 -293 719 -293 C 745 -293 775 -288 807 -279 C 839 -269 865 -259 887 -248 L 938 -346 C 864 -385 789 -405 715 -405 Z" unicode="ę" />
<glyph horiz-adv-x="1231" d="M 180 1518 L 1104 1518 L 1104 1382 L 332 1382 L 332 834 L 1030 834 L 1030 700 L 332 700 L 332 131 L 1112 131 L 1112 0 L 180 0 L 180 1518 Z M 252 1796 L 293 1880 L 614 1749 L 936 1880 L 977 1796 L 661 1612 L 567 1612 L 252 1796 Z" unicode="Ě" />
<glyph horiz-adv-x="1188" d="M 594 -18 C 442 -18 322 35 234 142 C 146 248 102 389 102 565 C 102 676 123 777 165 867 C 207 957 266 1028 342 1078 C 418 1128 506 1153 604 1153 C 752 1153 865 1109 941 1023 C 1017 937 1055 811 1055 645 L 1055 532 L 253 532 C 259 403 293 301 356 226 C 418 150 502 113 606 113 C 686 113 752 128 805 160 C 858 192 907 243 952 315 L 1069 244 C 1014 152 949 86 874 44 C 798 2 705 -18 594 -18 Z M 604 1020 C 514 1020 438 988 375 925 C 312 861 273 774 258 664 L 905 664 L 905 672 C 905 784 879 870 829 930 C 778 990 703 1020 604 1020 Z M 235 1427 L 276 1511 L 597 1380 L 919 1511 L 960 1427 L 644 1243 L 550 1243 L 235 1427 Z" unicode="ě" />
<glyph horiz-adv-x="1571" d="M 745 -23 C 615 -23 501 7 402 69 C 302 131 226 220 172 337 C 118 453 92 591 92 750 C 92 905 121 1043 181 1164 C 240 1284 322 1377 428 1443 C 534 1509 652 1542 782 1542 C 926 1542 1049 1512 1151 1453 C 1252 1394 1328 1310 1378 1202 L 1243 1137 C 1198 1222 1136 1287 1057 1333 C 977 1378 886 1401 782 1401 C 677 1401 584 1375 503 1323 C 421 1271 358 1197 313 1100 C 268 1002 246 886 246 750 C 246 616 267 501 311 405 C 354 309 415 237 495 187 C 574 137 667 113 774 113 C 868 113 953 135 1029 180 C 1105 225 1164 287 1206 367 C 1248 447 1270 535 1270 633 L 844 633 L 844 764 L 1411 764 L 1411 0 L 1313 0 L 1278 274 C 1232 178 1163 104 1071 53 C 979 2 870 -23 745 -23 Z M 422 1710 L 735 1895 L 831 1895 L 1147 1710 L 1106 1626 L 784 1758 L 463 1626 L 422 1710 Z" unicode="Ĝ" />
<glyph horiz-adv-x="1153" d="M 485 -367 C 345 -367 237 -342 160 -293 C 83 -244 45 -178 45 -94 C 45 -24 68 34 116 82 C 164 130 229 163 313 180 C 277 192 250 212 234 239 C 217 266 209 294 209 324 C 209 377 234 426 285 471 C 181 542 129 643 129 774 C 129 889 168 981 248 1050 C 328 1118 434 1153 567 1153 C 633 1153 694 1145 750 1130 L 1042 1225 L 1077 1075 L 848 1075 C 958 1007 1014 906 1014 774 C 1014 659 973 567 892 499 C 810 431 702 397 567 397 C 501 397 438 406 379 426 C 354 401 342 375 342 348 C 342 324 349 307 364 297 C 378 287 402 279 436 274 C 470 268 526 264 606 260 C 744 254 848 242 916 223 C 984 203 1033 173 1063 133 C 1093 93 1108 36 1108 -37 C 1108 -146 1056 -228 952 -284 C 848 -339 692 -367 485 -367 Z M 485 -238 C 643 -238 762 -222 843 -191 C 924 -159 965 -108 965 -37 C 965 17 949 56 919 78 C 888 100 836 116 764 124 C 692 132 615 137 533 137 C 433 137 352 118 289 80 C 226 42 195 -7 195 -68 C 195 -181 291 -238 485 -238 Z M 567 520 C 664 520 739 542 793 587 C 847 631 874 694 874 774 C 874 852 847 914 794 958 C 740 1002 665 1024 567 1024 C 472 1024 398 1001 344 957 C 290 913 264 852 264 774 C 264 694 291 632 345 587 C 399 542 473 520 567 520 Z M 214 1341 L 527 1526 L 623 1526 L 939 1341 L 898 1257 L 576 1389 L 255 1257 L 214 1341 Z" unicode="ĝ" />
<glyph horiz-adv-x="1571" d="M 745 -23 C 615 -23 501 7 402 69 C 302 131 226 220 172 337 C 118 453 92 591 92 750 C 92 905 121 1043 181 1164 C 240 1284 322 1377 428 1443 C 534 1509 652 1542 782 1542 C 926 1542 1049 1512 1151 1453 C 1252 1394 1328 1310 1378 1202 L 1243 1137 C 1198 1222 1136 1287 1057 1333 C 977 1378 886 1401 782 1401 C 677 1401 584 1375 503 1323 C 421 1271 358 1197 313 1100 C 268 1002 246 886 246 750 C 246 616 267 501 311 405 C 354 309 415 237 495 187 C 574 137 667 113 774 113 C 868 113 953 135 1029 180 C 1105 225 1164 287 1206 367 C 1248 447 1270 535 1270 633 L 844 633 L 844 764 L 1411 764 L 1411 0 L 1313 0 L 1278 274 C 1232 178 1163 104 1071 53 C 979 2 870 -23 745 -23 Z M 784 1610 C 678 1610 593 1635 528 1687 C 463 1738 421 1811 403 1905 L 520 1928 C 548 1798 636 1733 784 1733 C 857 1733 916 1749 961 1782 C 1005 1814 1034 1863 1046 1928 L 1165 1905 C 1143 1809 1100 1735 1036 1685 C 972 1635 888 1610 784 1610 Z" unicode="Ğ" />
<glyph horiz-adv-x="1153" d="M 485 -367 C 345 -367 237 -342 160 -293 C 83 -244 45 -178 45 -94 C 45 -24 68 34 116 82 C 164 130 229 163 313 180 C 277 192 250 212 234 239 C 217 266 209 294 209 324 C 209 377 234 426 285 471 C 181 542 129 643 129 774 C 129 889 168 981 248 1050 C 328 1118 434 1153 567 1153 C 633 1153 694 1145 750 1130 L 1042 1225 L 1077 1075 L 848 1075 C 958 1007 1014 906 1014 774 C 1014 659 973 567 892 499 C 810 431 702 397 567 397 C 501 397 438 406 379 426 C 354 401 342 375 342 348 C 342 324 349 307 364 297 C 378 287 402 279 436 274 C 470 268 526 264 606 260 C 744 254 848 242 916 223 C 984 203 1033 173 1063 133 C 1093 93 1108 36 1108 -37 C 1108 -146 1056 -228 952 -284 C 848 -339 692 -367 485 -367 Z M 485 -238 C 643 -238 762 -222 843 -191 C 924 -159 965 -108 965 -37 C 965 17 949 56 919 78 C 888 100 836 116 764 124 C 692 132 615 137 533 137 C 433 137 352 118 289 80 C 226 42 195 -7 195 -68 C 195 -181 291 -238 485 -238 Z M 567 520 C 664 520 739 542 793 587 C 847 631 874 694 874 774 C 874 852 847 914 794 958 C 740 1002 665 1024 567 1024 C 472 1024 398 1001 344 957 C 290 913 264 852 264 774 C 264 694 291 632 345 587 C 399 542 473 520 567 520 Z M 576 1241 C 470 1241 385 1266 320 1318 C 255 1369 213 1442 195 1536 L 312 1559 C 340 1429 428 1364 576 1364 C 649 1364 708 1380 753 1413 C 797 1445 826 1494 838 1559 L 957 1536 C 935 1440 892 1366 828 1316 C 764 1266 680 1241 576 1241 Z" unicode="ğ" />
<glyph horiz-adv-x="1571" d="M 745 -23 C 615 -23 501 7 402 69 C 302 131 226 220 172 337 C 118 453 92 591 92 750 C 92 905 121 1043 181 1164 C 240 1284 322 1377 428 1443 C 534 1509 652 1542 782 1542 C 926 1542 1049 1512 1151 1453 C 1252 1394 1328 1310 1378 1202 L 1243 1137 C 1198 1222 1136 1287 1057 1333 C 977 1378 886 1401 782 1401 C 677 1401 584 1375 503 1323 C 421 1271 358 1197 313 1100 C 268 1002 246 886 246 750 C 246 616 267 501 311 405 C 354 309 415 237 495 187 C 574 137 667 113 774 113 C 868 113 953 135 1029 180 C 1105 225 1164 287 1206 367 C 1248 447 1270 535 1270 633 L 844 633 L 844 764 L 1411 764 L 1411 0 L 1313 0 L 1278 274 C 1232 178 1163 104 1071 53 C 979 2 870 -23 745 -23 Z M 708 1862 L 860 1862 L 860 1649 L 708 1649 L 708 1862 Z" unicode="Ġ" />
<glyph horiz-adv-x="1153" d="M 485 -367 C 345 -367 237 -342 160 -293 C 83 -244 45 -178 45 -94 C 45 -24 68 34 116 82 C 164 130 229 163 313 180 C 277 192 250 212 234 239 C 217 266 209 294 209 324 C 209 377 234 426 285 471 C 181 542 129 643 129 774 C 129 889 168 981 248 1050 C 328 1118 434 1153 567 1153 C 633 1153 694 1145 750 1130 L 1042 1225 L 1077 1075 L 848 1075 C 958 1007 1014 906 1014 774 C 1014 659 973 567 892 499 C 810 431 702 397 567 397 C 501 397 438 406 379 426 C 354 401 342 375 342 348 C 342 324 349 307 364 297 C 378 287 402 279 436 274 C 470 268 526 264 606 260 C 744 254 848 242 916 223 C 984 203 1033 173 1063 133 C 1093 93 1108 36 1108 -37 C 1108 -146 1056 -228 952 -284 C 848 -339 692 -367 485 -367 Z M 485 -238 C 643 -238 762 -222 843 -191 C 924 -159 965 -108 965 -37 C 965 17 949 56 919 78 C 888 100 836 116 764 124 C 692 132 615 137 533 137 C 433 137 352 118 289 80 C 226 42 195 -7 195 -68 C 195 -181 291 -238 485 -238 Z M 567 520 C 664 520 739 542 793 587 C 847 631 874 694 874 774 C 874 852 847 914 794 958 C 740 1002 665 1024 567 1024 C 472 1024 398 1001 344 957 C 290 913 264 852 264 774 C 264 694 291 632 345 587 C 399 542 473 520 567 520 Z M 500 1493 L 652 1493 L 652 1280 L 500 1280 L 500 1493 Z" unicode="ġ" />
<glyph horiz-adv-x="1571" d="M 745 -23 C 615 -23 501 7 402 69 C 302 131 226 220 172 337 C 118 453 92 591 92 750 C 92 905 121 1043 181 1164 C 240 1284 322 1377 428 1443 C 534 1509 652 1542 782 1542 C 926 1542 1049 1512 1151 1453 C 1252 1394 1328 1310 1378 1202 L 1243 1137 C 1198 1222 1136 1287 1057 1333 C 977 1378 886 1401 782 1401 C 677 1401 584 1375 503 1323 C 421 1271 358 1197 313 1100 C 268 1002 246 886 246 750 C 246 616 267 501 311 405 C 354 309 415 237 495 187 C 574 137 667 113 774 113 C 868 113 953 135 1029 180 C 1105 225 1164 287 1206 367 C 1248 447 1270 535 1270 633 L 844 633 L 844 764 L 1411 764 L 1411 0 L 1313 0 L 1278 274 C 1232 178 1163 104 1071 53 C 979 2 870 -23 745 -23 Z M 882 -252 C 882 -343 870 -409 847 -451 C 823 -492 782 -527 723 -557 L 680 -481 C 723 -457 751 -434 765 -412 C 779 -390 786 -353 786 -301 L 686 -301 L 686 -88 L 882 -88 L 882 -252 Z" unicode="Ģ" />
<glyph horiz-adv-x="1153" d="M 485 -367 C 345 -367 237 -342 160 -293 C 83 -244 45 -178 45 -94 C 45 -24 68 34 116 82 C 164 130 229 163 313 180 C 277 192 250 212 234 239 C 217 266 209 294 209 324 C 209 377 234 426 285 471 C 181 542 129 643 129 774 C 129 889 168 981 248 1050 C 328 1118 434 1153 567 1153 C 633 1153 694 1145 750 1130 L 1042 1225 L 1077 1075 L 848 1075 C 958 1007 1014 906 1014 774 C 1014 659 973 567 892 499 C 810 431 702 397 567 397 C 501 397 438 406 379 426 C 354 401 342 375 342 348 C 342 324 349 307 364 297 C 378 287 402 279 436 274 C 470 268 526 264 606 260 C 744 254 848 242 916 223 C 984 203 1033 173 1063 133 C 1093 93 1108 36 1108 -37 C 1108 -146 1056 -228 952 -284 C 848 -339 692 -367 485 -367 Z M 485 -238 C 643 -238 762 -222 843 -191 C 924 -159 965 -108 965 -37 C 965 17 949 56 919 78 C 888 100 836 116 764 124 C 692 132 615 137 533 137 C 433 137 352 118 289 80 C 226 42 195 -7 195 -68 C 195 -181 291 -238 485 -238 Z M 567 520 C 664 520 739 542 793 587 C 847 631 874 694 874 774 C 874 852 847 914 794 958 C 740 1002 665 1024 567 1024 C 472 1024 398 1001 344 957 C 290 913 264 852 264 774 C 264 694 291 632 345 587 C 399 542 473 520 567 520 Z M 478 1444 C 478 1534 489 1599 511 1640 C 533 1680 576 1717 638 1749 L 681 1673 C 635 1647 605 1623 593 1600 C 580 1576 574 1541 574 1493 L 674 1493 L 674 1280 L 478 1280 L 478 1444 Z" unicode="ģ" />
<glyph horiz-adv-x="1561" d="M 180 1518 L 332 1518 L 332 848 L 1229 848 L 1229 1518 L 1380 1518 L 1380 0 L 1229 0 L 1229 713 L 332 713 L 332 0 L 180 0 L 180 1518 Z M 418 1710 L 731 1895 L 827 1895 L 1143 1710 L 1102 1626 L 780 1758 L 459 1626 L 418 1710 Z" unicode="Ĥ" />
<glyph horiz-adv-x="1233" d="M 158 1589 L 301 1589 L 301 956 C 335 1016 387 1063 457 1099 C 527 1135 606 1153 696 1153 C 829 1153 927 1117 989 1046 C 1051 975 1083 858 1083 694 L 1083 0 L 940 0 L 940 670 C 940 798 918 888 876 940 C 834 992 763 1018 664 1018 C 546 1018 456 987 394 925 C 332 863 301 773 301 653 L 301 0 L 158 0 L 158 1589 Z M -132 1710 L 181 1895 L 277 1895 L 593 1710 L 552 1626 L 230 1758 L -91 1626 L -132 1710 Z" unicode="ĥ" />
<glyph horiz-adv-x="1561" d="M 0 1126 L 180 1126 L 180 1518 L 332 1518 L 332 1126 L 1229 1126 L 1229 1518 L 1380 1518 L 1380 1126 L 1561 1126 L 1561 993 L 1380 993 L 1380 0 L 1229 0 L 1229 713 L 332 713 L 332 0 L 180 0 L 180 993 L 0 993 L 0 1126 Z M 1229 848 L 1229 993 L 332 993 L 332 848 L 1229 848 Z" unicode="Ħ" />
<glyph horiz-adv-x="1233" d="M 0 1391 L 158 1391 L 158 1589 L 301 1589 L 301 1391 L 537 1391 L 537 1257 L 301 1257 L 301 956 C 335 1016 387 1063 457 1099 C 527 1135 606 1153 696 1153 C 829 1153 927 1117 989 1046 C 1051 975 1083 858 1083 694 L 1083 0 L 940 0 L 940 670 C 940 798 918 888 876 940 C 834 992 763 1018 664 1018 C 546 1018 456 987 394 925 C 332 863 301 773 301 653 L 301 0 L 158 0 L 158 1257 L 0 1257 L 0 1391 Z" unicode="ħ" />
<glyph horiz-adv-x="561" d="M 205 1518 L 356 1518 L 356 0 L 205 0 L 205 1518 Z M -124 1727 C -77 1782 -31 1824 14 1854 C 60 1884 102 1899 140 1899 C 176 1899 206 1892 231 1880 C 255 1868 278 1854 298 1839 C 318 1824 337 1810 355 1798 C 373 1786 393 1780 416 1780 C 464 1780 522 1820 592 1901 L 687 1829 C 643 1777 598 1735 551 1704 C 504 1672 462 1657 425 1657 C 394 1657 367 1663 343 1675 C 319 1687 297 1701 277 1716 C 256 1731 235 1745 215 1757 C 195 1769 172 1776 148 1776 C 124 1776 94 1763 60 1739 C 25 1714 -4 1685 -30 1653 L -124 1727 Z" unicode="Ĩ" />
<glyph horiz-adv-x="471" d="M 164 1126 L 307 1126 L 307 0 L 164 0 L 164 1126 Z M -169 1358 C -122 1413 -76 1455 -30 1485 C 15 1515 57 1530 95 1530 C 131 1530 161 1523 186 1511 C 210 1499 233 1485 253 1470 C 273 1455 292 1441 310 1429 C 328 1417 348 1411 371 1411 C 419 1411 477 1451 547 1532 L 642 1460 C 598 1408 553 1366 506 1335 C 459 1303 417 1288 380 1288 C 349 1288 322 1294 298 1306 C 274 1318 252 1332 232 1347 C 211 1362 190 1376 170 1388 C 150 1400 127 1407 103 1407 C 79 1407 49 1394 15 1370 C -19 1345 -49 1316 -75 1284 L -169 1358 Z" unicode="ĩ" />
<glyph horiz-adv-x="561" d="M 205 1518 L 356 1518 L 356 0 L 205 0 L 205 1518 Z M 15 1768 L 547 1768 L 547 1647 L 15 1647 L 15 1768 Z" unicode="Ī" />
<glyph horiz-adv-x="471" d="M 164 1126 L 307 1126 L 307 0 L 164 0 L 164 1126 Z M -30 1399 L 502 1399 L 502 1278 L -30 1278 L -30 1399 Z" unicode="ī" />
<glyph horiz-adv-x="561" d="M 205 1518 L 356 1518 L 356 0 L 205 0 L 205 1518 Z M 281 1610 C 175 1610 90 1635 25 1687 C -39 1738 -81 1811 -100 1905 L 17 1928 C 45 1798 133 1733 281 1733 C 354 1733 413 1749 458 1782 C 502 1814 531 1863 543 1928 L 662 1905 C 640 1809 597 1735 533 1685 C 469 1635 385 1610 281 1610 Z" unicode="Ĭ" />
<glyph horiz-adv-x="471" d="M 164 1126 L 307 1126 L 307 0 L 164 0 L 164 1126 Z M 236 1241 C 130 1241 45 1266 -19 1318 C -84 1369 -126 1442 -145 1536 L -28 1559 C 0 1429 88 1364 236 1364 C 309 1364 368 1380 413 1413 C 457 1445 486 1494 498 1559 L 617 1536 C 595 1440 552 1366 488 1316 C 424 1266 340 1241 236 1241 Z" unicode="ĭ" />
<glyph horiz-adv-x="561" d="M 205 1518 L 356 1518 L 356 0 L 205 0 L 205 1518 Z M 286 -405 C 204 -405 142 -389 98 -359 C 54 -328 32 -282 32 -221 C 32 -169 48 -119 80 -69 C 112 -19 156 21 212 55 L 349 55 C 283 7 234 -35 202 -75 C 170 -115 154 -155 154 -197 C 154 -261 199 -293 290 -293 C 316 -293 346 -288 378 -279 C 410 -269 436 -259 458 -248 L 509 -346 C 435 -385 360 -405 286 -405 Z" unicode="Į" />
<glyph horiz-adv-x="471" d="M 164 1126 L 307 1126 L 307 0 L 164 0 L 164 1126 Z M 156 1473 L 315 1473 L 315 1280 L 156 1280 L 156 1473 Z M 243 -405 C 161 -405 99 -389 55 -359 C 11 -328 -11 -282 -11 -221 C -11 -169 5 -119 37 -69 C 69 -19 113 21 169 55 L 306 55 C 240 7 191 -35 159 -75 C 127 -115 111 -155 111 -197 C 111 -261 156 -293 247 -293 C 273 -293 303 -288 335 -279 C 367 -269 393 -259 415 -248 L 466 -346 C 392 -385 317 -405 243 -405 Z" unicode="į" />
<glyph horiz-adv-x="561" d="M 205 1518 L 356 1518 L 356 0 L 205 0 L 205 1518 Z M 205 1862 L 357 1862 L 357 1649 L 205 1649 L 205 1862 Z" unicode="İ" />
<glyph horiz-adv-x="471" d="M 164 1126 L 307 1126 L 307 0 L 164 0 L 164 1126 Z" unicode="ı" />
<glyph horiz-adv-x="1305" d="M 205 1518 L 356 1518 L 356 0 L 205 0 L 205 1518 Z M 760 -18 C 654 -18 565 -8 492 12 L 528 150 C 580 137 621 129 651 125 C 681 121 716 119 758 119 C 838 119 896 143 932 191 C 967 239 985 316 985 422 L 985 1518 L 1137 1518 L 1137 422 C 1137 277 1104 167 1039 93 C 974 19 881 -18 760 -18 Z" unicode="Ĳ" />
<glyph horiz-adv-x="942" d="M 164 1126 L 307 1126 L 307 0 L 164 0 L 164 1126 Z M 156 1473 L 315 1473 L 315 1280 L 156 1280 L 156 1473 Z M 383 -213 C 425 -218 470 -221 518 -221 C 560 -221 590 -209 608 -187 C 626 -165 635 -124 635 -66 L 635 1126 L 778 1126 L 778 -74 C 778 -169 755 -240 711 -286 C 667 -332 597 -356 502 -356 C 453 -356 408 -352 367 -346 L 383 -213 Z M 627 1473 L 786 1473 L 786 1280 L 627 1280 L 627 1473 Z" unicode="ĳ" />
<glyph horiz-adv-x="948" d="M 362 -18 C 266 -18 163 -2 53 29 L 94 166 C 145 151 191 139 232 131 C 273 123 316 119 360 119 C 458 119 527 143 568 192 C 608 240 629 317 629 422 L 629 1518 L 780 1518 L 780 422 C 780 128 640 -18 362 -18 Z M 336 1710 L 649 1895 L 745 1895 L 1061 1710 L 1020 1626 L 698 1758 L 377 1626 L 336 1710 Z" unicode="Ĵ" />
<glyph horiz-adv-x="471" d="M -88 -213 C -45 -218 0 -221 47 -221 C 89 -221 119 -209 137 -187 C 155 -165 164 -124 164 -66 L 164 1126 L 307 1126 L 307 -74 C 307 -169 284 -240 240 -286 C 196 -332 126 -356 31 -356 C -17 -356 -62 -352 -104 -346 L -88 -213 Z M -127 1341 L 186 1526 L 282 1526 L 598 1341 L 557 1257 L 235 1389 L -86 1257 L -127 1341 Z" unicode="ĵ" />
<glyph horiz-adv-x="1436" d="M 180 1518 L 330 1518 L 330 655 L 1110 1518 L 1282 1518 L 748 926 L 1356 0 L 1188 0 L 647 815 L 330 465 L 330 0 L 180 0 L 180 1518 Z M 815 -252 C 815 -343 803 -409 780 -451 C 756 -492 715 -527 656 -557 L 613 -481 C 656 -457 684 -434 698 -412 C 712 -390 719 -353 719 -301 L 619 -301 L 619 -88 L 815 -88 L 815 -252 Z" unicode="Ķ" />
<glyph horiz-adv-x="1087" d="M 158 1589 L 301 1589 L 301 524 L 811 1126 L 969 1126 L 582 668 L 1044 0 L 877 0 L 487 559 L 301 340 L 301 0 L 158 0 L 158 1589 Z M 642 -252 C 642 -343 630 -409 607 -451 C 583 -492 542 -527 483 -557 L 440 -481 C 483 -457 511 -434 525 -412 C 539 -390 546 -353 546 -301 L 446 -301 L 446 -88 L 642 -88 L 642 -252 Z" unicode="ķ" />
<glyph horiz-adv-x="1145" d="M 180 1518 L 332 1518 L 332 131 L 1087 131 L 1087 0 L 180 0 L 180 1518 Z M 59 1694 L 552 1948 L 610 1817 L 102 1604 L 59 1694 Z" unicode="Ĺ" />
<glyph horiz-adv-x="471" d="M 164 1589 L 307 1589 L 307 0 L 164 0 L 164 1589 Z M 34 1696 L 527 1950 L 585 1819 L 77 1606 L 34 1696 Z" unicode="ĺ" />
<glyph horiz-adv-x="1145" d="M 180 1518 L 332 1518 L 332 131 L 1087 131 L 1087 0 L 180 0 L 180 1518 Z M 670 -252 C 670 -343 658 -409 635 -451 C 611 -492 570 -527 511 -557 L 468 -481 C 511 -457 539 -434 553 -412 C 567 -390 574 -353 574 -301 L 474 -301 L 474 -88 L 670 -88 L 670 -252 Z" unicode="Ļ" />
<glyph horiz-adv-x="471" d="M 164 1589 L 307 1589 L 307 0 L 164 0 L 164 1589 Z M 334 -252 C 334 -343 322 -409 299 -451 C 275 -492 234 -527 175 -557 L 132 -481 C 175 -457 203 -434 217 -412 C 231 -390 238 -353 238 -301 L 138 -301 L 138 -88 L 334 -88 L 334 -252 Z" unicode="ļ" />
<glyph horiz-adv-x="1145" d="M 180 1518 L 332 1518 L 332 131 L 1087 131 L 1087 0 L 180 0 L 180 1518 Z M 858 1425 C 858 1333 846 1267 823 1226 C 799 1184 758 1149 699 1120 L 656 1196 C 699 1219 727 1242 741 1264 C 755 1286 762 1324 762 1376 L 662 1376 L 662 1589 L 858 1589 L 858 1425 Z" unicode="Ľ" />
<glyph horiz-adv-x="471" d="M 164 1589 L 307 1589 L 307 0 L 164 0 L 164 1589 Z M 607 1466 C 607 1374 595 1308 572 1267 C 548 1225 507 1190 448 1161 L 405 1237 C 448 1260 476 1283 490 1305 C 504 1327 511 1365 511 1417 L 411 1417 L 411 1630 L 607 1630 L 607 1466 Z" unicode="ľ" />
<glyph horiz-adv-x="1145" d="M 180 1518 L 332 1518 L 332 131 L 1087 131 L 1087 0 L 180 0 L 180 1518 Z M 745 1007 L 897 1007 L 897 794 L 745 794 L 745 1007 Z" unicode="Ŀ" />
<glyph horiz-adv-x="573" d="M 164 1589 L 307 1589 L 307 0 L 164 0 L 164 1589 Z M 445 871 L 597 871 L 597 658 L 445 658 L 445 871 Z" unicode="ŀ" />
<glyph horiz-adv-x="1145" d="M 20 731 L 180 788 L 180 1518 L 332 1518 L 332 844 L 633 952 L 633 815 L 332 707 L 332 131 L 1087 131 L 1087 0 L 180 0 L 180 651 L 20 594 L 20 731 Z" unicode="Ł" />
<glyph horiz-adv-x="565" d="M 211 956 L -4 879 L -4 1016 L 211 1094 L 211 1589 L 354 1589 L 354 1145 L 567 1221 L 567 1083 L 354 1008 L 354 0 L 211 0 L 211 956 Z" unicode="ł" />
<glyph horiz-adv-x="1561" d="M 180 1518 L 373 1518 L 1237 238 L 1237 1518 L 1380 1518 L 1380 0 L 1235 0 L 324 1348 L 324 0 L 180 0 L 180 1518 Z M 506 1694 L 999 1948 L 1057 1817 L 549 1604 L 506 1694 Z" unicode="Ń" />
<glyph horiz-adv-x="1233" d="M 158 1126 L 254 1126 L 287 930 C 318 1000 371 1054 445 1094 C 519 1133 603 1153 696 1153 C 829 1153 927 1117 989 1046 C 1051 975 1083 858 1083 694 L 1083 0 L 940 0 L 940 670 C 940 798 918 888 876 940 C 834 992 763 1018 664 1018 C 546 1018 456 987 394 925 C 332 863 301 773 301 653 L 301 0 L 158 0 L 158 1126 Z M 342 1325 L 835 1579 L 893 1448 L 385 1235 L 342 1325 Z" unicode="ń" />
<glyph horiz-adv-x="1561" d="M 180 1518 L 373 1518 L 1237 238 L 1237 1518 L 1380 1518 L 1380 0 L 1235 0 L 324 1348 L 324 0 L 180 0 L 180 1518 Z M 878 -252 C 878 -343 866 -409 843 -451 C 819 -492 778 -527 719 -557 L 676 -481 C 719 -457 747 -434 761 -412 C 775 -390 782 -353 782 -301 L 682 -301 L 682 -88 L 878 -88 L 878 -252 Z" unicode="Ņ" />
<glyph horiz-adv-x="1233" d="M 158 1126 L 254 1126 L 287 930 C 318 1000 371 1054 445 1094 C 519 1133 603 1153 696 1153 C 829 1153 927 1117 989 1046 C 1051 975 1083 858 1083 694 L 1083 0 L 940 0 L 940 670 C 940 798 918 888 876 940 C 834 992 763 1018 664 1018 C 546 1018 456 987 394 925 C 332 863 301 773 301 653 L 301 0 L 158 0 L 158 1126 Z M 714 -252 C 714 -343 702 -409 679 -451 C 655 -492 614 -527 555 -557 L 512 -481 C 555 -457 583 -434 597 -412 C 611 -390 618 -353 618 -301 L 518 -301 L 518 -88 L 714 -88 L 714 -252 Z" unicode="ņ" />
<glyph horiz-adv-x="1561" d="M 180 1518 L 373 1518 L 1237 238 L 1237 1518 L 1380 1518 L 1380 0 L 1235 0 L 324 1348 L 324 0 L 180 0 L 180 1518 Z M 418 1796 L 459 1880 L 780 1749 L 1102 1880 L 1143 1796 L 827 1612 L 733 1612 L 418 1796 Z" unicode="Ň" />
<glyph horiz-adv-x="1233" d="M 158 1126 L 254 1126 L 287 930 C 318 1000 371 1054 445 1094 C 519 1133 603 1153 696 1153 C 829 1153 927 1117 989 1046 C 1051 975 1083 858 1083 694 L 1083 0 L 940 0 L 940 670 C 940 798 918 888 876 940 C 834 992 763 1018 664 1018 C 546 1018 456 987 394 925 C 332 863 301 773 301 653 L 301 0 L 158 0 L 158 1126 Z M 254 1427 L 295 1511 L 616 1380 L 938 1511 L 979 1427 L 663 1243 L 569 1243 L 254 1427 Z" unicode="ň" />
<glyph horiz-adv-x="1561" d="M 1004 -342 C 907 -342 804 -326 694 -295 L 735 -158 C 786 -172 832 -183 873 -192 C 914 -200 957 -205 1001 -205 C 1070 -205 1123 -189 1161 -157 C 1198 -125 1223 -73 1235 0 L 324 1348 L 324 0 L 180 0 L 180 1518 L 373 1518 L 1237 238 L 1237 1518 L 1380 1518 L 1380 98 C 1380 -53 1348 -164 1285 -235 C 1222 -306 1128 -342 1004 -342 Z" unicode="Ŋ" />
<glyph horiz-adv-x="1233" d="M 688 -213 C 730 -218 775 -221 823 -221 C 865 -221 895 -209 913 -187 C 931 -165 940 -124 940 -66 L 940 670 C 940 798 918 888 876 940 C 834 992 763 1018 664 1018 C 546 1018 456 987 394 925 C 332 863 301 773 301 653 L 301 0 L 158 0 L 158 1126 L 254 1126 L 287 930 C 318 1000 371 1054 445 1094 C 519 1133 603 1153 696 1153 C 829 1153 927 1117 989 1046 C 1051 975 1083 858 1083 694 L 1083 -74 C 1083 -169 1060 -240 1016 -286 C 972 -332 902 -356 807 -356 C 758 -356 713 -352 672 -346 L 688 -213 Z" unicode="ŋ" />
<glyph horiz-adv-x="1640" d="M 821 -25 C 687 -25 563 8 450 74 C 336 140 248 233 186 352 C 123 470 92 606 92 760 C 92 910 122 1043 183 1161 C 244 1279 331 1372 445 1440 C 558 1508 683 1542 821 1542 C 955 1542 1078 1509 1190 1444 C 1302 1378 1389 1286 1453 1168 C 1516 1050 1548 914 1548 760 C 1548 605 1516 468 1453 349 C 1389 230 1302 138 1190 73 C 1078 7 955 -25 821 -25 Z M 821 113 C 930 113 1030 140 1120 195 C 1210 249 1278 325 1325 422 C 1371 519 1395 632 1395 760 C 1395 891 1370 1005 1321 1101 C 1272 1197 1204 1271 1116 1323 C 1028 1375 929 1401 821 1401 C 709 1401 609 1374 520 1320 C 430 1266 362 1190 316 1094 C 269 997 246 886 246 760 C 246 633 269 521 315 424 C 361 327 430 251 520 196 C 610 140 710 113 821 113 Z M 553 1768 L 1085 1768 L 1085 1647 L 553 1647 L 553 1768 Z" unicode="Ō" />
<glyph horiz-adv-x="1257" d="M 629 -23 C 525 -23 433 2 353 52 C 273 102 211 173 167 263 C 123 353 102 454 102 565 C 102 676 123 776 167 866 C 211 956 273 1026 353 1077 C 433 1127 525 1153 629 1153 C 731 1153 822 1128 902 1078 C 982 1028 1045 957 1089 866 C 1133 775 1155 675 1155 565 C 1155 454 1132 353 1088 262 C 1043 171 981 101 901 51 C 821 1 730 -23 629 -23 Z M 629 113 C 704 113 770 132 828 171 C 886 209 930 263 961 333 C 992 402 1008 479 1008 565 C 1008 699 973 808 904 892 C 834 976 743 1018 629 1018 C 514 1018 422 976 353 892 C 284 808 250 699 250 565 C 250 431 284 323 353 239 C 421 155 513 113 629 113 Z M 363 1399 L 895 1399 L 895 1278 L 363 1278 L 363 1399 Z" unicode="ō" />
<glyph horiz-adv-x="1640" d="M 821 -25 C 687 -25 563 8 450 74 C 336 140 248 233 186 352 C 123 470 92 606 92 760 C 92 910 122 1043 183 1161 C 244 1279 331 1372 445 1440 C 558 1508 683 1542 821 1542 C 955 1542 1078 1509 1190 1444 C 1302 1378 1389 1286 1453 1168 C 1516 1050 1548 914 1548 760 C 1548 605 1516 468 1453 349 C 1389 230 1302 138 1190 73 C 1078 7 955 -25 821 -25 Z M 821 113 C 930 113 1030 140 1120 195 C 1210 249 1278 325 1325 422 C 1371 519 1395 632 1395 760 C 1395 891 1370 1005 1321 1101 C 1272 1197 1204 1271 1116 1323 C 1028 1375 929 1401 821 1401 C 709 1401 609 1374 520 1320 C 430 1266 362 1190 316 1094 C 269 997 246 886 246 760 C 246 633 269 521 315 424 C 361 327 430 251 520 196 C 610 140 710 113 821 113 Z M 819 1610 C 713 1610 628 1635 563 1687 C 498 1738 456 1811 438 1905 L 555 1928 C 583 1798 671 1733 819 1733 C 892 1733 951 1749 996 1782 C 1040 1814 1069 1863 1081 1928 L 1200 1905 C 1178 1809 1135 1735 1071 1685 C 1007 1635 923 1610 819 1610 Z" unicode="Ŏ" />
<glyph horiz-adv-x="1257" d="M 629 -23 C 525 -23 433 2 353 52 C 273 102 211 173 167 263 C 123 353 102 454 102 565 C 102 676 123 776 167 866 C 211 956 273 1026 353 1077 C 433 1127 525 1153 629 1153 C 731 1153 822 1128 902 1078 C 982 1028 1045 957 1089 866 C 1133 775 1155 675 1155 565 C 1155 454 1132 353 1088 262 C 1043 171 981 101 901 51 C 821 1 730 -23 629 -23 Z M 629 113 C 704 113 770 132 828 171 C 886 209 930 263 961 333 C 992 402 1008 479 1008 565 C 1008 699 973 808 904 892 C 834 976 743 1018 629 1018 C 514 1018 422 976 353 892 C 284 808 250 699 250 565 C 250 431 284 323 353 239 C 421 155 513 113 629 113 Z M 629 1241 C 523 1241 438 1266 373 1318 C 308 1369 266 1442 248 1536 L 365 1559 C 393 1429 481 1364 629 1364 C 702 1364 761 1380 806 1413 C 850 1445 879 1494 891 1559 L 1010 1536 C 988 1440 945 1366 881 1316 C 817 1266 733 1241 629 1241 Z" unicode="ŏ" />
<glyph horiz-adv-x="1640" d="M 821 -25 C 687 -25 563 8 450 74 C 336 140 248 233 186 352 C 123 470 92 606 92 760 C 92 910 122 1043 183 1161 C 244 1279 331 1372 445 1440 C 558 1508 683 1542 821 1542 C 955 1542 1078 1509 1190 1444 C 1302 1378 1389 1286 1453 1168 C 1516 1050 1548 914 1548 760 C 1548 605 1516 468 1453 349 C 1389 230 1302 138 1190 73 C 1078 7 955 -25 821 -25 Z M 821 113 C 930 113 1030 140 1120 195 C 1210 249 1278 325 1325 422 C 1371 519 1395 632 1395 760 C 1395 891 1370 1005 1321 1101 C 1272 1197 1204 1271 1116 1323 C 1028 1375 929 1401 821 1401 C 709 1401 609 1374 520 1320 C 430 1266 362 1190 316 1094 C 269 997 246 886 246 760 C 246 633 269 521 315 424 C 361 327 430 251 520 196 C 610 140 710 113 821 113 Z M 502 1684 L 750 2016 L 864 1917 L 584 1616 L 502 1684 Z M 889 1684 L 1137 2016 L 1251 1917 L 971 1616 L 889 1684 Z" unicode="Ő" />
<glyph horiz-adv-x="1257" d="M 629 -23 C 525 -23 433 2 353 52 C 273 102 211 173 167 263 C 123 353 102 454 102 565 C 102 676 123 776 167 866 C 211 956 273 1026 353 1077 C 433 1127 525 1153 629 1153 C 731 1153 822 1128 902 1078 C 982 1028 1045 957 1089 866 C 1133 775 1155 675 1155 565 C 1155 454 1132 353 1088 262 C 1043 171 981 101 901 51 C 821 1 730 -23 629 -23 Z M 629 113 C 704 113 770 132 828 171 C 886 209 930 263 961 333 C 992 402 1008 479 1008 565 C 1008 699 973 808 904 892 C 834 976 743 1018 629 1018 C 514 1018 422 976 353 892 C 284 808 250 699 250 565 C 250 431 284 323 353 239 C 421 155 513 113 629 113 Z M 312 1315 L 560 1647 L 674 1548 L 394 1247 L 312 1315 Z M 699 1315 L 947 1647 L 1061 1548 L 781 1247 L 699 1315 Z" unicode="ő" />
<glyph horiz-adv-x="2433" d="M 821 -25 C 687 -25 563 8 450 74 C 336 140 248 233 186 352 C 123 470 92 606 92 760 C 92 910 122 1043 183 1161 C 244 1279 331 1372 445 1440 C 558 1508 683 1542 821 1542 C 942 1542 1053 1514 1153 1458 C 1253 1402 1333 1323 1395 1219 L 1395 1518 L 2306 1518 L 2306 1382 L 1534 1382 L 1534 834 L 2232 834 L 2232 700 L 1534 700 L 1534 131 L 2314 131 L 2314 0 L 1395 0 L 1395 297 C 1335 195 1254 115 1154 59 C 1053 3 942 -25 821 -25 Z M 821 113 C 930 113 1030 140 1120 195 C 1210 249 1278 325 1325 422 C 1371 519 1395 632 1395 760 C 1395 891 1370 1005 1321 1101 C 1272 1197 1204 1271 1116 1323 C 1028 1375 929 1401 821 1401 C 709 1401 609 1374 520 1320 C 430 1266 362 1190 316 1094 C 269 997 246 886 246 760 C 246 633 269 521 315 424 C 361 327 430 251 520 196 C 610 140 710 113 821 113 Z" unicode="Œ" />
<glyph horiz-adv-x="2081" d="M 629 -23 C 525 -23 433 2 353 52 C 273 102 211 173 167 263 C 123 353 102 454 102 565 C 102 676 123 776 167 866 C 211 956 273 1026 353 1077 C 433 1127 525 1153 629 1153 C 730 1153 819 1128 895 1078 C 971 1028 1031 957 1073 866 C 1114 960 1171 1031 1243 1080 C 1315 1128 1399 1153 1497 1153 C 1642 1153 1753 1110 1831 1025 C 1909 939 1948 813 1948 645 L 1948 532 L 1145 532 C 1151 402 1185 300 1249 225 C 1312 150 1395 113 1499 113 C 1579 113 1645 128 1698 160 C 1751 192 1800 243 1845 315 L 1962 244 C 1907 152 1842 86 1767 44 C 1691 2 1598 -18 1487 -18 C 1389 -18 1304 5 1233 52 C 1162 98 1108 166 1071 256 C 1027 166 968 97 892 49 C 816 1 729 -23 629 -23 Z M 629 113 C 704 113 770 132 828 171 C 886 209 930 263 961 333 C 992 402 1008 479 1008 565 C 1008 699 973 808 904 892 C 834 976 743 1018 629 1018 C 514 1018 422 976 353 892 C 284 808 250 699 250 565 C 250 431 284 323 353 239 C 421 155 513 113 629 113 Z M 1798 664 L 1798 672 C 1798 784 1772 870 1722 930 C 1671 990 1596 1020 1497 1020 C 1407 1020 1330 988 1267 925 C 1204 862 1165 775 1151 664 L 1798 664 Z" unicode="œ" />
<glyph horiz-adv-x="1384" d="M 672 637 L 332 637 L 332 0 L 180 0 L 180 1518 L 748 1518 C 911 1518 1035 1480 1121 1404 C 1206 1328 1249 1219 1249 1077 C 1249 950 1214 849 1144 774 C 1074 698 971 654 837 641 L 1233 0 L 1065 0 L 672 637 Z M 768 764 C 878 764 960 789 1014 841 C 1067 892 1094 969 1094 1071 C 1094 1177 1066 1256 1011 1307 C 955 1358 868 1384 748 1384 L 332 1384 L 332 764 L 768 764 Z M 418 1694 L 911 1948 L 969 1817 L 461 1604 L 418 1694 Z" unicode="Ŕ" />
<glyph horiz-adv-x="770" d="M 160 1126 L 256 1126 L 293 913 C 334 985 386 1041 449 1079 C 511 1117 592 1141 690 1153 L 713 1018 C 577 1001 474 961 406 898 C 337 834 303 745 303 629 L 303 0 L 160 0 L 160 1126 Z M 122 1325 L 615 1579 L 673 1448 L 165 1235 L 122 1325 Z" unicode="ŕ" />
<glyph horiz-adv-x="1384" d="M 672 637 L 332 637 L 332 0 L 180 0 L 180 1518 L 748 1518 C 911 1518 1035 1480 1121 1404 C 1206 1328 1249 1219 1249 1077 C 1249 950 1214 849 1144 774 C 1074 698 971 654 837 641 L 1233 0 L 1065 0 L 672 637 Z M 768 764 C 878 764 960 789 1014 841 C 1067 892 1094 969 1094 1071 C 1094 1177 1066 1256 1011 1307 C 955 1358 868 1384 748 1384 L 332 1384 L 332 764 L 768 764 Z M 790 -252 C 790 -343 778 -409 755 -451 C 731 -492 690 -527 631 -557 L 588 -481 C 631 -457 659 -434 673 -412 C 687 -390 694 -353 694 -301 L 594 -301 L 594 -88 L 790 -88 L 790 -252 Z" unicode="Ŗ" />
<glyph horiz-adv-x="770" d="M 160 1126 L 256 1126 L 293 913 C 334 985 386 1041 449 1079 C 511 1117 592 1141 690 1153 L 713 1018 C 577 1001 474 961 406 898 C 337 834 303 745 303 629 L 303 0 L 160 0 L 160 1126 Z M 334 -252 C 334 -343 322 -409 299 -451 C 275 -492 234 -527 175 -557 L 132 -481 C 175 -457 203 -434 217 -412 C 231 -390 238 -353 238 -301 L 138 -301 L 138 -88 L 334 -88 L 334 -252 Z" unicode="ŗ" />
<glyph horiz-adv-x="1384" d="M 672 637 L 332 637 L 332 0 L 180 0 L 180 1518 L 748 1518 C 911 1518 1035 1480 1121 1404 C 1206 1328 1249 1219 1249 1077 C 1249 950 1214 849 1144 774 C 1074 698 971 654 837 641 L 1233 0 L 1065 0 L 672 637 Z M 768 764 C 878 764 960 789 1014 841 C 1067 892 1094 969 1094 1071 C 1094 1177 1066 1256 1011 1307 C 955 1358 868 1384 748 1384 L 332 1384 L 332 764 L 768 764 Z M 330 1796 L 371 1880 L 692 1749 L 1014 1880 L 1055 1796 L 739 1612 L 645 1612 L 330 1796 Z" unicode="Ř" />
<glyph horiz-adv-x="770" d="M 160 1126 L 256 1126 L 293 913 C 334 985 386 1041 449 1079 C 511 1117 592 1141 690 1153 L 713 1018 C 577 1001 474 961 406 898 C 337 834 303 745 303 629 L 303 0 L 160 0 L 160 1126 Z M 34 1427 L 75 1511 L 396 1380 L 718 1511 L 759 1427 L 443 1243 L 349 1243 L 34 1427 Z" unicode="ř" />
<glyph horiz-adv-x="1348" d="M 709 -25 C 565 -25 440 -2 334 44 C 228 90 150 156 98 244 L 221 328 C 266 260 329 207 411 170 C 493 133 592 115 709 115 C 825 115 915 139 978 188 C 1041 237 1073 305 1073 391 C 1073 445 1060 491 1036 528 C 1011 565 976 597 931 623 C 885 649 805 679 690 711 C 580 741 503 764 460 781 C 417 797 378 816 344 838 C 309 859 279 884 255 913 C 231 941 212 975 198 1014 C 184 1053 178 1097 178 1147 C 178 1222 198 1290 239 1351 C 279 1411 336 1458 410 1492 C 484 1525 568 1542 662 1542 C 788 1542 896 1523 988 1485 C 1080 1447 1150 1393 1200 1323 L 1075 1237 C 1038 1290 984 1331 913 1360 C 841 1388 758 1403 662 1403 C 558 1403 476 1380 418 1335 C 359 1289 330 1227 330 1147 C 330 1096 342 1053 366 1019 C 390 984 426 954 472 930 C 518 905 601 876 721 844 C 761 832 801 821 841 809 C 881 797 920 784 958 768 C 995 752 1030 733 1063 712 C 1095 690 1124 665 1148 635 C 1172 605 1190 570 1204 530 C 1218 490 1225 443 1225 391 C 1225 268 1176 168 1080 91 C 984 13 860 -25 709 -25 Z M 410 1694 L 903 1948 L 961 1817 L 453 1604 L 410 1694 Z" unicode="Ś" />
<glyph horiz-adv-x="1042" d="M 532 -23 C 445 -23 361 -8 281 22 C 201 52 130 101 70 170 L 172 262 C 213 214 265 178 329 152 C 392 126 460 113 532 113 C 618 113 685 129 733 162 C 781 195 805 240 805 297 C 805 334 796 365 780 390 C 763 414 737 435 703 452 C 668 469 608 488 522 508 C 408 534 326 561 278 589 C 230 617 192 651 166 693 C 140 734 127 786 127 850 C 127 939 162 1012 233 1068 C 304 1124 396 1153 510 1153 C 600 1153 678 1142 744 1122 C 809 1101 868 1070 922 1028 L 838 920 C 752 985 642 1018 510 1018 C 437 1018 379 1003 337 975 C 295 946 274 905 274 852 C 274 814 282 783 298 759 C 314 735 339 714 375 697 C 411 680 469 662 551 643 C 669 615 752 588 800 561 C 848 534 885 500 912 458 C 938 416 952 363 952 299 C 952 201 912 122 833 64 C 753 6 653 -23 532 -23 Z M 247 1325 L 740 1579 L 798 1448 L 290 1235 L 247 1325 Z" unicode="ś" />
<glyph horiz-adv-x="1348" d="M 709 -25 C 565 -25 440 -2 334 44 C 228 90 150 156 98 244 L 221 328 C 266 260 329 207 411 170 C 493 133 592 115 709 115 C 825 115 915 139 978 188 C 1041 237 1073 305 1073 391 C 1073 445 1060 491 1036 528 C 1011 565 976 597 931 623 C 885 649 805 679 690 711 C 580 741 503 764 460 781 C 417 797 378 816 344 838 C 309 859 279 884 255 913 C 231 941 212 975 198 1014 C 184 1053 178 1097 178 1147 C 178 1222 198 1290 239 1351 C 279 1411 336 1458 410 1492 C 484 1525 568 1542 662 1542 C 788 1542 896 1523 988 1485 C 1080 1447 1150 1393 1200 1323 L 1075 1237 C 1038 1290 984 1331 913 1360 C 841 1388 758 1403 662 1403 C 558 1403 476 1380 418 1335 C 359 1289 330 1227 330 1147 C 330 1096 342 1053 366 1019 C 390 984 426 954 472 930 C 518 905 601 876 721 844 C 761 832 801 821 841 809 C 881 797 920 784 958 768 C 995 752 1030 733 1063 712 C 1095 690 1124 665 1148 635 C 1172 605 1190 570 1204 530 C 1218 490 1225 443 1225 391 C 1225 268 1176 168 1080 91 C 984 13 860 -25 709 -25 Z M 322 1710 L 635 1895 L 731 1895 L 1047 1710 L 1006 1626 L 684 1758 L 363 1626 L 322 1710 Z" unicode="Ŝ" />
<glyph horiz-adv-x="1042" d="M 532 -23 C 445 -23 361 -8 281 22 C 201 52 130 101 70 170 L 172 262 C 213 214 265 178 329 152 C 392 126 460 113 532 113 C 618 113 685 129 733 162 C 781 195 805 240 805 297 C 805 334 796 365 780 390 C 763 414 737 435 703 452 C 668 469 608 488 522 508 C 408 534 326 561 278 589 C 230 617 192 651 166 693 C 140 734 127 786 127 850 C 127 939 162 1012 233 1068 C 304 1124 396 1153 510 1153 C 600 1153 678 1142 744 1122 C 809 1101 868 1070 922 1028 L 838 920 C 752 985 642 1018 510 1018 C 437 1018 379 1003 337 975 C 295 946 274 905 274 852 C 274 814 282 783 298 759 C 314 735 339 714 375 697 C 411 680 469 662 551 643 C 669 615 752 588 800 561 C 848 534 885 500 912 458 C 938 416 952 363 952 299 C 952 201 912 122 833 64 C 753 6 653 -23 532 -23 Z M 159 1341 L 472 1526 L 568 1526 L 884 1341 L 843 1257 L 521 1389 L 200 1257 L 159 1341 Z" unicode="ŝ" />
<glyph horiz-adv-x="1348" d="M 709 -25 C 565 -25 440 -2 334 44 C 228 90 150 156 98 244 L 221 328 C 266 260 329 207 411 170 C 493 133 592 115 709 115 C 825 115 915 139 978 188 C 1041 237 1073 305 1073 391 C 1073 445 1060 491 1036 528 C 1011 565 976 597 931 623 C 885 649 805 679 690 711 C 580 741 503 764 460 781 C 417 797 378 816 344 838 C 309 859 279 884 255 913 C 231 941 212 975 198 1014 C 184 1053 178 1097 178 1147 C 178 1222 198 1290 239 1351 C 279 1411 336 1458 410 1492 C 484 1525 568 1542 662 1542 C 788 1542 896 1523 988 1485 C 1080 1447 1150 1393 1200 1323 L 1075 1237 C 1038 1290 984 1331 913 1360 C 841 1388 758 1403 662 1403 C 558 1403 476 1380 418 1335 C 359 1289 330 1227 330 1147 C 330 1096 342 1053 366 1019 C 390 984 426 954 472 930 C 518 905 601 876 721 844 C 761 832 801 821 841 809 C 881 797 920 784 958 768 C 995 752 1030 733 1063 712 C 1095 690 1124 665 1148 635 C 1172 605 1190 570 1204 530 C 1218 490 1225 443 1225 391 C 1225 268 1176 168 1080 91 C 984 13 860 -25 709 -25 Z M 651 -451 C 615 -451 577 -446 539 -436 C 500 -426 466 -412 436 -395 L 494 -295 C 516 -309 544 -320 577 -328 C 610 -336 640 -340 666 -340 C 713 -340 750 -332 776 -317 C 802 -302 815 -281 815 -254 C 815 -220 803 -197 780 -187 C 757 -177 728 -172 692 -172 L 641 -174 L 565 -133 L 598 14 L 713 14 L 694 -96 C 712 -91 732 -89 752 -89 C 806 -89 851 -104 885 -134 C 919 -164 936 -204 936 -254 C 936 -314 910 -362 859 -398 C 808 -433 739 -451 651 -451 Z" unicode="Ş" />
<glyph horiz-adv-x="1042" d="M 532 -23 C 445 -23 361 -8 281 22 C 201 52 130 101 70 170 L 172 262 C 213 214 265 178 329 152 C 392 126 460 113 532 113 C 618 113 685 129 733 162 C 781 195 805 240 805 297 C 805 334 796 365 780 390 C 763 414 737 435 703 452 C 668 469 608 488 522 508 C 408 534 326 561 278 589 C 230 617 192 651 166 693 C 140 734 127 786 127 850 C 127 939 162 1012 233 1068 C 304 1124 396 1153 510 1153 C 600 1153 678 1142 744 1122 C 809 1101 868 1070 922 1028 L 838 920 C 752 985 642 1018 510 1018 C 437 1018 379 1003 337 975 C 295 946 274 905 274 852 C 274 814 282 783 298 759 C 314 735 339 714 375 697 C 411 680 469 662 551 643 C 669 615 752 588 800 561 C 848 534 885 500 912 458 C 938 416 952 363 952 299 C 952 201 912 122 833 64 C 753 6 653 -23 532 -23 Z M 488 -451 C 452 -451 414 -446 376 -436 C 337 -426 303 -412 273 -395 L 331 -295 C 353 -309 381 -320 414 -328 C 447 -336 477 -340 503 -340 C 550 -340 587 -332 613 -317 C 639 -302 652 -281 652 -254 C 652 -220 640 -197 617 -187 C 594 -177 565 -172 529 -172 L 478 -174 L 402 -133 L 435 14 L 550 14 L 531 -96 C 549 -91 569 -89 589 -89 C 643 -89 688 -104 722 -134 C 756 -164 773 -204 773 -254 C 773 -314 747 -362 696 -398 C 645 -433 576 -451 488 -451 Z" unicode="ş" />
<glyph horiz-adv-x="1348" d="M 709 -25 C 565 -25 440 -2 334 44 C 228 90 150 156 98 244 L 221 328 C 266 260 329 207 411 170 C 493 133 592 115 709 115 C 825 115 915 139 978 188 C 1041 237 1073 305 1073 391 C 1073 445 1060 491 1036 528 C 1011 565 976 597 931 623 C 885 649 805 679 690 711 C 580 741 503 764 460 781 C 417 797 378 816 344 838 C 309 859 279 884 255 913 C 231 941 212 975 198 1014 C 184 1053 178 1097 178 1147 C 178 1222 198 1290 239 1351 C 279 1411 336 1458 410 1492 C 484 1525 568 1542 662 1542 C 788 1542 896 1523 988 1485 C 1080 1447 1150 1393 1200 1323 L 1075 1237 C 1038 1290 984 1331 913 1360 C 841 1388 758 1403 662 1403 C 558 1403 476 1380 418 1335 C 359 1289 330 1227 330 1147 C 330 1096 342 1053 366 1019 C 390 984 426 954 472 930 C 518 905 601 876 721 844 C 761 832 801 821 841 809 C 881 797 920 784 958 768 C 995 752 1030 733 1063 712 C 1095 690 1124 665 1148 635 C 1172 605 1190 570 1204 530 C 1218 490 1225 443 1225 391 C 1225 268 1176 168 1080 91 C 984 13 860 -25 709 -25 Z M 322 1796 L 363 1880 L 684 1749 L 1006 1880 L 1047 1796 L 731 1612 L 637 1612 L 322 1796 Z" unicode="Š" />
<glyph horiz-adv-x="1042" d="M 532 -23 C 445 -23 361 -8 281 22 C 201 52 130 101 70 170 L 172 262 C 213 214 265 178 329 152 C 392 126 460 113 532 113 C 618 113 685 129 733 162 C 781 195 805 240 805 297 C 805 334 796 365 780 390 C 763 414 737 435 703 452 C 668 469 608 488 522 508 C 408 534 326 561 278 589 C 230 617 192 651 166 693 C 140 734 127 786 127 850 C 127 939 162 1012 233 1068 C 304 1124 396 1153 510 1153 C 600 1153 678 1142 744 1122 C 809 1101 868 1070 922 1028 L 838 920 C 752 985 642 1018 510 1018 C 437 1018 379 1003 337 975 C 295 946 274 905 274 852 C 274 814 282 783 298 759 C 314 735 339 714 375 697 C 411 680 469 662 551 643 C 669 615 752 588 800 561 C 848 534 885 500 912 458 C 938 416 952 363 952 299 C 952 201 912 122 833 64 C 753 6 653 -23 532 -23 Z M 159 1427 L 200 1511 L 521 1380 L 843 1511 L 884 1427 L 568 1243 L 474 1243 L 159 1427 Z" unicode="š" />
<glyph horiz-adv-x="1339" d="M 594 1382 L 57 1382 L 57 1518 L 1282 1518 L 1282 1382 L 745 1382 L 745 0 L 594 0 L 594 1382 Z M 768 -252 C 768 -343 756 -409 733 -451 C 709 -492 668 -527 609 -557 L 566 -481 C 609 -457 637 -434 651 -412 C 665 -390 672 -353 672 -301 L 572 -301 L 572 -88 L 768 -88 L 768 -252 Z" unicode="Ţ" />
<glyph horiz-adv-x="838" d="M 506 -14 C 411 -14 344 7 305 50 C 265 93 246 166 246 268 L 246 993 L 29 993 L 29 1126 L 250 1126 L 281 1456 L 389 1456 L 389 1126 L 731 1126 L 731 993 L 389 993 L 389 285 C 389 231 393 195 401 177 C 409 159 422 145 441 136 C 460 127 488 123 524 123 C 586 123 657 139 739 172 L 788 51 C 700 7 606 -14 506 -14 Z M 437 -252 C 437 -343 425 -409 402 -451 C 378 -492 337 -527 278 -557 L 235 -481 C 278 -457 306 -434 320 -412 C 334 -390 341 -353 341 -301 L 241 -301 L 241 -88 L 437 -88 L 437 -252 Z" unicode="ţ" />
<glyph horiz-adv-x="1339" d="M 594 1382 L 57 1382 L 57 1518 L 1282 1518 L 1282 1382 L 745 1382 L 745 0 L 594 0 L 594 1382 Z M 308 1796 L 349 1880 L 670 1749 L 992 1880 L 1033 1796 L 717 1612 L 623 1612 L 308 1796 Z" unicode="Ť" />
<glyph horiz-adv-x="838" d="M 506 -14 C 411 -14 344 7 305 50 C 265 93 246 166 246 268 L 246 993 L 29 993 L 29 1126 L 250 1126 L 281 1456 L 389 1456 L 389 1126 L 731 1126 L 731 993 L 389 993 L 389 285 C 389 231 393 195 401 177 C 409 159 422 145 441 136 C 460 127 488 123 524 123 C 586 123 657 139 739 172 L 788 51 C 700 7 606 -14 506 -14 Z M 733 1540 C 733 1448 721 1382 698 1341 C 674 1299 633 1264 574 1235 L 531 1311 C 574 1334 602 1357 616 1379 C 630 1401 637 1439 637 1491 L 537 1491 L 537 1704 L 733 1704 L 733 1540 Z" unicode="ť" />
<glyph horiz-adv-x="1339" d="M 266 854 L 594 854 L 594 1382 L 57 1382 L 57 1518 L 1282 1518 L 1282 1382 L 745 1382 L 745 854 L 1073 854 L 1073 721 L 745 721 L 745 0 L 594 0 L 594 721 L 266 721 L 266 854 Z" unicode="Ŧ" />
<glyph horiz-adv-x="838" d="M 29 739 L 246 739 L 246 993 L 29 993 L 29 1126 L 250 1126 L 281 1456 L 389 1456 L 389 1126 L 731 1126 L 731 993 L 389 993 L 389 739 L 731 739 L 731 606 L 389 606 L 389 285 C 389 231 393 195 401 177 C 409 159 422 145 441 136 C 460 127 488 123 524 123 C 586 123 657 139 739 172 L 788 51 C 700 7 606 -14 506 -14 C 411 -14 344 7 305 50 C 265 93 246 166 246 268 L 246 606 L 29 606 L 29 739 Z" unicode="ŧ" />
<glyph horiz-adv-x="1546" d="M 1374 1518 L 1374 543 C 1374 430 1350 331 1302 245 C 1254 159 1185 92 1095 45 C 1005 -1 896 -25 768 -25 C 641 -25 533 -1 444 45 C 354 92 286 158 240 244 C 193 329 170 429 170 543 L 170 1518 L 322 1518 L 322 543 C 322 408 361 303 441 227 C 520 151 631 113 774 113 C 872 113 954 130 1021 165 C 1088 199 1139 249 1173 313 C 1207 377 1225 453 1225 543 L 1225 1518 L 1374 1518 Z M 367 1727 C 413 1782 459 1824 505 1854 C 551 1884 593 1899 631 1899 C 667 1899 697 1892 722 1880 C 746 1868 769 1854 789 1839 C 809 1824 828 1810 846 1798 C 864 1786 884 1780 907 1780 C 955 1780 1013 1820 1083 1901 L 1178 1829 C 1134 1777 1089 1735 1042 1704 C 995 1672 953 1657 916 1657 C 885 1657 858 1663 834 1675 C 810 1687 788 1701 768 1716 C 747 1731 726 1745 706 1757 C 686 1769 663 1776 639 1776 C 615 1776 585 1763 551 1739 C 516 1714 486 1685 461 1653 L 367 1727 Z" unicode="Ũ" />
<glyph horiz-adv-x="1227" d="M 537 -23 C 403 -23 305 12 243 82 C 181 152 150 268 150 432 L 150 1126 L 293 1126 L 293 457 C 293 328 314 238 356 186 C 398 134 469 109 569 109 C 685 109 773 139 834 199 C 895 259 926 351 926 473 L 926 1126 L 1069 1126 L 1069 0 L 973 0 L 940 197 C 908 127 857 73 785 35 C 713 -3 630 -23 537 -23 Z M 207 1358 C 253 1413 299 1455 345 1485 C 391 1515 433 1530 471 1530 C 507 1530 537 1523 562 1511 C 586 1499 609 1485 629 1470 C 649 1455 668 1441 686 1429 C 704 1417 724 1411 747 1411 C 795 1411 853 1451 923 1532 L 1018 1460 C 974 1408 929 1366 882 1335 C 835 1303 793 1288 756 1288 C 725 1288 698 1294 674 1306 C 650 1318 628 1332 608 1347 C 587 1362 566 1376 546 1388 C 526 1400 503 1407 479 1407 C 455 1407 425 1394 391 1370 C 356 1345 326 1316 301 1284 L 207 1358 Z" unicode="ũ" />
<glyph horiz-adv-x="1546" d="M 1374 1518 L 1374 543 C 1374 430 1350 331 1302 245 C 1254 159 1185 92 1095 45 C 1005 -1 896 -25 768 -25 C 641 -25 533 -1 444 45 C 354 92 286 158 240 244 C 193 329 170 429 170 543 L 170 1518 L 322 1518 L 322 543 C 322 408 361 303 441 227 C 520 151 631 113 774 113 C 872 113 954 130 1021 165 C 1088 199 1139 249 1173 313 C 1207 377 1225 453 1225 543 L 1225 1518 L 1374 1518 Z M 506 1768 L 1038 1768 L 1038 1647 L 506 1647 L 506 1768 Z" unicode="Ū" />
<glyph horiz-adv-x="1227" d="M 537 -23 C 403 -23 305 12 243 82 C 181 152 150 268 150 432 L 150 1126 L 293 1126 L 293 457 C 293 328 314 238 356 186 C 398 134 469 109 569 109 C 685 109 773 139 834 199 C 895 259 926 351 926 473 L 926 1126 L 1069 1126 L 1069 0 L 973 0 L 940 197 C 908 127 857 73 785 35 C 713 -3 630 -23 537 -23 Z M 346 1399 L 878 1399 L 878 1278 L 346 1278 L 346 1399 Z" unicode="ū" />
<glyph horiz-adv-x="1546" d="M 1374 1518 L 1374 543 C 1374 430 1350 331 1302 245 C 1254 159 1185 92 1095 45 C 1005 -1 896 -25 768 -25 C 641 -25 533 -1 444 45 C 354 92 286 158 240 244 C 193 329 170 429 170 543 L 170 1518 L 322 1518 L 322 543 C 322 408 361 303 441 227 C 520 151 631 113 774 113 C 872 113 954 130 1021 165 C 1088 199 1139 249 1173 313 C 1207 377 1225 453 1225 543 L 1225 1518 L 1374 1518 Z M 772 1610 C 666 1610 581 1635 516 1687 C 451 1738 409 1811 391 1905 L 508 1928 C 536 1798 624 1733 772 1733 C 845 1733 904 1749 949 1782 C 993 1814 1022 1863 1034 1928 L 1153 1905 C 1131 1809 1088 1735 1024 1685 C 960 1635 876 1610 772 1610 Z" unicode="Ŭ" />
<glyph horiz-adv-x="1227" d="M 537 -23 C 403 -23 305 12 243 82 C 181 152 150 268 150 432 L 150 1126 L 293 1126 L 293 457 C 293 328 314 238 356 186 C 398 134 469 109 569 109 C 685 109 773 139 834 199 C 895 259 926 351 926 473 L 926 1126 L 1069 1126 L 1069 0 L 973 0 L 940 197 C 908 127 857 73 785 35 C 713 -3 630 -23 537 -23 Z M 612 1241 C 506 1241 421 1266 356 1318 C 291 1369 249 1442 231 1536 L 348 1559 C 376 1429 464 1364 612 1364 C 685 1364 744 1380 789 1413 C 833 1445 862 1494 874 1559 L 993 1536 C 971 1440 928 1366 864 1316 C 800 1266 716 1241 612 1241 Z" unicode="ŭ" />
<glyph horiz-adv-x="1546" d="M 1374 1518 L 1374 543 C 1374 430 1350 331 1302 245 C 1254 159 1185 92 1095 45 C 1005 -1 896 -25 768 -25 C 641 -25 533 -1 444 45 C 354 92 286 158 240 244 C 193 329 170 429 170 543 L 170 1518 L 322 1518 L 322 543 C 322 408 361 303 441 227 C 520 151 631 113 774 113 C 872 113 954 130 1021 165 C 1088 199 1139 249 1173 313 C 1207 377 1225 453 1225 543 L 1225 1518 L 1374 1518 Z M 772 1606 C 698 1606 635 1631 585 1683 C 535 1734 510 1796 510 1870 C 510 1943 535 2006 585 2058 C 635 2110 697 2136 772 2136 C 844 2136 905 2109 956 2057 C 1006 2005 1032 1942 1032 1870 C 1032 1797 1006 1735 955 1683 C 904 1631 843 1606 772 1606 Z M 772 1712 C 813 1712 848 1726 877 1756 C 905 1786 920 1824 920 1870 C 920 1914 906 1951 878 1983 C 850 2014 815 2030 772 2030 C 729 2030 693 2014 665 1983 C 637 1952 623 1914 623 1870 C 623 1824 637 1786 666 1756 C 695 1726 730 1712 772 1712 Z" unicode="Ů" />
<glyph horiz-adv-x="1227" d="M 537 -23 C 403 -23 305 12 243 82 C 181 152 150 268 150 432 L 150 1126 L 293 1126 L 293 457 C 293 328 314 238 356 186 C 398 134 469 109 569 109 C 685 109 773 139 834 199 C 895 259 926 351 926 473 L 926 1126 L 1069 1126 L 1069 0 L 973 0 L 940 197 C 908 127 857 73 785 35 C 713 -3 630 -23 537 -23 Z M 612 1237 C 538 1237 475 1262 425 1314 C 375 1365 350 1427 350 1501 C 350 1574 375 1637 425 1689 C 475 1741 537 1767 612 1767 C 684 1767 745 1740 796 1688 C 846 1636 872 1573 872 1501 C 872 1428 846 1366 795 1314 C 744 1262 683 1237 612 1237 Z M 612 1343 C 653 1343 688 1357 717 1387 C 745 1417 760 1455 760 1501 C 760 1545 746 1582 718 1614 C 690 1645 655 1661 612 1661 C 569 1661 533 1645 505 1614 C 477 1583 463 1545 463 1501 C 463 1455 477 1417 506 1387 C 535 1357 570 1343 612 1343 Z" unicode="ů" />
<glyph horiz-adv-x="1546" d="M 1374 1518 L 1374 543 C 1374 430 1350 331 1302 245 C 1254 159 1185 92 1095 45 C 1005 -1 896 -25 768 -25 C 641 -25 533 -1 444 45 C 354 92 286 158 240 244 C 193 329 170 429 170 543 L 170 1518 L 322 1518 L 322 543 C 322 408 361 303 441 227 C 520 151 631 113 774 113 C 872 113 954 130 1021 165 C 1088 199 1139 249 1173 313 C 1207 377 1225 453 1225 543 L 1225 1518 L 1374 1518 Z M 414 1684 L 662 2016 L 776 1917 L 496 1616 L 414 1684 Z M 801 1684 L 1049 2016 L 1163 1917 L 883 1616 L 801 1684 Z" unicode="Ű" />
<glyph horiz-adv-x="1227" d="M 537 -23 C 403 -23 305 12 243 82 C 181 152 150 268 150 432 L 150 1126 L 293 1126 L 293 457 C 293 328 314 238 356 186 C 398 134 469 109 569 109 C 685 109 773 139 834 199 C 895 259 926 351 926 473 L 926 1126 L 1069 1126 L 1069 0 L 973 0 L 940 197 C 908 127 857 73 785 35 C 713 -3 630 -23 537 -23 Z M 254 1315 L 502 1647 L 616 1548 L 336 1247 L 254 1315 Z M 641 1315 L 889 1647 L 1003 1548 L 723 1247 L 641 1315 Z" unicode="ű" />
<glyph horiz-adv-x="1546" d="M 1374 1518 L 1374 543 C 1374 430 1350 331 1302 245 C 1254 159 1185 92 1095 45 C 1005 -1 896 -25 768 -25 C 641 -25 533 -1 444 45 C 354 92 286 158 240 244 C 193 329 170 429 170 543 L 170 1518 L 322 1518 L 322 543 C 322 408 361 303 441 227 C 520 151 631 113 774 113 C 872 113 954 130 1021 165 C 1088 199 1139 249 1173 313 C 1207 377 1225 453 1225 543 L 1225 1518 L 1374 1518 Z M 789 -405 C 707 -405 645 -389 601 -359 C 557 -328 535 -282 535 -221 C 535 -169 551 -119 583 -69 C 615 -19 659 21 715 55 L 852 55 C 786 7 737 -35 705 -75 C 673 -115 657 -155 657 -197 C 657 -261 702 -293 793 -293 C 819 -293 849 -288 881 -279 C 913 -269 939 -259 961 -248 L 1012 -346 C 938 -385 863 -405 789 -405 Z" unicode="Ų" />
<glyph horiz-adv-x="1227" d="M 1004 -406 C 917 -406 854 -388 815 -353 C 775 -317 756 -270 756 -211 C 756 -147 775 -89 815 -38 C 854 13 910 56 983 90 L 1063 35 C 1000 1 954 -34 924 -71 C 894 -107 879 -149 879 -197 C 879 -261 922 -293 1008 -293 C 1034 -293 1064 -288 1096 -278 C 1128 -268 1155 -258 1176 -248 L 1227 -346 C 1151 -386 1077 -406 1004 -406 Z M 537 -23 C 403 -23 305 12 243 82 C 181 152 150 268 150 432 L 150 1126 L 293 1126 L 293 457 C 293 328 314 238 356 186 C 398 134 469 109 569 109 C 685 109 773 139 834 199 C 895 259 926 351 926 473 L 926 1126 L 1069 1126 L 1069 0 L 973 0 L 940 197 C 908 127 857 73 785 35 C 713 -3 630 -23 537 -23 Z" unicode="ų" />
<glyph horiz-adv-x="2161" d="M 59 1518 L 207 1518 L 629 231 L 1024 1518 L 1141 1518 L 1536 229 L 1960 1518 L 2099 1518 L 1593 -10 L 1466 -10 L 1079 1235 L 694 -10 L 567 -10 L 59 1518 Z M 717 1710 L 1030 1895 L 1126 1895 L 1442 1710 L 1401 1626 L 1079 1758 L 758 1626 L 717 1710 Z" unicode="Ŵ" />
<glyph horiz-adv-x="1722" d="M 41 1126 L 182 1126 L 512 203 L 801 1126 L 928 1126 L 1217 203 L 1546 1126 L 1681 1126 L 1276 -12 L 1153 -12 L 862 901 L 571 -12 L 449 -12 L 41 1126 Z M 498 1341 L 811 1526 L 907 1526 L 1223 1341 L 1182 1257 L 860 1389 L 539 1257 L 498 1341 Z" unicode="ŵ" />
<glyph horiz-adv-x="1386" d="M 618 633 L 49 1518 L 213 1518 L 696 760 L 1182 1518 L 1339 1518 L 770 633 L 770 0 L 618 0 L 618 633 Z M 330 1710 L 643 1895 L 739 1895 L 1055 1710 L 1014 1626 L 692 1758 L 371 1626 L 330 1710 Z" unicode="Ŷ" />
<glyph horiz-adv-x="1063" d="M 258 -360 C 168 -360 82 -339 0 -299 L 61 -178 C 97 -194 130 -205 158 -213 C 186 -221 217 -225 250 -225 C 300 -225 339 -209 369 -179 C 399 -148 430 -89 463 -2 L 31 1126 L 178 1126 L 535 180 L 893 1126 L 1032 1126 L 569 -80 C 533 -176 490 -246 440 -292 C 389 -337 328 -360 258 -360 Z M 169 1341 L 482 1526 L 578 1526 L 894 1341 L 853 1257 L 531 1389 L 210 1257 L 169 1341 Z" unicode="ŷ" />
<glyph horiz-adv-x="1386" d="M 618 633 L 49 1518 L 213 1518 L 696 760 L 1182 1518 L 1339 1518 L 770 633 L 770 0 L 618 0 L 618 633 Z M 426 1850 L 569 1850 L 569 1647 L 426 1647 L 426 1850 Z M 815 1850 L 958 1850 L 958 1647 L 815 1647 L 815 1850 Z" unicode="Ÿ" />
<glyph horiz-adv-x="1298" d="M 94 119 L 983 1382 L 129 1382 L 129 1518 L 1174 1518 L 1174 1413 L 270 131 L 1198 131 L 1198 0 L 94 0 L 94 119 Z M 375 1694 L 868 1948 L 926 1817 L 418 1604 L 375 1694 Z" unicode="Ź" />
<glyph horiz-adv-x="993" d="M 70 117 L 717 993 L 104 993 L 104 1126 L 905 1126 L 905 1024 L 244 129 L 930 129 L 930 0 L 70 0 L 70 117 Z M 222 1325 L 715 1579 L 773 1448 L 265 1235 L 222 1325 Z" unicode="ź" />
<glyph horiz-adv-x="1298" d="M 94 119 L 983 1382 L 129 1382 L 129 1518 L 1174 1518 L 1174 1413 L 270 131 L 1198 131 L 1198 0 L 94 0 L 94 119 Z M 573 1862 L 725 1862 L 725 1649 L 573 1649 L 573 1862 Z" unicode="Ż" />
<glyph horiz-adv-x="993" d="M 70 117 L 717 993 L 104 993 L 104 1126 L 905 1126 L 905 1024 L 244 129 L 930 129 L 930 0 L 70 0 L 70 117 Z M 420 1493 L 572 1493 L 572 1280 L 420 1280 L 420 1493 Z" unicode="ż" />
<glyph horiz-adv-x="1298" d="M 94 119 L 983 1382 L 129 1382 L 129 1518 L 1174 1518 L 1174 1413 L 270 131 L 1198 131 L 1198 0 L 94 0 L 94 119 Z M 287 1796 L 328 1880 L 649 1749 L 971 1880 L 1012 1796 L 696 1612 L 602 1612 L 287 1796 Z" unicode="Ž" />
<glyph horiz-adv-x="993" d="M 70 117 L 717 993 L 104 993 L 104 1126 L 905 1126 L 905 1024 L 244 129 L 930 129 L 930 0 L 70 0 L 70 117 Z M 134 1427 L 175 1511 L 496 1380 L 818 1511 L 859 1427 L 543 1243 L 449 1243 L 134 1427 Z" unicode="ž" />
<glyph horiz-adv-x="958" d="M 362 786 L 102 786 L 102 920 L 362 920 L 362 1126 C 362 1243 392 1333 453 1395 C 513 1457 601 1489 717 1489 C 787 1489 851 1480 911 1462 L 877 1331 C 817 1345 760 1352 705 1352 C 572 1352 506 1279 506 1135 L 506 920 L 848 920 L 848 786 L 506 786 L 506 -338 L 362 -338 L 362 786 Z" unicode="ƒ" />
<glyph horiz-adv-x="999" d="M 858 1466 L 991 1466 L 143 0 L 8 0 L 858 1466 Z" unicode="⁄" />
<glyph horiz-adv-x="1217" d="M 543 -18 C 399 -18 287 23 206 105 C 124 187 84 299 84 442 C 84 572 110 692 163 801 C 216 910 289 995 382 1057 C 474 1118 577 1149 690 1149 C 771 1149 841 1135 900 1108 C 958 1081 999 1044 1022 997 C 1013 1093 1003 1163 991 1205 C 979 1247 963 1284 943 1316 C 923 1347 899 1373 869 1395 C 839 1417 804 1433 765 1445 C 726 1457 679 1463 625 1464 C 553 1464 473 1454 385 1436 L 362 1565 C 467 1587 559 1599 637 1599 C 708 1599 771 1590 827 1573 C 883 1556 931 1532 971 1500 C 1011 1468 1046 1428 1075 1378 C 1104 1328 1126 1268 1140 1199 C 1154 1129 1161 1034 1161 913 C 1161 729 1135 566 1085 423 C 1034 280 962 171 869 95 C 776 19 667 -18 543 -18 Z M 543 115 C 624 115 698 139 765 187 C 832 235 885 303 923 390 C 961 477 981 573 981 678 C 981 787 955 871 905 929 C 854 987 782 1016 690 1016 C 602 1016 524 991 454 942 C 384 893 329 825 290 738 C 250 651 231 554 231 446 C 231 339 258 257 312 200 C 366 143 443 115 543 115 Z" unicode="∂" />
<glyph horiz-adv-x="1452" d="M 651 1528 L 799 1528 L 1393 0 L 59 0 L 651 1528 Z M 1188 125 L 723 1333 L 254 125 L 1188 125 Z" unicode="∆" />
<glyph horiz-adv-x="1561" d="M 211 1382 L 31 1382 L 31 1518 L 1530 1518 L 1530 1382 L 1350 1382 L 1350 -236 L 1198 -236 L 1198 1382 L 362 1382 L 362 -236 L 211 -236 L 211 1382 Z" unicode="∏" />
<glyph horiz-adv-x="1251" d="M 98 -104 L 868 659 L 98 1382 L 98 1518 L 1124 1518 L 1124 1382 L 295 1382 L 1010 713 L 1010 602 L 295 -104 L 1169 -104 L 1169 -236 L 98 -236 L 98 -104 Z" unicode="∑" />
<glyph horiz-adv-x="1421" d="M 219 788 L 1200 788 L 1200 655 L 219 655 L 219 788 Z" unicode="−" />
<glyph horiz-adv-x="999" d="M 858 1466 L 991 1466 L 143 0 L 8 0 L 858 1466 Z" unicode="∕" />
<glyph horiz-adv-x="1348" d="M 709 -25 C 565 -25 440 -2 334 44 C 228 90 150 156 98 244 L 221 328 C 266 260 329 207 411 170 C 493 133 592 115 709 115 C 825 115 915 139 978 188 C 1041 237 1073 305 1073 391 C 1073 445 1060 491 1036 528 C 1011 565 976 597 931 623 C 885 649 805 679 690 711 C 580 741 503 764 460 781 C 417 797 378 816 344 838 C 309 859 279 884 255 913 C 231 941 212 975 198 1014 C 184 1053 178 1097 178 1147 C 178 1222 198 1290 239 1351 C 279 1411 336 1458 410 1492 C 484 1525 568 1542 662 1542 C 788 1542 896 1523 988 1485 C 1080 1447 1150 1393 1200 1323 L 1075 1237 C 1038 1290 984 1331 913 1360 C 841 1388 758 1403 662 1403 C 558 1403 476 1380 418 1335 C 359 1289 330 1227 330 1147 C 330 1096 342 1053 366 1019 C 390 984 426 954 472 930 C 518 905 601 876 721 844 C 761 832 801 821 841 809 C 881 797 920 784 958 768 C 995 752 1030 733 1063 712 C 1095 690 1124 665 1148 635 C 1172 605 1190 570 1204 530 C 1218 490 1225 443 1225 391 C 1225 268 1176 168 1080 91 C 984 13 860 -25 709 -25 Z M 782 -252 C 782 -343 770 -409 747 -451 C 723 -492 682 -527 623 -557 L 580 -481 C 623 -457 651 -434 665 -412 C 679 -390 686 -353 686 -301 L 586 -301 L 586 -88 L 782 -88 L 782 -252 Z" unicode="Ș" />
<glyph horiz-adv-x="1042" d="M 532 -23 C 445 -23 361 -8 281 22 C 201 52 130 101 70 170 L 172 262 C 213 214 265 178 329 152 C 392 126 460 113 532 113 C 618 113 685 129 733 162 C 781 195 805 240 805 297 C 805 334 796 365 780 390 C 763 414 737 435 703 452 C 668 469 608 488 522 508 C 408 534 326 561 278 589 C 230 617 192 651 166 693 C 140 734 127 786 127 850 C 127 939 162 1012 233 1068 C 304 1124 396 1153 510 1153 C 600 1153 678 1142 744 1122 C 809 1101 868 1070 922 1028 L 838 920 C 752 985 642 1018 510 1018 C 437 1018 379 1003 337 975 C 295 946 274 905 274 852 C 274 814 282 783 298 759 C 314 735 339 714 375 697 C 411 680 469 662 551 643 C 669 615 752 588 800 561 C 848 534 885 500 912 458 C 938 416 952 363 952 299 C 952 201 912 122 833 64 C 753 6 653 -23 532 -23 Z M 619 -252 C 619 -343 607 -409 584 -451 C 560 -492 519 -527 460 -557 L 417 -481 C 460 -457 488 -434 502 -412 C 516 -390 523 -353 523 -301 L 423 -301 L 423 -88 L 619 -88 L 619 -252 Z" unicode="ș" />
<glyph horiz-adv-x="1339" d="M 594 1382 L 57 1382 L 57 1518 L 1282 1518 L 1282 1382 L 745 1382 L 745 0 L 594 0 L 594 1382 Z M 768 -252 C 768 -343 756 -409 733 -451 C 709 -492 668 -527 609 -557 L 566 -481 C 609 -457 637 -434 651 -412 C 665 -390 672 -353 672 -301 L 572 -301 L 572 -88 L 768 -88 L 768 -252 Z" unicode="Ț" />
<glyph horiz-adv-x="838" d="M 506 -14 C 411 -14 344 7 305 50 C 265 93 246 166 246 268 L 246 993 L 29 993 L 29 1126 L 250 1126 L 281 1456 L 389 1456 L 389 1126 L 731 1126 L 731 993 L 389 993 L 389 285 C 389 231 393 195 401 177 C 409 159 422 145 441 136 C 460 127 488 123 524 123 C 586 123 657 139 739 172 L 788 51 C 700 7 606 -14 506 -14 Z M 437 -252 C 437 -343 425 -409 402 -451 C 378 -492 337 -527 278 -557 L 235 -481 C 278 -457 306 -434 320 -412 C 334 -390 341 -353 341 -301 L 241 -301 L 241 -88 L 437 -88 L 437 -252 Z" unicode="ț" />
<glyph horiz-adv-x="2042" d="M 545 270 C 411 270 303 312 223 398 C 142 484 102 595 102 733 C 102 870 142 981 223 1067 C 303 1153 411 1196 545 1196 C 647 1196 739 1169 821 1115 C 903 1061 969 984 1020 885 C 1073 986 1140 1063 1222 1116 C 1303 1169 1395 1196 1497 1196 C 1630 1196 1737 1153 1818 1068 C 1898 982 1939 871 1939 733 C 1939 594 1898 482 1817 397 C 1736 312 1629 270 1497 270 C 1293 270 1134 378 1020 594 C 906 378 747 270 545 270 Z M 545 397 C 631 397 708 424 776 478 C 843 532 902 617 954 733 C 902 850 842 935 776 989 C 710 1042 633 1069 545 1069 C 450 1069 375 1039 321 979 C 267 919 240 837 240 733 C 240 629 267 547 322 487 C 376 427 451 397 545 397 Z M 1497 397 C 1591 397 1665 427 1720 487 C 1774 547 1802 629 1802 733 C 1802 837 1774 919 1720 979 C 1666 1039 1591 1069 1497 1069 C 1409 1069 1332 1042 1265 989 C 1198 935 1139 850 1087 733 C 1138 616 1197 531 1265 477 C 1333 423 1410 397 1497 397 Z" unicode="∞" />
<glyph horiz-adv-x="958" d="M 152 -348 C 84 -348 19 -339 -43 -322 L -8 -190 C 44 -204 101 -211 164 -211 C 228 -211 277 -193 311 -159 C 345 -125 362 -70 362 6 L 362 1126 C 362 1243 392 1333 453 1395 C 513 1457 601 1489 717 1489 C 787 1489 851 1480 911 1462 L 877 1331 C 817 1345 760 1352 705 1352 C 572 1352 506 1279 506 1135 L 506 14 C 506 -104 475 -194 414 -256 C 352 -317 265 -348 152 -348 Z" unicode="∫" />
<glyph horiz-adv-x="1421" d="M 219 905 C 315 1019 410 1077 504 1077 C 542 1077 579 1070 617 1058 C 655 1045 692 1031 728 1015 C 764 999 800 985 834 973 C 868 960 900 954 930 954 C 964 954 996 962 1027 980 C 1058 998 1092 1030 1128 1077 L 1223 1004 C 1171 940 1123 896 1079 870 C 1034 844 987 831 938 831 C 900 831 862 837 824 850 C 786 862 749 876 713 892 C 677 908 642 922 608 935 C 574 947 542 954 512 954 C 442 954 376 913 313 831 L 219 905 Z M 219 471 C 315 585 410 643 504 643 C 542 643 579 636 617 624 C 655 611 692 597 728 581 C 764 565 800 551 834 539 C 868 526 900 520 930 520 C 964 520 996 528 1027 546 C 1058 564 1092 596 1128 643 L 1223 569 C 1172 506 1124 462 1079 436 C 1034 410 987 397 938 397 C 900 397 862 403 824 416 C 786 428 749 442 713 458 C 677 474 642 488 608 501 C 574 513 542 520 512 520 C 442 520 376 479 313 397 L 219 471 Z" unicode="≈" />
<glyph horiz-adv-x="1933" d="M 39 1126 L 258 1126 L 258 1231 C 258 1346 287 1435 345 1498 C 403 1561 484 1593 588 1593 C 654 1593 716 1585 774 1569 L 739 1438 C 689 1450 638 1456 584 1456 C 524 1456 479 1437 448 1400 C 416 1362 401 1309 401 1239 L 401 1126 L 936 1126 L 936 1231 C 936 1346 965 1435 1023 1498 C 1081 1561 1162 1593 1266 1593 C 1332 1593 1394 1585 1452 1569 L 1417 1438 C 1367 1450 1316 1456 1262 1456 C 1204 1456 1159 1437 1127 1401 C 1095 1365 1079 1311 1079 1239 L 1079 1126 L 1421 1126 L 1421 993 L 1079 993 L 1079 0 L 936 0 L 936 993 L 401 993 L 401 0 L 258 0 L 258 993 L 39 993 L 39 1126 Z M 1614 1589 L 1757 1589 L 1757 0 L 1614 0 L 1614 1589 Z" unicode="ﬄ" />
<glyph horiz-adv-x="1188" d="M 584 -18 C 436 -18 324 25 248 111 C 171 197 133 323 133 489 L 133 602 L 935 602 C 929 730 894 832 832 908 C 769 984 686 1022 582 1022 C 505 1022 440 1006 386 976 C 332 946 282 893 236 819 L 119 891 C 173 982 238 1048 314 1090 C 389 1132 482 1153 594 1153 C 693 1153 780 1129 854 1081 C 928 1033 985 964 1025 875 C 1065 786 1085 684 1085 569 C 1085 458 1064 358 1022 268 C 980 178 921 107 845 57 C 769 7 682 -18 584 -18 Z M 584 115 C 675 115 751 146 813 210 C 875 273 913 360 929 471 L 283 471 L 283 463 C 283 350 308 264 359 204 C 409 144 484 115 584 115 Z" unicode="ə" />
<glyph horiz-adv-x="1421" d="M 231 1006 L 824 1006 L 969 1231 L 1108 1231 L 963 1006 L 1190 1006 L 1190 872 L 877 872 L 682 569 L 1190 569 L 1190 438 L 597 438 L 453 213 L 313 213 L 458 438 L 231 438 L 231 569 L 542 569 L 737 872 L 231 872 L 231 1006 Z" unicode="≠" />
<glyph horiz-adv-x="1421" d="M 268 631 L 268 788 L 1128 1212 L 1128 1071 L 397 711 L 1128 348 L 1128 205 L 268 631 Z M 268 133 L 1128 133 L 1128 0 L 268 0 L 268 133 Z" unicode="≤" />
<glyph horiz-adv-x="1421" d="M 293 348 L 1024 709 L 293 1071 L 293 1212 L 1153 788 L 1153 631 L 293 205 L 293 348 Z M 293 133 L 1153 133 L 1153 0 L 293 0 L 293 133 Z" unicode="≥" />
<glyph horiz-adv-x="1137" d="M 567 530 C 440 530 342 576 272 670 C 202 764 168 894 168 1061 C 168 1227 203 1357 273 1450 C 343 1542 441 1589 567 1589 C 692 1589 790 1542 862 1449 C 933 1356 969 1227 969 1061 C 969 893 933 762 863 669 C 792 576 693 530 567 530 Z M 567 651 C 741 651 829 787 829 1061 C 829 1331 741 1466 567 1466 C 392 1466 305 1331 305 1061 C 305 787 392 651 567 651 Z" unicode="⁰" />
<glyph horiz-adv-x="1049" d="M 625 788 L 111 788 L 111 887 L 580 1573 L 725 1573 L 268 903 L 629 903 L 668 1133 L 756 1133 L 756 903 L 940 903 L 940 788 L 756 788 L 756 547 L 625 547 L 625 788 Z" unicode="⁴" />
<glyph horiz-adv-x="1032" d="M 496 530 C 408 530 332 547 268 583 C 204 619 157 670 125 737 L 240 791 C 264 742 297 706 338 682 C 378 658 432 647 498 647 C 579 647 642 668 687 710 C 731 752 754 812 754 889 C 754 959 733 1016 691 1058 C 649 1100 594 1122 526 1122 C 434 1122 353 1101 283 1061 L 176 1118 L 225 1573 L 815 1573 L 815 1454 L 334 1454 L 301 1165 C 325 1183 361 1199 409 1212 C 457 1224 507 1231 557 1231 C 653 1231 733 1200 795 1138 C 857 1076 889 994 889 893 C 889 780 853 691 783 627 C 712 562 616 530 496 530 Z" unicode="⁵" />
<glyph horiz-adv-x="1075" d="M 561 530 C 429 530 330 571 262 654 C 194 737 160 856 160 1010 C 160 1193 210 1335 311 1436 C 412 1536 555 1587 739 1587 L 760 1587 L 782 1585 L 776 1470 L 739 1470 C 605 1470 501 1441 428 1383 C 355 1325 311 1230 295 1098 C 355 1197 459 1247 608 1247 C 707 1247 786 1215 844 1153 C 902 1090 932 1006 932 901 C 932 789 898 699 831 631 C 763 563 673 530 561 530 Z M 569 647 C 639 647 695 668 735 712 C 775 755 795 817 795 897 C 795 976 776 1036 738 1078 C 700 1120 645 1141 571 1141 C 523 1141 479 1131 439 1112 C 399 1093 367 1066 343 1030 C 319 994 307 951 307 903 C 307 823 330 761 377 715 C 423 669 487 647 569 647 Z" unicode="⁶" />
<glyph horiz-adv-x="1208" d="M 242 1341 L 555 1526 L 651 1526 L 967 1341 L 926 1257 L 604 1389 L 283 1257 L 242 1341 Z" unicode="ˆ" />
<glyph horiz-adv-x="1208" d="M 242 1427 L 283 1511 L 604 1380 L 926 1511 L 967 1427 L 651 1243 L 557 1243 L 242 1427 Z" unicode="ˇ" />
<glyph horiz-adv-x="913" d="M 289 547 C 308 733 351 905 417 1061 C 483 1217 566 1348 668 1454 L 121 1454 L 121 1573 L 813 1573 L 813 1466 C 709 1370 623 1240 555 1075 C 487 910 446 734 432 547 L 289 547 Z" unicode="⁷" />
<glyph horiz-adv-x="1040" d="M 518 520 C 438 520 369 533 311 560 C 253 587 208 625 178 674 C 148 722 133 778 133 840 C 133 908 149 965 183 1011 C 217 1057 266 1090 332 1112 C 283 1130 246 1158 220 1197 C 194 1235 182 1281 182 1333 C 182 1412 212 1475 272 1523 C 332 1571 414 1595 518 1595 C 622 1595 704 1571 764 1523 C 824 1475 854 1412 854 1333 C 854 1281 840 1236 812 1197 C 784 1157 744 1129 694 1112 C 760 1092 812 1059 850 1012 C 888 964 907 907 907 840 C 907 778 891 722 860 674 C 829 625 784 587 726 560 C 668 533 598 520 518 520 Z M 518 633 C 596 633 658 651 703 688 C 747 725 770 776 770 840 C 770 905 747 957 703 997 C 658 1037 596 1057 518 1057 C 440 1057 378 1036 334 996 C 290 956 268 904 268 840 C 268 777 290 727 334 689 C 378 651 440 633 518 633 Z M 518 1159 C 581 1159 631 1173 667 1203 C 703 1233 721 1274 721 1327 C 721 1374 704 1412 670 1440 C 636 1468 586 1483 518 1483 C 451 1483 401 1468 367 1440 C 333 1412 317 1374 317 1327 C 317 1274 335 1233 371 1203 C 407 1173 456 1159 518 1159 Z" unicode="⁸" />
<glyph horiz-adv-x="1073" d="M 297 651 L 318 649 L 336 649 C 404 649 463 656 514 670 C 565 684 608 704 643 731 C 677 757 706 793 729 838 C 752 883 768 943 778 1018 C 716 918 612 868 467 868 C 368 868 289 899 230 963 C 170 1026 141 1111 141 1219 C 141 1329 174 1418 241 1486 C 308 1554 399 1589 514 1589 C 644 1589 743 1547 811 1465 C 879 1383 913 1264 913 1110 C 913 926 863 784 763 682 C 663 580 520 530 336 530 L 314 530 L 291 532 L 297 651 Z M 504 977 C 551 977 595 986 635 1005 C 675 1024 708 1051 732 1087 C 756 1122 768 1164 768 1212 C 768 1290 744 1353 698 1399 C 652 1445 587 1468 504 1468 C 433 1468 378 1446 338 1403 C 298 1359 279 1298 279 1219 C 279 1140 298 1080 336 1039 C 374 997 430 977 504 977 Z" unicode="⁹" />
<glyph horiz-adv-x="1208" d="M 604 1241 C 498 1241 413 1266 348 1318 C 283 1369 241 1442 223 1536 L 340 1559 C 368 1429 456 1364 604 1364 C 677 1364 736 1380 781 1413 C 825 1445 854 1494 866 1559 L 985 1536 C 963 1440 920 1366 856 1316 C 792 1266 708 1241 604 1241 Z" unicode="˘" />
<glyph horiz-adv-x="1208" d="M 528 1493 L 680 1493 L 680 1280 L 528 1280 L 528 1493 Z" unicode="˙" />
<glyph horiz-adv-x="1208" d="M 604 1237 C 530 1237 467 1262 417 1314 C 367 1365 342 1427 342 1501 C 342 1574 367 1637 417 1689 C 467 1741 529 1767 604 1767 C 676 1767 737 1740 788 1688 C 838 1636 864 1573 864 1501 C 864 1428 838 1366 787 1314 C 736 1262 675 1237 604 1237 Z M 604 1343 C 645 1343 680 1357 709 1387 C 737 1417 752 1455 752 1501 C 752 1545 738 1582 710 1614 C 682 1645 647 1661 604 1661 C 561 1661 525 1645 497 1614 C 469 1583 455 1545 455 1501 C 455 1455 469 1417 498 1387 C 527 1357 562 1343 604 1343 Z" unicode="˚" />
<glyph horiz-adv-x="1208" d="M 621 -446 C 539 -446 477 -430 433 -400 C 389 -369 367 -323 367 -262 C 367 -210 383 -160 415 -110 C 447 -60 491 -19 547 14 L 684 14 C 618 -33 569 -76 537 -116 C 505 -156 489 -196 489 -238 C 489 -302 534 -334 625 -334 C 651 -334 681 -329 713 -320 C 745 -310 771 -300 793 -289 L 844 -387 C 770 -426 695 -446 621 -446 Z" unicode="˛" />
<glyph horiz-adv-x="1208" d="M 199 1358 C 245 1413 291 1455 337 1485 C 383 1515 425 1530 463 1530 C 499 1530 529 1523 554 1511 C 578 1499 601 1485 621 1470 C 641 1455 660 1441 678 1429 C 696 1417 716 1411 739 1411 C 787 1411 845 1451 915 1532 L 1010 1460 C 966 1408 921 1366 874 1335 C 827 1303 785 1288 748 1288 C 717 1288 690 1294 666 1306 C 642 1318 620 1332 600 1347 C 579 1362 558 1376 538 1388 C 518 1400 495 1407 471 1407 C 447 1407 417 1394 383 1370 C 348 1345 318 1316 293 1284 L 199 1358 Z" unicode="˜" />
<glyph horiz-adv-x="1208" d="M 246 1315 L 494 1647 L 608 1548 L 328 1247 L 246 1315 Z M 633 1315 L 881 1647 L 995 1548 L 715 1247 L 633 1315 Z" unicode="˝" />
<glyph horiz-adv-x="1430" d="M 401 0 L 258 0 L 258 993 L 39 993 L 39 1126 L 258 1126 L 258 1231 C 258 1346 287 1435 345 1498 C 403 1561 484 1593 588 1593 C 654 1593 716 1585 774 1569 L 739 1438 C 689 1450 638 1456 584 1456 C 524 1456 479 1437 448 1400 C 416 1362 401 1309 401 1239 L 401 1126 L 936 1126 L 936 1231 C 936 1349 966 1439 1028 1501 C 1089 1562 1176 1593 1290 1593 C 1356 1593 1421 1584 1485 1567 L 1450 1436 C 1395 1449 1338 1456 1278 1456 C 1212 1456 1163 1438 1129 1403 C 1095 1368 1079 1313 1079 1239 L 1079 1126 L 1421 1126 L 1421 993 L 1079 993 L 1079 0 L 936 0 L 936 993 L 401 993 L 401 0 Z" unicode="ﬀ" />
<glyph horiz-adv-x="1243" d="M 39 1126 L 258 1126 L 258 1231 C 258 1346 287 1435 345 1498 C 403 1561 484 1593 588 1593 C 654 1593 716 1585 774 1569 L 739 1438 C 689 1450 638 1456 584 1456 C 524 1456 479 1437 448 1400 C 416 1362 401 1309 401 1239 L 401 1126 L 743 1126 L 743 993 L 401 993 L 401 0 L 258 0 L 258 993 L 39 993 L 39 1126 Z M 936 1126 L 1079 1126 L 1079 0 L 936 0 L 936 1126 Z M 928 1473 L 1087 1473 L 1087 1280 L 928 1280 L 928 1473 Z" unicode="ﬁ" />
<glyph horiz-adv-x="1243" d="M 39 1126 L 258 1126 L 258 1231 C 258 1346 287 1435 345 1498 C 403 1561 484 1593 588 1593 C 654 1593 716 1585 774 1569 L 739 1438 C 689 1450 638 1456 584 1456 C 524 1456 479 1437 448 1400 C 416 1362 401 1309 401 1239 L 401 1126 L 743 1126 L 743 993 L 401 993 L 401 0 L 258 0 L 258 993 L 39 993 L 39 1126 Z M 936 1589 L 1079 1589 L 1079 0 L 936 0 L 936 1589 Z" unicode="ﬂ" />
<glyph horiz-adv-x="1933" d="M 401 0 L 258 0 L 258 993 L 39 993 L 39 1126 L 258 1126 L 258 1231 C 258 1346 287 1435 345 1498 C 403 1561 484 1593 588 1593 C 654 1593 716 1585 774 1569 L 739 1438 C 689 1450 638 1456 584 1456 C 524 1456 479 1437 448 1400 C 416 1362 401 1309 401 1239 L 401 1126 L 936 1126 L 936 1231 C 936 1346 965 1435 1023 1498 C 1081 1561 1162 1593 1266 1593 C 1332 1593 1394 1585 1452 1569 L 1417 1438 C 1367 1450 1316 1456 1262 1456 C 1204 1456 1159 1437 1127 1401 C 1095 1365 1079 1311 1079 1239 L 1079 1126 L 1421 1126 L 1421 993 L 1079 993 L 1079 0 L 936 0 L 936 993 L 401 993 L 401 0 Z M 1614 1126 L 1757 1126 L 1757 0 L 1614 0 L 1614 1126 Z M 1606 1473 L 1765 1473 L 1765 1280 L 1606 1280 L 1606 1473 Z" unicode="ﬃ" />
<glyph horiz-adv-x="1208" d="M 338 1399 L 870 1399 L 870 1278 L 338 1278 L 338 1399 Z" unicode="̄" />
<glyph horiz-adv-x="1208" d="M 702 -252 C 702 -343 690 -409 667 -451 C 643 -492 602 -527 543 -557 L 500 -481 C 543 -457 571 -434 585 -412 C 599 -390 606 -353 606 -301 L 506 -301 L 506 -88 L 702 -88 L 702 -252 Z" unicode="̦" />
<glyph horiz-adv-x="1452" d="M 651 1528 L 799 1528 L 1393 0 L 59 0 L 651 1528 Z M 1188 125 L 723 1333 L 254 125 L 1188 125 Z" unicode="Δ" />
<glyph horiz-adv-x="1681" d="M 113 131 L 543 131 L 543 264 C 415 308 315 384 242 490 C 169 596 133 723 133 872 C 133 1006 161 1124 218 1224 C 275 1324 358 1402 468 1458 C 578 1514 702 1542 842 1542 C 981 1542 1105 1514 1214 1458 C 1323 1402 1406 1323 1463 1223 C 1519 1122 1548 1005 1548 872 C 1548 723 1511 596 1438 490 C 1365 384 1265 308 1139 264 L 1139 131 L 1569 131 L 1569 0 L 991 0 L 991 352 C 1120 376 1220 433 1290 525 C 1360 616 1395 732 1395 872 C 1395 1044 1346 1176 1249 1266 C 1152 1356 1016 1401 842 1401 C 663 1401 526 1355 430 1264 C 334 1173 287 1042 287 872 C 287 730 322 613 392 523 C 462 432 561 375 690 352 L 690 0 L 113 0 L 113 131 Z" unicode="Ω" />
<glyph horiz-adv-x="1235" d="M 158 1126 L 301 1126 L 301 481 C 301 346 319 250 357 194 C 395 137 458 109 547 109 C 673 109 769 138 835 197 C 901 256 934 348 934 473 L 934 1126 L 1077 1126 L 1077 0 L 981 0 L 948 197 C 916 125 862 72 787 36 C 712 0 624 -18 522 -18 C 474 -18 432 -12 394 0 C 356 12 325 36 301 72 L 301 -338 L 158 -338 L 158 1126 Z" unicode="μ" />
<glyph horiz-adv-x="1477" d="M 279 993 L 59 993 L 59 1126 L 1417 1126 L 1417 993 L 1198 993 L 1198 0 L 1055 0 L 1055 993 L 422 993 L 422 0 L 279 0 L 279 993 Z" unicode="π" />
<glyph horiz-adv-x="1440" d="M 825 -25 C 691 -25 579 23 489 119 C 399 215 341 348 315 520 L 82 520 L 82 651 L 307 651 L 305 728 L 307 807 L 82 807 L 82 938 L 319 938 C 346 1112 405 1248 495 1344 C 585 1440 700 1489 838 1489 C 944 1489 1038 1464 1122 1414 C 1206 1364 1271 1293 1317 1202 L 1190 1133 C 1110 1279 992 1352 836 1352 C 630 1352 508 1214 469 938 L 936 938 L 936 807 L 457 807 L 455 757 L 455 651 L 936 651 L 936 520 L 467 520 C 507 246 632 109 840 109 C 920 109 987 126 1043 162 C 1098 197 1150 260 1198 352 L 1323 291 C 1265 182 1196 102 1115 51 C 1034 0 937 -25 825 -25 Z" unicode="€" />
<glyph horiz-adv-x="483" d="M 143 821 L 340 821 L 340 608 L 143 608 L 143 821 Z" unicode="∙" />
<glyph horiz-adv-x="1286" d="M 254 827 L 49 827 L 49 961 L 348 961 L 651 162 L 1143 1466 L 1284 1466 L 723 -12 L 578 -12 L 254 827 Z" unicode="√" />
<glyph horiz-adv-x="1100" d="M 477 993 L 121 993 L 121 1126 L 477 1126 L 477 1589 L 621 1589 L 621 1126 L 979 1126 L 979 993 L 621 993 L 621 -340 L 477 -340 L 477 993 Z" unicode="†" />
<glyph horiz-adv-x="1100" d="M 477 123 L 121 123 L 121 256 L 477 256 L 477 993 L 121 993 L 121 1126 L 477 1126 L 477 1589 L 623 1589 L 623 1126 L 979 1126 L 979 993 L 623 993 L 623 256 L 979 256 L 979 123 L 623 123 L 623 -340 L 477 -340 L 477 123 Z" unicode="‡" />
<glyph horiz-adv-x="696" d="M 207 776 L 489 776 L 489 469 L 207 469 L 207 776 Z" unicode="•" />
<glyph horiz-adv-x="1409" d="M 143 213 L 340 213 L 340 0 L 143 0 L 143 213 Z M 606 213 L 803 213 L 803 0 L 606 0 L 606 213 Z M 1069 213 L 1266 213 L 1266 0 L 1069 0 L 1069 213 Z" unicode="…" />
<glyph horiz-adv-x="1477" d="M 45 621 L 682 1257 L 1323 616 L 686 -20 L 45 621 Z M 1147 612 L 678 1081 L 221 625 L 690 156 L 1147 612 Z" unicode="◊" />
<glyph horiz-adv-x="1866" d="M 102 756 C 102 911 134 1047 200 1165 C 265 1283 363 1375 494 1443 C 625 1510 770 1544 930 1544 C 1090 1544 1236 1510 1367 1443 C 1498 1376 1597 1284 1663 1168 C 1729 1051 1763 914 1763 756 C 1763 599 1730 462 1664 345 C 1598 227 1500 135 1369 67 C 1238 -1 1092 -35 930 -35 C 770 -35 625 0 494 67 C 362 135 264 229 199 347 C 134 465 102 601 102 756 Z M 438 756 C 438 661 457 578 496 506 C 534 434 592 377 670 336 C 747 294 834 274 930 274 C 1026 274 1113 294 1192 335 C 1270 376 1329 433 1368 505 C 1407 577 1427 661 1427 756 C 1427 850 1407 933 1368 1005 C 1328 1077 1269 1133 1190 1174 C 1111 1214 1024 1235 930 1235 C 835 1235 749 1214 671 1173 C 593 1132 535 1076 496 1005 C 457 933 438 850 438 756 Z M 692 756 C 692 824 713 879 757 920 C 801 960 858 981 930 981 C 1000 981 1058 960 1102 920 C 1146 880 1169 825 1169 756 C 1169 685 1147 629 1103 589 C 1059 548 1002 528 930 528 C 858 528 800 548 757 589 C 713 630 692 686 692 756 Z" unicode="" />
<glyph horiz-adv-x="2161" d="M 59 1518 L 207 1518 L 629 231 L 1024 1518 L 1141 1518 L 1536 229 L 1960 1518 L 2099 1518 L 1593 -10 L 1466 -10 L 1079 1235 L 694 -10 L 567 -10 L 59 1518 Z M 803 1817 L 860 1948 L 1354 1694 L 1311 1604 L 803 1817 Z" unicode="Ẁ" />
<glyph horiz-adv-x="1722" d="M 41 1126 L 182 1126 L 512 203 L 801 1126 L 928 1126 L 1217 203 L 1546 1126 L 1681 1126 L 1276 -12 L 1153 -12 L 862 901 L 571 -12 L 449 -12 L 41 1126 Z M 584 1448 L 641 1579 L 1135 1325 L 1092 1235 L 584 1448 Z" unicode="ẁ" />
<glyph horiz-adv-x="2161" d="M 59 1518 L 207 1518 L 629 231 L 1024 1518 L 1141 1518 L 1536 229 L 1960 1518 L 2099 1518 L 1593 -10 L 1466 -10 L 1079 1235 L 694 -10 L 567 -10 L 59 1518 Z M 805 1694 L 1298 1948 L 1356 1817 L 848 1604 L 805 1694 Z" unicode="Ẃ" />
<glyph horiz-adv-x="1722" d="M 41 1126 L 182 1126 L 512 203 L 801 1126 L 928 1126 L 1217 203 L 1546 1126 L 1681 1126 L 1276 -12 L 1153 -12 L 862 901 L 571 -12 L 449 -12 L 41 1126 Z M 586 1325 L 1079 1579 L 1137 1448 L 629 1235 L 586 1325 Z" unicode="ẃ" />
<glyph horiz-adv-x="2161" d="M 59 1518 L 207 1518 L 629 231 L 1024 1518 L 1141 1518 L 1536 229 L 1960 1518 L 2099 1518 L 1593 -10 L 1466 -10 L 1079 1235 L 694 -10 L 567 -10 L 59 1518 Z M 813 1850 L 956 1850 L 956 1647 L 813 1647 L 813 1850 Z M 1202 1850 L 1345 1850 L 1345 1647 L 1202 1647 L 1202 1850 Z" unicode="Ẅ" />
<glyph horiz-adv-x="1722" d="M 41 1126 L 182 1126 L 512 203 L 801 1126 L 928 1126 L 1217 203 L 1546 1126 L 1681 1126 L 1276 -12 L 1153 -12 L 862 901 L 571 -12 L 449 -12 L 41 1126 Z M 594 1481 L 737 1481 L 737 1278 L 594 1278 L 594 1481 Z M 983 1481 L 1126 1481 L 1126 1278 L 983 1278 L 983 1481 Z" unicode="ẅ" />
<glyph horiz-adv-x="1706" d="M 854 -25 C 716 -25 589 10 472 80 C 354 150 262 245 194 367 C 126 488 92 619 92 760 C 92 902 126 1035 196 1157 C 266 1279 359 1374 476 1442 C 592 1510 718 1544 854 1544 C 988 1544 1114 1509 1230 1441 C 1346 1373 1439 1278 1509 1156 C 1579 1034 1614 902 1614 760 C 1614 620 1580 489 1513 368 C 1445 247 1353 151 1236 81 C 1119 10 992 -25 854 -25 Z M 854 70 C 971 70 1080 100 1181 161 C 1282 221 1362 305 1422 412 C 1481 518 1511 634 1511 760 C 1511 886 1481 1002 1422 1108 C 1362 1214 1282 1298 1181 1359 C 1080 1419 971 1450 854 1450 C 735 1450 625 1419 523 1358 C 421 1296 341 1212 283 1105 C 224 997 195 882 195 760 C 195 636 224 521 283 414 C 342 306 422 222 524 161 C 625 100 735 70 854 70 Z M 541 1251 L 922 1251 C 1042 1251 1133 1223 1196 1167 C 1258 1111 1290 1032 1290 928 C 1290 820 1257 739 1191 685 C 1125 631 1029 604 903 604 L 680 604 L 680 223 L 541 223 L 541 1251 Z M 926 729 C 1074 729 1149 795 1149 928 C 1149 995 1130 1044 1094 1075 C 1057 1106 997 1122 913 1122 L 680 1122 L 680 729 L 926 729 Z" unicode="℗" />
<glyph horiz-adv-x="3066" d="M 455 535 C 379 535 310 554 248 594 C 186 634 137 689 103 761 C 68 832 51 915 51 1010 C 51 1104 68 1188 103 1260 C 138 1332 187 1389 249 1429 C 311 1469 379 1489 455 1489 C 529 1489 597 1469 659 1429 C 720 1389 768 1333 803 1260 C 838 1186 856 1103 856 1010 C 856 916 838 833 804 761 C 769 689 721 633 659 594 C 597 554 529 535 455 535 Z M 455 662 C 533 662 596 693 644 756 C 692 819 717 904 717 1010 C 717 1118 692 1203 643 1265 C 593 1327 531 1358 455 1358 C 404 1358 358 1344 318 1316 C 278 1288 246 1248 224 1195 C 201 1142 190 1080 190 1010 C 190 906 214 822 262 758 C 310 694 374 662 455 662 Z M 1442 1466 L 1575 1466 L 727 0 L 592 0 L 1442 1466 Z M 1718 -23 C 1642 -23 1574 -3 1512 37 C 1450 77 1401 133 1367 206 C 1332 279 1315 362 1315 455 C 1315 549 1332 632 1367 704 C 1401 776 1450 832 1512 872 C 1574 912 1643 932 1718 932 C 1792 932 1860 912 1922 873 C 1984 833 2032 777 2067 705 C 2102 633 2120 549 2120 455 C 2120 361 2102 277 2067 205 C 2032 132 1984 76 1922 36 C 1860 -3 1792 -23 1718 -23 Z M 1718 106 C 1768 106 1813 120 1854 149 C 1894 178 1925 219 1947 271 C 1969 323 1980 385 1980 455 C 1980 563 1955 648 1906 710 C 1856 772 1794 803 1718 803 C 1668 803 1622 789 1582 761 C 1542 733 1510 692 1488 640 C 1465 588 1454 526 1454 455 C 1454 384 1465 322 1488 269 C 1510 216 1542 176 1582 148 C 1622 120 1668 106 1718 106 Z M 2613 -23 C 2537 -23 2469 -3 2407 37 C 2345 77 2296 133 2262 206 C 2227 279 2210 362 2210 455 C 2210 549 2227 632 2262 704 C 2296 776 2345 832 2407 872 C 2469 912 2538 932 2613 932 C 2687 932 2755 912 2817 873 C 2879 833 2927 777 2962 705 C 2997 633 3015 549 3015 455 C 3015 361 2997 277 2962 205 C 2927 132 2879 76 2817 36 C 2755 -3 2687 -23 2613 -23 Z M 2613 106 C 2663 106 2708 120 2749 149 C 2789 178 2820 219 2842 271 C 2864 323 2875 385 2875 455 C 2875 563 2850 648 2801 710 C 2751 772 2689 803 2613 803 C 2563 803 2517 789 2477 761 C 2437 733 2405 692 2383 640 C 2360 588 2349 526 2349 455 C 2349 384 2360 322 2383 269 C 2405 216 2437 176 2477 148 C 2517 120 2563 106 2613 106 Z" unicode="‰" />
<glyph horiz-adv-x="2218" d="M 993 1520 L 1143 1520 L 1454 758 L 1767 1520 L 1917 1520 L 1917 590 L 1788 590 L 1788 1268 L 1509 590 L 1395 590 L 1116 1268 L 1116 590 L 993 590 L 993 1520 Z M 451 1401 L 135 1401 L 135 1520 L 893 1520 L 893 1401 L 580 1401 L 580 590 L 451 590 L 451 1401 Z" unicode="™" />
<glyph horiz-adv-x="573" d="M 287 1466 L 449 1466 L 303 895 L 188 895 L 287 1466 Z" unicode="′" />
<glyph horiz-adv-x="1681" d="M 113 131 L 543 131 L 543 264 C 415 308 315 384 242 490 C 169 596 133 723 133 872 C 133 1006 161 1124 218 1224 C 275 1324 358 1402 468 1458 C 578 1514 702 1542 842 1542 C 981 1542 1105 1514 1214 1458 C 1323 1402 1406 1323 1463 1223 C 1519 1122 1548 1005 1548 872 C 1548 723 1511 596 1438 490 C 1365 384 1265 308 1139 264 L 1139 131 L 1569 131 L 1569 0 L 991 0 L 991 352 C 1120 376 1220 433 1290 525 C 1360 616 1395 732 1395 872 C 1395 1044 1346 1176 1249 1266 C 1152 1356 1016 1401 842 1401 C 663 1401 526 1355 430 1264 C 334 1173 287 1042 287 872 C 287 730 322 613 392 523 C 462 432 561 375 690 352 L 690 0 L 113 0 L 113 131 Z" unicode="Ω" />
<glyph horiz-adv-x="1386" d="M 618 633 L 49 1518 L 213 1518 L 696 760 L 1182 1518 L 1339 1518 L 770 633 L 770 0 L 618 0 L 618 633 Z M 416 1817 L 473 1948 L 967 1694 L 924 1604 L 416 1817 Z" unicode="Ỳ" />
<glyph horiz-adv-x="1063" d="M 258 -360 C 168 -360 82 -339 0 -299 L 61 -178 C 97 -194 130 -205 158 -213 C 186 -221 217 -225 250 -225 C 300 -225 339 -209 369 -179 C 399 -148 430 -89 463 -2 L 31 1126 L 178 1126 L 535 180 L 893 1126 L 1032 1126 L 569 -80 C 533 -176 490 -246 440 -292 C 389 -337 328 -360 258 -360 Z M 255 1448 L 312 1579 L 806 1325 L 763 1235 L 255 1448 Z" unicode="ỳ" />
<glyph horiz-adv-x="983" d="M 287 1466 L 449 1466 L 303 895 L 188 895 L 287 1466 Z M 698 1466 L 860 1466 L 713 895 L 600 895 L 698 1466 Z" unicode="″" />
<glyph horiz-adv-x="1286" d="M 92 961 L 238 961 L 541 162 L 1053 1520 L 1194 1520 L 612 -12 L 467 -12 L 92 961 Z" unicode="✓" />
<glyph horiz-adv-x="1427" d="M 356 651 L 356 201 C 454 103 573 55 713 55 C 813 55 901 77 978 122 C 1055 166 1128 243 1198 352 L 1274 305 C 1194 185 1110 100 1021 50 C 932 0 829 -25 713 -25 C 592 -25 483 4 386 63 C 289 121 213 203 159 308 C 105 412 78 527 78 653 C 78 781 104 898 158 1002 C 212 1106 287 1186 385 1244 C 482 1302 593 1331 719 1331 C 843 1331 953 1302 1050 1244 C 1146 1186 1222 1104 1276 1000 C 1330 895 1358 779 1360 651 L 356 651 Z M 1075 1106 C 1025 1152 968 1188 905 1213 C 841 1238 779 1251 717 1251 C 573 1251 452 1202 356 1106 L 356 733 L 1075 733 L 1075 1106 Z" unicode="℮" />
<glyph horiz-adv-x="858" d="M 182 563 L 492 1126 L 614 1126 L 338 563 L 614 0 L 492 0 L 182 563 Z" unicode="‹" />
<glyph horiz-adv-x="858" d="M 367 0 L 244 0 L 520 563 L 244 1126 L 367 1126 L 676 563 L 367 0 Z" unicode="›" />
</font>
</defs>
</svg>
