<?xml version="1.0" encoding="UTF-8" standalone="no"?>
<svg width="30px" height="35px" viewBox="0 0 30 35" version="1.1" xmlns="http://www.w3.org/2000/svg" xmlns:xlink="http://www.w3.org/1999/xlink" xmlns:sketch="http://www.bohemiancoding.com/sketch/ns">
    <title>workshop-logo</title>
    <description>Created with Sketch (http://www.bohemiancoding.com/sketch)</description>
    <defs></defs>
    <g id="Page-1" stroke="none" stroke-width="1" fill="none" fill-rule="evenodd" sketch:type="MSPage">
        <g id="Group" sketch:type="MSLayerGroup" transform="translate(1.000000, 3.000000)">
            <path d="M10,2.9973917 L10,8.0026083 C10,9.66206499 11.3383142,11 13.0059191,11 L15.9940809,11 C17.6528227,11 19,9.65780975 19,8.0026083 L19,2.9973917 C19,1.33793501 17.6616858,0 15.9940809,0 L13.0059191,0 C11.3471773,0 10,1.34219025 10,2.9973917 Z M15.9940809,2 C16.5572432,2 17,2.44263139 17,2.9973917 L17,8.0026083 C17,8.55157642 16.5499103,9 15.9940809,9 L13.0059191,9 C12.4427568,9 12,8.55736861 12,8.0026083 L12,2.9973917 C12,2.44842358 12.4500897,2 13.0059191,2 L15.9940809,2 Z" id="Rectangle-21" fill="#111111" sketch:type="MSShapeGroup"></path>
            <ellipse id="Oval-1" fill="#F8F8F8" sketch:type="MSShapeGroup" cx="12.5" cy="19.5" rx="12.5" ry="4.5"></ellipse>
            <rect id="Rectangle-1" fill="#B99F8D" sketch:type="MSShapeGroup" x="5" y="6" width="19" height="14"></rect>
            <circle id="Oval-2" fill="#D7553C" sketch:type="MSShapeGroup" cx="11" cy="10" r="2"></circle>
            <rect id="Rectangle" stroke="#111111" fill="#FFFFFF" sketch:type="MSShapeGroup" transform="translate(17.000000, 14.000000) rotate(-45.000000) translate(-17.000000, -14.000000) " x="15" y="13" width="4" height="2"></rect>
            <path d="M4,6.99188419 L4,18.0081158 C4,19.6620055 5.34015955,21 6.99742191,21 L22.0025781,21 C23.6569579,21 25,19.6599381 25,18.0081158 L25,6.99188419 C25,5.33799449 23.6598405,4 22.0025781,4 L6.99742191,4 C5.34304214,4 4,5.34006195 4,6.99188419 Z M22.0025781,6 C22.5559942,6 23,6.44328852 23,6.99188419 L23,18.0081158 C23,18.5543728 22.5533817,19 22.0025781,19 L6.99742191,19 C6.44400582,19 6,18.5567115 6,18.0081158 L6,6.99188419 C6,6.44562725 6.44661828,6 6.99742191,6 L22.0025781,6 Z" id="Rectangle-20" fill="#111111" sketch:type="MSShapeGroup"></path>
        </g>
    </g>
</svg>