<?xml version="1.0" encoding="UTF-8" standalone="no"?>
<svg width="23px" height="26px" viewBox="0 0 23 26" version="1.1" xmlns="http://www.w3.org/2000/svg" xmlns:xlink="http://www.w3.org/1999/xlink" xmlns:sketch="http://www.bohemiancoding.com/sketch/ns">
    <title>star1</title>
    <description>Created with Sketch (http://www.bohemiancoding.com/sketch)</description>
    <defs></defs>
    <g id="Page-1" stroke="none" stroke-width="1" fill="none" fill-rule="evenodd" sketch:type="MSPage">
        <path d="M10.881,0.288 C13.192,1.593 13.403,4.995 15.272,6.745 C17.379,6.751 21.264,5.706 22.502,7.261 C22.424,9.958 19.536,12.025 18.37,14.491 C19.139,17.425 20.887,19.376 20.694,23.271 C17.358,22.646 15.969,20.075 13.463,18.622 C12.084,19.542 10.875,21.001 9.59,22.239 C8.409,23.376 7.223,25.017 5.717,25.077 C4.575,24.218 5.561,22.489 5.717,21.204 C5.897,19.73 5.913,18.238 5.975,16.816 C4.209,14.706 1.463,13.581 0.811,10.359 C2.45,9.329 5.512,9.724 7.266,8.81 C8.51,6.007 9.6,3.052 10.881,0.288" id="Fill-118" fill="#FFD084" sketch:type="MSShapeGroup"></path>
    </g>
</svg>